G04 #@! TF.GenerationSoftware,KiCad,Pcbnew,5.1.9*
G04 #@! TF.CreationDate,2021-04-27T01:21:22+02:00*
G04 #@! TF.ProjectId,main,6d61696e-2e6b-4696-9361-645f70636258,rev?*
G04 #@! TF.SameCoordinates,Original*
G04 #@! TF.FileFunction,Soldermask,Top*
G04 #@! TF.FilePolarity,Negative*
%FSLAX46Y46*%
G04 Gerber Fmt 4.6, Leading zero omitted, Abs format (unit mm)*
G04 Created by KiCad (PCBNEW 5.1.9) date 2021-04-27 01:21:22*
%MOMM*%
%LPD*%
G01*
G04 APERTURE LIST*
%ADD10R,0.600000X1.450000*%
%ADD11R,0.300000X1.450000*%
%ADD12C,0.650000*%
%ADD13O,1.000000X2.100000*%
%ADD14O,1.000000X1.600000*%
%ADD15C,1.700000*%
%ADD16C,3.200000*%
%ADD17C,1.422400*%
%ADD18R,1.422400X1.422400*%
%ADD19C,5.000000*%
%ADD20C,1.800000*%
%ADD21R,1.600000X1.600000*%
%ADD22C,1.600000*%
%ADD23C,3.800000*%
%ADD24C,2.100000*%
%ADD25R,1.750000X0.440000*%
%ADD26O,1.600000X1.600000*%
%ADD27C,2.200000*%
%ADD28O,3.000000X4.000000*%
%ADD29R,3.599180X4.599940*%
%ADD30R,3.599180X4.200000*%
%ADD31R,1.498600X0.998220*%
%ADD32R,2.000000X2.000000*%
%ADD33C,3.100000*%
%ADD34C,2.500000*%
%ADD35O,1.400000X2.200000*%
%ADD36O,2.200000X1.400000*%
%ADD37C,0.100000*%
%ADD38C,2.400000*%
%ADD39C,1.200000*%
%ADD40R,1.520000X1.520000*%
%ADD41C,1.520000*%
%ADD42O,1.400000X1.400000*%
%ADD43C,1.400000*%
%ADD44O,1.800000X1.800000*%
%ADD45R,1.800000X1.800000*%
%ADD46O,1.700000X1.700000*%
%ADD47R,1.700000X1.700000*%
G04 APERTURE END LIST*
D10*
X208105000Y-22935000D03*
X214555000Y-22935000D03*
X208880000Y-22935000D03*
X213780000Y-22935000D03*
D11*
X213080000Y-22935000D03*
X209580000Y-22935000D03*
X212580000Y-22935000D03*
X210080000Y-22935000D03*
X212080000Y-22935000D03*
X210580000Y-22935000D03*
X211080000Y-22935000D03*
X211580000Y-22935000D03*
D12*
X208440000Y-21490000D03*
X214220000Y-21490000D03*
D13*
X215650000Y-22020000D03*
X207010000Y-22020000D03*
D14*
X215650000Y-17840000D03*
X207010000Y-17840000D03*
X193800000Y-17840000D03*
X202440000Y-17840000D03*
D13*
X193800000Y-22020000D03*
X202440000Y-22020000D03*
D12*
X201010000Y-21490000D03*
X195230000Y-21490000D03*
D11*
X198370000Y-22935000D03*
X197870000Y-22935000D03*
X197370000Y-22935000D03*
X198870000Y-22935000D03*
X196870000Y-22935000D03*
X199370000Y-22935000D03*
X196370000Y-22935000D03*
X199870000Y-22935000D03*
D10*
X200570000Y-22935000D03*
X195670000Y-22935000D03*
X201345000Y-22935000D03*
X194895000Y-22935000D03*
D15*
X184150000Y-53340000D03*
X194310000Y-53340000D03*
X137160000Y-119380000D03*
X171450000Y-46990000D03*
X189230000Y-53340000D03*
X106680000Y-57150000D03*
X34290000Y-40640000D03*
X38100000Y-107950000D03*
X38100000Y-132080000D03*
D16*
X21000000Y-20000000D03*
D17*
X137160000Y-40640000D03*
X165100000Y-55880000D03*
X139700000Y-40640000D03*
X162560000Y-55880000D03*
X142240000Y-40640000D03*
X160020000Y-55880000D03*
X144780000Y-40640000D03*
X157480000Y-55880000D03*
X147320000Y-40640000D03*
X154940000Y-55880000D03*
X149860000Y-40640000D03*
X152400000Y-55880000D03*
X152400000Y-40640000D03*
X149860000Y-55880000D03*
X154940000Y-40640000D03*
X147320000Y-55880000D03*
X157480000Y-40640000D03*
X144780000Y-55880000D03*
X160020000Y-40640000D03*
X142240000Y-55880000D03*
X162560000Y-40640000D03*
X139700000Y-55880000D03*
X165100000Y-40640000D03*
D18*
X137160000Y-55880000D03*
D17*
X114300000Y-83820000D03*
X114300000Y-81280000D03*
X111760000Y-81280000D03*
X111760000Y-83820000D03*
X109220000Y-81280000D03*
X109220000Y-83820000D03*
X106680000Y-81280000D03*
X106680000Y-83820000D03*
X104140000Y-81280000D03*
X104140000Y-83820000D03*
X101600000Y-81280000D03*
X99060000Y-83820000D03*
X101600000Y-83820000D03*
X99060000Y-86360000D03*
X101600000Y-86360000D03*
X99060000Y-88900000D03*
X101600000Y-88900000D03*
X99060000Y-91440000D03*
X101600000Y-91440000D03*
X99060000Y-93980000D03*
X101600000Y-93980000D03*
X99060000Y-96520000D03*
X101600000Y-96520000D03*
X99060000Y-99060000D03*
X101600000Y-99060000D03*
X99060000Y-101600000D03*
X101600000Y-101600000D03*
X99060000Y-109220000D03*
X99060000Y-104140000D03*
X101600000Y-104140000D03*
X99060000Y-106680000D03*
X101600000Y-106680000D03*
X101600000Y-111760000D03*
X101600000Y-109220000D03*
X104140000Y-111760000D03*
X104140000Y-109220000D03*
X106680000Y-111760000D03*
X106680000Y-109220000D03*
X109220000Y-111760000D03*
X109220000Y-109220000D03*
X111760000Y-111760000D03*
X111760000Y-109220000D03*
X114300000Y-111760000D03*
X114300000Y-109220000D03*
X116840000Y-111760000D03*
X116840000Y-109220000D03*
X119380000Y-111760000D03*
X119380000Y-109220000D03*
X121920000Y-111760000D03*
X121920000Y-109220000D03*
X124460000Y-111760000D03*
X124460000Y-109220000D03*
X127000000Y-111760000D03*
X129540000Y-109220000D03*
X127000000Y-109220000D03*
X129540000Y-106680000D03*
X127000000Y-106680000D03*
X129540000Y-104140000D03*
X127000000Y-104140000D03*
X129540000Y-101600000D03*
X127000000Y-101600000D03*
X129540000Y-99060000D03*
X127000000Y-99060000D03*
X129540000Y-96520000D03*
X127000000Y-96520000D03*
X129540000Y-93980000D03*
X127000000Y-93980000D03*
X129540000Y-91440000D03*
X127000000Y-91440000D03*
X129540000Y-88900000D03*
X127000000Y-88900000D03*
X129540000Y-86360000D03*
X127000000Y-86360000D03*
X129540000Y-83820000D03*
X127000000Y-81280000D03*
X127000000Y-83820000D03*
X124460000Y-81280000D03*
X124460000Y-83820000D03*
X121920000Y-81280000D03*
X121920000Y-83820000D03*
X119380000Y-81280000D03*
X119380000Y-83820000D03*
X116840000Y-81280000D03*
X116840000Y-83820000D03*
D19*
X109220000Y-101600000D03*
X119380000Y-101600000D03*
X119380000Y-91440000D03*
X109220000Y-91440000D03*
D20*
X142240000Y-71120000D03*
X139700000Y-71120000D03*
X139700000Y-73660000D03*
X142240000Y-73660000D03*
X142240000Y-81280000D03*
X139700000Y-81280000D03*
X142240000Y-78740000D03*
X139700000Y-78740000D03*
X142240000Y-76200000D03*
X139700000Y-76200000D03*
D21*
X132080000Y-63500000D03*
D22*
X116840000Y-71120000D03*
X129540000Y-63500000D03*
X119380000Y-71120000D03*
X127000000Y-63500000D03*
X121920000Y-71120000D03*
X124460000Y-63500000D03*
X124460000Y-71120000D03*
X121920000Y-63500000D03*
X127000000Y-71120000D03*
X119380000Y-63500000D03*
X129540000Y-71120000D03*
X116840000Y-63500000D03*
X132080000Y-71120000D03*
D17*
X96520000Y-74930000D03*
X76200000Y-67310000D03*
X93980000Y-74930000D03*
X78740000Y-67310000D03*
X91440000Y-74930000D03*
X81280000Y-67310000D03*
X88900000Y-74930000D03*
X83820000Y-67310000D03*
X86360000Y-74930000D03*
X86360000Y-67310000D03*
X83820000Y-74930000D03*
X88900000Y-67310000D03*
X81280000Y-74930000D03*
X91440000Y-67310000D03*
X78740000Y-74930000D03*
X93980000Y-67310000D03*
X76200000Y-74930000D03*
D18*
X96520000Y-67310000D03*
D16*
X110439200Y-69240400D03*
X205000000Y-158000000D03*
D22*
X26180000Y-77000000D03*
X26180000Y-74460000D03*
X26180000Y-71920000D03*
X26180000Y-69380000D03*
X26180000Y-66840000D03*
X26180000Y-64300000D03*
X26180000Y-61760000D03*
X26180000Y-59220000D03*
X26180000Y-56680000D03*
X26180000Y-54140000D03*
X26180000Y-51600000D03*
X26180000Y-49060000D03*
X26180000Y-46520000D03*
X26180000Y-43980000D03*
X26180000Y-41440000D03*
X26180000Y-38900000D03*
X23640000Y-77000000D03*
X23640000Y-74460000D03*
X23640000Y-71920000D03*
X23640000Y-69380000D03*
X23640000Y-66840000D03*
X23640000Y-64300000D03*
X23640000Y-61760000D03*
X23640000Y-59220000D03*
X23640000Y-56680000D03*
X23640000Y-54140000D03*
X23640000Y-51600000D03*
X23640000Y-49060000D03*
X23640000Y-46520000D03*
X23640000Y-43980000D03*
X23640000Y-41440000D03*
X23640000Y-38900000D03*
X21100000Y-77000000D03*
X21100000Y-74460000D03*
X21100000Y-71920000D03*
X21100000Y-69380000D03*
X21100000Y-66840000D03*
X21100000Y-64300000D03*
X21100000Y-61760000D03*
X21100000Y-59220000D03*
X21100000Y-56680000D03*
X21100000Y-54140000D03*
X21100000Y-51600000D03*
X21100000Y-49060000D03*
X21100000Y-46520000D03*
X21100000Y-43980000D03*
X21100000Y-41440000D03*
D23*
X18560000Y-82080000D03*
X18560000Y-33820000D03*
D22*
X21100000Y-38900000D03*
D24*
X214630000Y-43180000D03*
X214630000Y-45680000D03*
X214630000Y-48180000D03*
X224630000Y-45680000D03*
D25*
X194100000Y-36415000D03*
X194100000Y-37065000D03*
X194100000Y-37715000D03*
X194100000Y-38365000D03*
X194100000Y-39015000D03*
X194100000Y-39665000D03*
X194100000Y-40315000D03*
X194100000Y-40965000D03*
X194100000Y-41615000D03*
X194100000Y-42265000D03*
X194100000Y-42915000D03*
X194100000Y-43565000D03*
X194100000Y-44215000D03*
X194100000Y-44865000D03*
X186900000Y-44865000D03*
X186900000Y-44215000D03*
X186900000Y-43565000D03*
X186900000Y-42915000D03*
X186900000Y-42265000D03*
X186900000Y-41615000D03*
X186900000Y-40965000D03*
X186900000Y-40315000D03*
X186900000Y-39665000D03*
X186900000Y-39015000D03*
X186900000Y-38365000D03*
X186900000Y-37715000D03*
X186900000Y-37065000D03*
X186900000Y-36415000D03*
D17*
X68580000Y-160020000D03*
X48260000Y-152400000D03*
X66040000Y-160020000D03*
X50800000Y-152400000D03*
X63500000Y-160020000D03*
X53340000Y-152400000D03*
X60960000Y-160020000D03*
X55880000Y-152400000D03*
X58420000Y-160020000D03*
X58420000Y-152400000D03*
X55880000Y-160020000D03*
X60960000Y-152400000D03*
X53340000Y-160020000D03*
X63500000Y-152400000D03*
X50800000Y-160020000D03*
X66040000Y-152400000D03*
X48260000Y-160020000D03*
D18*
X68580000Y-152400000D03*
D21*
X39370000Y-144145000D03*
D26*
X39370000Y-136525000D03*
D17*
X40640000Y-86360000D03*
X88900000Y-101600000D03*
X43180000Y-86360000D03*
X86360000Y-101600000D03*
X45720000Y-86360000D03*
X83820000Y-101600000D03*
X48260000Y-86360000D03*
X81280000Y-101600000D03*
X50800000Y-86360000D03*
X78740000Y-101600000D03*
X53340000Y-86360000D03*
X76200000Y-101600000D03*
X55880000Y-86360000D03*
X73660000Y-101600000D03*
X58420000Y-86360000D03*
X71120000Y-101600000D03*
X60960000Y-86360000D03*
X68580000Y-101600000D03*
X63500000Y-86360000D03*
X66040000Y-101600000D03*
X66040000Y-86360000D03*
X63500000Y-101600000D03*
X68580000Y-86360000D03*
X60960000Y-101600000D03*
X71120000Y-86360000D03*
X58420000Y-101600000D03*
X73660000Y-86360000D03*
X55880000Y-101600000D03*
X76200000Y-86360000D03*
X53340000Y-101600000D03*
X78740000Y-86360000D03*
X50800000Y-101600000D03*
X81280000Y-86360000D03*
X48260000Y-101600000D03*
X83820000Y-86360000D03*
X45720000Y-101600000D03*
X86360000Y-86360000D03*
X43180000Y-101600000D03*
X88900000Y-86360000D03*
D18*
X40640000Y-101600000D03*
D16*
X221000000Y-20000000D03*
X36830000Y-158115000D03*
D27*
X97950000Y-30298640D03*
X99855000Y-25218640D03*
X101760000Y-30298640D03*
X103665000Y-25218640D03*
X105570000Y-30298640D03*
X107475000Y-25218640D03*
X109380000Y-30298640D03*
X111285000Y-25218640D03*
X113190000Y-30298640D03*
X115095000Y-25218640D03*
X117000000Y-30298640D03*
X118905000Y-25218640D03*
X120810000Y-30298640D03*
X122715000Y-25218640D03*
X124620000Y-30298640D03*
X126525000Y-25218640D03*
X128430000Y-30298640D03*
X130335000Y-25218640D03*
X132240000Y-30298640D03*
X134145000Y-25218640D03*
X136050000Y-30298640D03*
D28*
X90500180Y-23219660D03*
X143499820Y-23219660D03*
D29*
X26670000Y-117520720D03*
D30*
X26670000Y-88219280D03*
D22*
X132080000Y-74930000D03*
X127000000Y-74930000D03*
X38100000Y-101600000D03*
X38100000Y-96520000D03*
X43180000Y-116840000D03*
X43180000Y-111760000D03*
X43180000Y-132080000D03*
X43180000Y-137160000D03*
X93345000Y-119380000D03*
X93345000Y-124460000D03*
X23495000Y-30480000D03*
X23495000Y-25400000D03*
X29210000Y-33020000D03*
X34290000Y-33020000D03*
D21*
X19050000Y-26035000D03*
D22*
X19050000Y-28575000D03*
X114300000Y-76200000D03*
X119380000Y-76200000D03*
X134620000Y-86360000D03*
X134620000Y-81280000D03*
X134620000Y-96520000D03*
X134620000Y-101600000D03*
X114300000Y-116840000D03*
X119380000Y-116840000D03*
X127000000Y-116840000D03*
X121920000Y-116840000D03*
X109220000Y-116840000D03*
X104140000Y-116840000D03*
X93980000Y-101600000D03*
X93980000Y-106680000D03*
X109220000Y-76200000D03*
X104140000Y-76200000D03*
X83820000Y-24130000D03*
X83820000Y-21590000D03*
X83820000Y-29210000D03*
X83820000Y-26670000D03*
X99060000Y-69850000D03*
X99060000Y-74930000D03*
X99060000Y-64770000D03*
X99060000Y-59690000D03*
X99060000Y-49530000D03*
X99060000Y-54610000D03*
X99060000Y-44450000D03*
X99060000Y-39370000D03*
X49530000Y-52070000D03*
D21*
X49530000Y-54610000D03*
X102870000Y-48260000D03*
D22*
X102870000Y-45720000D03*
X102870000Y-66040000D03*
D21*
X102870000Y-68580000D03*
D22*
X40640000Y-17780000D03*
D21*
X40640000Y-20320000D03*
D22*
X51435000Y-20320000D03*
X51435000Y-25400000D03*
X81280000Y-77470000D03*
X76200000Y-77470000D03*
D21*
X46990000Y-26670000D03*
D22*
X46990000Y-24130000D03*
X193820000Y-104160000D03*
X193820000Y-109240000D03*
X193820000Y-68600000D03*
X193820000Y-73680000D03*
X193040000Y-96520000D03*
X193040000Y-91440000D03*
X191770000Y-49530000D03*
X196850000Y-49530000D03*
X195580000Y-33020000D03*
X190500000Y-33020000D03*
D21*
X87630000Y-124460000D03*
D22*
X90170000Y-124460000D03*
X191770000Y-46990000D03*
X196850000Y-46990000D03*
X157480000Y-33020000D03*
X162560000Y-33020000D03*
X165100000Y-33020000D03*
X170180000Y-33020000D03*
X175260000Y-33020000D03*
X180340000Y-33020000D03*
X182880000Y-33020000D03*
X187960000Y-33020000D03*
D17*
X149860000Y-17780000D03*
X154940000Y-17780000D03*
D22*
X170180000Y-60960000D03*
X165100000Y-60960000D03*
X134620000Y-50800000D03*
X134620000Y-55880000D03*
X127000000Y-53340000D03*
X132080000Y-53340000D03*
X120650000Y-45720000D03*
D21*
X120650000Y-48260000D03*
D22*
X106680000Y-35560000D03*
X106680000Y-40640000D03*
X109220000Y-40640000D03*
X109220000Y-35560000D03*
X205740000Y-40640000D03*
X200660000Y-40640000D03*
D21*
X203200000Y-33020000D03*
D22*
X205740000Y-33020000D03*
X222000000Y-122040000D03*
D21*
X222000000Y-119500000D03*
X222000000Y-84460000D03*
D22*
X222000000Y-87000000D03*
D26*
X36830000Y-136525000D03*
D21*
X36830000Y-144145000D03*
D27*
X220532200Y-115816848D03*
X220532200Y-91620808D03*
D31*
X196224400Y-116797288D03*
D32*
X217230000Y-88650000D03*
X218430000Y-117600000D03*
D31*
X196224400Y-101021348D03*
X196224400Y-94320828D03*
X196224400Y-113447028D03*
X196224400Y-111747768D03*
X196224400Y-109316988D03*
X196224400Y-106817628D03*
X196224400Y-104541788D03*
X196224400Y-102895868D03*
X196224400Y-99319548D03*
X196224400Y-96820188D03*
X196224400Y-61820188D03*
X196224400Y-64319548D03*
X196224400Y-67895868D03*
X196224400Y-69541788D03*
X196224400Y-71817628D03*
X196224400Y-74316988D03*
X196224400Y-76747768D03*
X196224400Y-78447028D03*
X196224400Y-59320828D03*
X196224400Y-66021348D03*
D32*
X218430000Y-82600000D03*
X217230000Y-53650000D03*
D31*
X196224400Y-81797288D03*
D27*
X220532200Y-56620808D03*
X220532200Y-80816848D03*
D15*
X163700000Y-23800000D03*
X166300000Y-23800000D03*
X161600000Y-26300000D03*
X168400000Y-26300000D03*
X161600000Y-23800000D03*
X168400000Y-23800000D03*
D33*
X171750000Y-20800000D03*
X165000000Y-20000000D03*
X158250000Y-20800000D03*
X176250000Y-20800000D03*
X183000000Y-20000000D03*
X189750000Y-20800000D03*
D15*
X186400000Y-23800000D03*
X179600000Y-23800000D03*
X186400000Y-26300000D03*
X179600000Y-26300000D03*
X184300000Y-23800000D03*
X181700000Y-23800000D03*
D34*
X30000000Y-156500000D03*
X30000000Y-152500000D03*
X30000000Y-148500000D03*
X30000000Y-142000000D03*
X30000000Y-138000000D03*
X30000000Y-134000000D03*
X30000000Y-130000000D03*
X212000000Y-157000000D03*
X212000000Y-153000000D03*
X212000000Y-149000000D03*
X212000000Y-145000000D03*
X212000000Y-138500000D03*
X212000000Y-134500000D03*
X212000000Y-130500000D03*
D35*
X222500000Y-32000000D03*
D36*
X217500000Y-34500000D03*
X217500000Y-37000000D03*
X217500000Y-29500000D03*
X217500000Y-27000000D03*
D37*
G36*
X126885000Y-43650000D02*
G01*
X126885000Y-43150000D01*
X126885602Y-43150000D01*
X126885602Y-43125466D01*
X126890412Y-43076635D01*
X126899984Y-43028510D01*
X126914228Y-42981555D01*
X126933005Y-42936222D01*
X126956136Y-42892949D01*
X126983396Y-42852150D01*
X127014524Y-42814221D01*
X127049221Y-42779524D01*
X127087150Y-42748396D01*
X127127949Y-42721136D01*
X127171222Y-42698005D01*
X127216555Y-42679228D01*
X127263510Y-42664984D01*
X127311635Y-42655412D01*
X127360466Y-42650602D01*
X127385000Y-42650602D01*
X127385000Y-42650000D01*
X127885000Y-42650000D01*
X127885000Y-42650602D01*
X127909534Y-42650602D01*
X127958365Y-42655412D01*
X128006490Y-42664984D01*
X128053445Y-42679228D01*
X128098778Y-42698005D01*
X128142051Y-42721136D01*
X128182850Y-42748396D01*
X128220779Y-42779524D01*
X128255476Y-42814221D01*
X128286604Y-42852150D01*
X128313864Y-42892949D01*
X128336995Y-42936222D01*
X128355772Y-42981555D01*
X128370016Y-43028510D01*
X128379588Y-43076635D01*
X128384398Y-43125466D01*
X128384398Y-43150000D01*
X128385000Y-43150000D01*
X128385000Y-43650000D01*
X126885000Y-43650000D01*
G37*
G36*
X128384398Y-44450000D02*
G01*
X128384398Y-44474534D01*
X128379588Y-44523365D01*
X128370016Y-44571490D01*
X128355772Y-44618445D01*
X128336995Y-44663778D01*
X128313864Y-44707051D01*
X128286604Y-44747850D01*
X128255476Y-44785779D01*
X128220779Y-44820476D01*
X128182850Y-44851604D01*
X128142051Y-44878864D01*
X128098778Y-44901995D01*
X128053445Y-44920772D01*
X128006490Y-44935016D01*
X127958365Y-44944588D01*
X127909534Y-44949398D01*
X127885000Y-44949398D01*
X127885000Y-44950000D01*
X127385000Y-44950000D01*
X127385000Y-44949398D01*
X127360466Y-44949398D01*
X127311635Y-44944588D01*
X127263510Y-44935016D01*
X127216555Y-44920772D01*
X127171222Y-44901995D01*
X127127949Y-44878864D01*
X127087150Y-44851604D01*
X127049221Y-44820476D01*
X127014524Y-44785779D01*
X126983396Y-44747850D01*
X126956136Y-44707051D01*
X126933005Y-44663778D01*
X126914228Y-44618445D01*
X126899984Y-44571490D01*
X126890412Y-44523365D01*
X126885602Y-44474534D01*
X126885602Y-44450000D01*
X126885000Y-44450000D01*
X126885000Y-43950000D01*
X128385000Y-43950000D01*
X128385000Y-44450000D01*
X128384398Y-44450000D01*
G37*
D22*
X81280000Y-19050000D03*
X81280000Y-29210000D03*
X207790000Y-121940000D03*
X217950000Y-121940000D03*
X205656400Y-83865400D03*
X215816400Y-83865400D03*
X198120000Y-30480000D03*
X187960000Y-30480000D03*
X198120000Y-43180000D03*
X198120000Y-33020000D03*
X200660000Y-38100000D03*
X210820000Y-38100000D03*
X211523800Y-86837200D03*
X208983800Y-86837200D03*
X206443800Y-86837200D03*
X203903800Y-86837200D03*
X201363800Y-86837200D03*
D21*
X198823800Y-86837200D03*
D22*
X29055060Y-16550640D03*
D38*
X27305000Y-19050000D03*
X35306000Y-19050000D03*
D22*
X33555940Y-16550640D03*
X26670000Y-22860000D03*
X34290000Y-30480000D03*
X29210000Y-22860000D03*
X31750000Y-30480000D03*
X31750000Y-22860000D03*
X29210000Y-30480000D03*
X34290000Y-22860000D03*
D21*
X26670000Y-30480000D03*
D17*
X96520000Y-119380000D03*
X111760000Y-127000000D03*
X99060000Y-119380000D03*
X109220000Y-127000000D03*
X101600000Y-119380000D03*
X106680000Y-127000000D03*
X104140000Y-119380000D03*
X104140000Y-127000000D03*
X106680000Y-119380000D03*
X101600000Y-127000000D03*
X109220000Y-119380000D03*
X99060000Y-127000000D03*
X111760000Y-119380000D03*
D18*
X96520000Y-127000000D03*
X83820000Y-111760000D03*
D17*
X55880000Y-127000000D03*
X81280000Y-111760000D03*
X58420000Y-127000000D03*
X78740000Y-111760000D03*
X60960000Y-127000000D03*
X76200000Y-111760000D03*
X63500000Y-127000000D03*
X73660000Y-111760000D03*
X66040000Y-127000000D03*
X71120000Y-111760000D03*
X68580000Y-127000000D03*
X68580000Y-111760000D03*
X71120000Y-127000000D03*
X66040000Y-111760000D03*
X73660000Y-127000000D03*
X63500000Y-111760000D03*
X76200000Y-127000000D03*
X60960000Y-111760000D03*
X78740000Y-127000000D03*
X58420000Y-111760000D03*
X81280000Y-127000000D03*
X55880000Y-111760000D03*
X83820000Y-127000000D03*
X53340000Y-111760000D03*
X50800000Y-111760000D03*
X48260000Y-111760000D03*
X45720000Y-111760000D03*
X45720000Y-127000000D03*
X48260000Y-127000000D03*
X50800000Y-127000000D03*
X53340000Y-127000000D03*
D18*
X96520000Y-46990000D03*
D17*
X76200000Y-54610000D03*
X93980000Y-46990000D03*
X78740000Y-54610000D03*
X91440000Y-46990000D03*
X81280000Y-54610000D03*
X88900000Y-46990000D03*
X83820000Y-54610000D03*
X86360000Y-46990000D03*
X86360000Y-54610000D03*
X83820000Y-46990000D03*
X88900000Y-54610000D03*
X81280000Y-46990000D03*
X91440000Y-54610000D03*
X78740000Y-46990000D03*
X93980000Y-54610000D03*
X76200000Y-46990000D03*
X96520000Y-54610000D03*
X96520000Y-64770000D03*
X76200000Y-57150000D03*
X93980000Y-64770000D03*
X78740000Y-57150000D03*
X91440000Y-64770000D03*
X81280000Y-57150000D03*
X88900000Y-64770000D03*
X83820000Y-57150000D03*
X86360000Y-64770000D03*
X86360000Y-57150000D03*
X83820000Y-64770000D03*
X88900000Y-57150000D03*
X81280000Y-64770000D03*
X91440000Y-57150000D03*
X78740000Y-64770000D03*
X93980000Y-57150000D03*
X76200000Y-64770000D03*
D18*
X96520000Y-57150000D03*
X96520000Y-36830000D03*
D17*
X76200000Y-44450000D03*
X93980000Y-36830000D03*
X78740000Y-44450000D03*
X91440000Y-36830000D03*
X81280000Y-44450000D03*
X88900000Y-36830000D03*
X83820000Y-44450000D03*
X86360000Y-36830000D03*
X86360000Y-44450000D03*
X83820000Y-36830000D03*
X88900000Y-44450000D03*
X81280000Y-36830000D03*
X91440000Y-44450000D03*
X78740000Y-36830000D03*
X93980000Y-44450000D03*
X76200000Y-36830000D03*
X96520000Y-44450000D03*
D39*
X53975000Y-19431000D03*
X53975000Y-21209000D03*
X53975000Y-22987000D03*
X53975000Y-24765000D03*
X53975000Y-26543000D03*
X53975000Y-28321000D03*
X53975000Y-30099000D03*
X53975000Y-31877000D03*
X53975000Y-33655000D03*
X53975000Y-35433000D03*
X53975000Y-37211000D03*
X53975000Y-38989000D03*
X53975000Y-40767000D03*
X53975000Y-42545000D03*
X53975000Y-44323000D03*
X53975000Y-46101000D03*
X53975000Y-47879000D03*
X53975000Y-49657000D03*
X53975000Y-51435000D03*
X53975000Y-53213000D03*
X53975000Y-54991000D03*
X53975000Y-56769000D03*
X53975000Y-58547000D03*
X53975000Y-60325000D03*
X53975000Y-62103000D03*
X53975000Y-63881000D03*
X53975000Y-65659000D03*
X53975000Y-67437000D03*
X53975000Y-69215000D03*
X53975000Y-70993000D03*
X53975000Y-72771000D03*
X53975000Y-74549000D03*
X73025000Y-19431000D03*
X73025000Y-21209000D03*
X73025000Y-22987000D03*
X73025000Y-24765000D03*
X73025000Y-26543000D03*
X73025000Y-28321000D03*
X73025000Y-30099000D03*
X73025000Y-31877000D03*
X73025000Y-33655000D03*
X73025000Y-35433000D03*
X73025000Y-37211000D03*
X73025000Y-38989000D03*
X73025000Y-40767000D03*
X73025000Y-42545000D03*
X73025000Y-44323000D03*
X73025000Y-46101000D03*
X73025000Y-47879000D03*
X73025000Y-49657000D03*
X73025000Y-51435000D03*
X73025000Y-53213000D03*
X73025000Y-54991000D03*
X73025000Y-56769000D03*
X73025000Y-58547000D03*
X73025000Y-60325000D03*
X73025000Y-62103000D03*
X73025000Y-63881000D03*
X73025000Y-65659000D03*
X73025000Y-67437000D03*
X73025000Y-69215000D03*
X73025000Y-70993000D03*
X73025000Y-72771000D03*
X73025000Y-74549000D03*
D17*
X180340000Y-111760000D03*
X187960000Y-88900000D03*
X180340000Y-109220000D03*
X187960000Y-91440000D03*
X180340000Y-106680000D03*
X187960000Y-93980000D03*
X180340000Y-104140000D03*
X187960000Y-96520000D03*
X180340000Y-101600000D03*
X187960000Y-99060000D03*
X180340000Y-99060000D03*
X187960000Y-101600000D03*
X180340000Y-96520000D03*
X187960000Y-104140000D03*
X180340000Y-93980000D03*
X187960000Y-106680000D03*
X180340000Y-91440000D03*
X187960000Y-109220000D03*
X180340000Y-88900000D03*
D18*
X187960000Y-111760000D03*
D17*
X170180000Y-63500000D03*
X154940000Y-111760000D03*
X170180000Y-66040000D03*
X154940000Y-109220000D03*
X170180000Y-68580000D03*
X154940000Y-106680000D03*
X170180000Y-71120000D03*
X154940000Y-104140000D03*
X170180000Y-73660000D03*
X154940000Y-101600000D03*
X170180000Y-76200000D03*
X154940000Y-99060000D03*
X170180000Y-78740000D03*
X154940000Y-96520000D03*
X170180000Y-81280000D03*
X154940000Y-93980000D03*
X170180000Y-83820000D03*
X154940000Y-91440000D03*
X170180000Y-86360000D03*
X154940000Y-88900000D03*
X170180000Y-88900000D03*
X154940000Y-86360000D03*
X170180000Y-91440000D03*
X154940000Y-83820000D03*
X170180000Y-93980000D03*
X154940000Y-81280000D03*
X170180000Y-96520000D03*
X154940000Y-78740000D03*
X170180000Y-99060000D03*
X154940000Y-76200000D03*
X170180000Y-101600000D03*
X154940000Y-73660000D03*
X170180000Y-104140000D03*
X154940000Y-71120000D03*
X170180000Y-106680000D03*
X154940000Y-68580000D03*
X170180000Y-109220000D03*
X154940000Y-66040000D03*
X170180000Y-111760000D03*
D18*
X154940000Y-63500000D03*
D22*
X109220000Y-50800000D03*
X116840000Y-43180000D03*
X109220000Y-48260000D03*
X116840000Y-45720000D03*
X109220000Y-45720000D03*
X116840000Y-48260000D03*
X109220000Y-43180000D03*
D21*
X116840000Y-50800000D03*
X132080000Y-50800000D03*
D22*
X124460000Y-43180000D03*
X132080000Y-48260000D03*
X124460000Y-45720000D03*
X132080000Y-45720000D03*
X124460000Y-48260000D03*
X132080000Y-43180000D03*
X124460000Y-50800000D03*
D21*
X200660000Y-43180000D03*
D22*
X208280000Y-50800000D03*
X200660000Y-45720000D03*
X208280000Y-48260000D03*
X200660000Y-48260000D03*
X208280000Y-45720000D03*
X200660000Y-50800000D03*
X208280000Y-43180000D03*
X77470000Y-26670000D03*
X77470000Y-21590000D03*
D17*
X53340000Y-147320000D03*
X50800000Y-147320000D03*
X48260000Y-147320000D03*
X45720000Y-147320000D03*
X45720000Y-132080000D03*
X48260000Y-132080000D03*
X50800000Y-132080000D03*
X53340000Y-132080000D03*
X83820000Y-147320000D03*
X55880000Y-132080000D03*
X81280000Y-147320000D03*
X58420000Y-132080000D03*
X78740000Y-147320000D03*
X60960000Y-132080000D03*
X76200000Y-147320000D03*
X63500000Y-132080000D03*
X73660000Y-147320000D03*
X66040000Y-132080000D03*
X71120000Y-147320000D03*
X68580000Y-132080000D03*
X68580000Y-147320000D03*
X71120000Y-132080000D03*
X66040000Y-147320000D03*
X73660000Y-132080000D03*
X63500000Y-147320000D03*
X76200000Y-132080000D03*
X60960000Y-147320000D03*
X78740000Y-132080000D03*
X58420000Y-147320000D03*
X81280000Y-132080000D03*
X55880000Y-147320000D03*
D18*
X83820000Y-132080000D03*
D21*
X93980000Y-34290000D03*
D26*
X91440000Y-34290000D03*
X88900000Y-34290000D03*
X86360000Y-34290000D03*
X83820000Y-34290000D03*
X81280000Y-34290000D03*
X78740000Y-34290000D03*
X76200000Y-34290000D03*
D22*
X190500000Y-86360000D03*
X190500000Y-83820000D03*
X190500000Y-81280000D03*
X190500000Y-78740000D03*
X190500000Y-76200000D03*
X190500000Y-73660000D03*
X190500000Y-71120000D03*
X190500000Y-68580000D03*
X190500000Y-66040000D03*
D21*
X190500000Y-63500000D03*
X40640000Y-26670000D03*
D22*
X40640000Y-24130000D03*
X46990000Y-17780000D03*
D21*
X46990000Y-20320000D03*
D22*
X130810000Y-34290000D03*
X140970000Y-34290000D03*
D40*
X45720000Y-62230000D03*
D41*
X40640000Y-62230000D03*
X43180000Y-62230000D03*
X43180000Y-67470000D03*
X40640000Y-67470000D03*
D40*
X45720000Y-67470000D03*
D41*
X43180000Y-57150000D03*
X40640000Y-57150000D03*
D40*
X45720000Y-57150000D03*
X45720000Y-52070000D03*
D41*
X40640000Y-52070000D03*
X43180000Y-52070000D03*
D21*
X36830000Y-152400000D03*
D22*
X36830000Y-149860000D03*
X45720000Y-157480000D03*
X45720000Y-152400000D03*
X96520000Y-132080000D03*
X99060000Y-132080000D03*
X101600000Y-132080000D03*
X104140000Y-132080000D03*
X106680000Y-132080000D03*
X109220000Y-132080000D03*
X111760000Y-132080000D03*
X114300000Y-132080000D03*
X116840000Y-132080000D03*
D21*
X119380000Y-132080000D03*
D17*
X154940000Y-20320000D03*
X147320000Y-35560000D03*
X154940000Y-22860000D03*
X147320000Y-33020000D03*
X154940000Y-25400000D03*
X147320000Y-30480000D03*
X154940000Y-27940000D03*
X147320000Y-27940000D03*
X154940000Y-30480000D03*
X147320000Y-25400000D03*
X154940000Y-33020000D03*
X147320000Y-22860000D03*
X154940000Y-35560000D03*
D18*
X147320000Y-20320000D03*
D22*
X101600000Y-160020000D03*
X106680000Y-160020000D03*
X91440000Y-147320000D03*
X91440000Y-142240000D03*
X119380000Y-135890000D03*
X119380000Y-140970000D03*
X119380000Y-144780000D03*
X119380000Y-149860000D03*
D20*
X127000000Y-139700000D03*
X124460000Y-139700000D03*
X124460000Y-142240000D03*
X127000000Y-142240000D03*
X127000000Y-149860000D03*
X124460000Y-149860000D03*
X127000000Y-147320000D03*
X124460000Y-147320000D03*
X127000000Y-144780000D03*
X124460000Y-144780000D03*
D42*
X40640000Y-38260000D03*
D43*
X40640000Y-35720000D03*
X45720000Y-45880000D03*
D42*
X45720000Y-48420000D03*
X43180000Y-48420000D03*
D43*
X43180000Y-45880000D03*
X40640000Y-45880000D03*
D42*
X40640000Y-48420000D03*
X45720000Y-38260000D03*
D43*
X45720000Y-35720000D03*
D42*
X45720000Y-43340000D03*
D43*
X45720000Y-40800000D03*
X43180000Y-40800000D03*
D42*
X43180000Y-43340000D03*
X43180000Y-38260000D03*
D43*
X43180000Y-35720000D03*
X40640000Y-40800000D03*
D42*
X40640000Y-43340000D03*
X45720000Y-33180000D03*
D43*
X45720000Y-30640000D03*
X43180000Y-30640000D03*
D42*
X43180000Y-33180000D03*
X40640000Y-33180000D03*
D43*
X40640000Y-30640000D03*
D21*
X189230000Y-59690000D03*
D22*
X189230000Y-57150000D03*
X185420000Y-60960000D03*
X180340000Y-60960000D03*
D21*
X176530000Y-62230000D03*
D22*
X176530000Y-59690000D03*
D44*
X180340000Y-63500000D03*
X182880000Y-63500000D03*
D45*
X185420000Y-63500000D03*
D19*
X182880000Y-80160000D03*
D21*
X198120000Y-26670000D03*
D26*
X200660000Y-26670000D03*
X203200000Y-26670000D03*
X205740000Y-26670000D03*
X208280000Y-26670000D03*
D22*
X160020000Y-114300000D03*
X154940000Y-114300000D03*
X172720000Y-86360000D03*
X172720000Y-83820000D03*
X172720000Y-81280000D03*
X172720000Y-78740000D03*
X172720000Y-76200000D03*
X172720000Y-73660000D03*
X172720000Y-71120000D03*
X172720000Y-68580000D03*
X172720000Y-66040000D03*
D21*
X172720000Y-63500000D03*
D22*
X48260000Y-30480000D03*
X48260000Y-40640000D03*
D46*
X88900000Y-104775000D03*
X86360000Y-104775000D03*
X83820000Y-104775000D03*
X81280000Y-104775000D03*
X78740000Y-104775000D03*
X76200000Y-104775000D03*
X73660000Y-104775000D03*
X71120000Y-104775000D03*
X68580000Y-104775000D03*
X66040000Y-104775000D03*
X63500000Y-104775000D03*
X60960000Y-104775000D03*
X58420000Y-104775000D03*
X55880000Y-104775000D03*
X53340000Y-104775000D03*
X50800000Y-104775000D03*
X48260000Y-104775000D03*
X45720000Y-104775000D03*
X43180000Y-104775000D03*
D47*
X40640000Y-104775000D03*
X40640000Y-82550000D03*
D46*
X43180000Y-82550000D03*
X45720000Y-82550000D03*
X48260000Y-82550000D03*
X50800000Y-82550000D03*
X53340000Y-82550000D03*
X55880000Y-82550000D03*
X58420000Y-82550000D03*
X60960000Y-82550000D03*
X63500000Y-82550000D03*
X66040000Y-82550000D03*
X68580000Y-82550000D03*
X71120000Y-82550000D03*
X73660000Y-82550000D03*
X76200000Y-82550000D03*
X78740000Y-82550000D03*
X81280000Y-82550000D03*
X83820000Y-82550000D03*
X86360000Y-82550000D03*
X88900000Y-82550000D03*
D20*
X88900000Y-147320000D03*
X88900000Y-144780000D03*
X88900000Y-142240000D03*
X88900000Y-139700000D03*
X88900000Y-137160000D03*
X50800000Y-35560000D03*
X50800000Y-27940000D03*
X176530000Y-73660000D03*
X176530000Y-76200000D03*
X50800000Y-62230000D03*
X193040000Y-83820000D03*
X193040000Y-81280000D03*
X35560000Y-132080000D03*
D17*
X114300000Y-139700000D03*
X114300000Y-142240000D03*
X114300000Y-144780000D03*
X114300000Y-147320000D03*
X114300000Y-149860000D03*
X114300000Y-152400000D03*
X111760000Y-137160000D03*
X111760000Y-142240000D03*
X111760000Y-144780000D03*
X111760000Y-147320000D03*
X111760000Y-149860000D03*
X111760000Y-154940000D03*
X109220000Y-154940000D03*
X106680000Y-154940000D03*
X104140000Y-154940000D03*
X101600000Y-154940000D03*
X99060000Y-154940000D03*
X111760000Y-152400000D03*
X109220000Y-152400000D03*
X106680000Y-152400000D03*
X104140000Y-152400000D03*
X101600000Y-152400000D03*
X99060000Y-152400000D03*
X96520000Y-152400000D03*
X96520000Y-149860000D03*
X96520000Y-147320000D03*
X96520000Y-144780000D03*
X96520000Y-142240000D03*
X96520000Y-139700000D03*
X99060000Y-149860000D03*
X99060000Y-147320000D03*
X99060000Y-144780000D03*
X99060000Y-142240000D03*
X99060000Y-139700000D03*
X111760000Y-137160000D03*
X109220000Y-137160000D03*
X106680000Y-137160000D03*
X99060000Y-137160000D03*
X101600000Y-137160000D03*
X104140000Y-137160000D03*
X114300000Y-139700000D03*
X111760000Y-139700000D03*
X109220000Y-139700000D03*
X101600000Y-139700000D03*
X104140000Y-139700000D03*
X106680000Y-139700000D03*
D46*
X78740000Y-153670000D03*
X78740000Y-151130000D03*
X81280000Y-153670000D03*
X81280000Y-151130000D03*
X83820000Y-153670000D03*
D47*
X83820000Y-151130000D03*
D46*
X170180000Y-36830000D03*
X167640000Y-36830000D03*
X165100000Y-36830000D03*
X162560000Y-36830000D03*
D47*
X160020000Y-36830000D03*
D22*
X35560000Y-63500000D03*
X35560000Y-53340000D03*
M02*
