M48
; DRILL file {KiCad 5.1.9} date Tue Apr 27 01:06:16 2021
; FORMAT={-:-/ absolute / metric / decimal}
; #@! TF.CreationDate,2021-04-27T01:06:16+02:00
; #@! TF.GenerationSoftware,Kicad,Pcbnew,5.1.9
; #@! TF.FileFunction,NonPlated,1,2,NPTH
FMAT,2
METRIC
T1C0.650
T2C1.000
T3C3.000
T4C3.200
T5C5.000
%
G90
G05
T1
X195.23Y-21.49
X201.01Y-21.49
X208.44Y-21.49
X214.22Y-21.49
T2
X217.5Y-32.0
X222.5Y-27.0
X222.5Y-37.0
X225.0Y-27.0
X225.0Y-37.0
T4
X21.0Y-20.0
X36.83Y-158.115
X110.439Y-69.24
X205.0Y-158.0
X221.0Y-20.0
T5
X109.22Y-91.44
X109.22Y-101.6
X119.38Y-91.44
X119.38Y-101.6
T3
X90.5Y-23.72G85X90.5Y-22.72
G05
X143.5Y-23.72G85X143.5Y-22.72
G05
T0
M30
