%FSLAX45Y45*%
G04 Gerber Fmt 4.5, Leading zero omitted, Abs format (unit mm)*
G04 Created by KiCad (PCBNEW 5.1.9) date 2021-04-27 01:06:39*
%MOMM*%
%LPD*%
G01*
G04 APERTURE LIST*
%TA.AperFunction,Profile*%
%ADD10C,0.150000*%
%TD*%
%ADD11C,0.200000*%
%ADD12C,0.300000*%
G04 APERTURE END LIST*
D10*
X1600000Y-16300000D02*
X1600000Y-1500000D01*
X22600000Y-16300000D02*
X1600000Y-16300000D01*
X22600000Y-1500000D02*
X22600000Y-16300000D01*
X1600000Y-1500000D02*
X22600000Y-1500000D01*
D11*
X19490500Y-2116500D02*
X19555500Y-2181500D01*
X19555500Y-2116500D02*
X19490500Y-2181500D01*
X20068500Y-2116500D02*
X20133500Y-2181500D01*
X20133500Y-2116500D02*
X20068500Y-2181500D01*
X20811500Y-2116500D02*
X20876500Y-2181500D01*
X20876500Y-2116500D02*
X20811500Y-2181500D01*
X21389500Y-2116500D02*
X21454500Y-2181500D01*
X21454500Y-2116500D02*
X21389500Y-2181500D01*
X21800000Y-3200000D02*
G75*
G03*
X21800000Y-3200000I-50000J0D01*
G01*
X22300000Y-2700000D02*
G75*
G03*
X22300000Y-2700000I-50000J0D01*
G01*
X22300000Y-3700000D02*
G75*
G03*
X22300000Y-3700000I-50000J0D01*
G01*
X22550000Y-2700000D02*
G75*
G03*
X22550000Y-2700000I-50000J0D01*
G01*
X22550000Y-3700000D02*
G75*
G03*
X22550000Y-3700000I-50000J0D01*
G01*
X9050018Y-2171966D02*
X9050018Y-2471966D01*
X8900018Y-2321966D02*
X9200018Y-2321966D01*
X9190018Y-2371966D02*
X9190018Y-2271966D01*
X8910018Y-2371966D02*
X8910018Y-2271966D01*
X9190018Y-2271966D02*
G75*
G03*
X8910018Y-2271966I-140000J0D01*
G01*
X8910018Y-2371966D02*
G75*
G03*
X9190018Y-2371966I140000J0D01*
G01*
X14349982Y-2171966D02*
X14349982Y-2471966D01*
X14199982Y-2321966D02*
X14499982Y-2321966D01*
X14489982Y-2371966D02*
X14489982Y-2271966D01*
X14209982Y-2371966D02*
X14209982Y-2271966D01*
X14489982Y-2271966D02*
G75*
G03*
X14209982Y-2271966I-140000J0D01*
G01*
X14209982Y-2371966D02*
G75*
G03*
X14489982Y-2371966I140000J0D01*
G01*
X2213138Y-2113138D02*
X2213138Y-1886862D01*
X1986862Y-1886862D01*
X1986862Y-2113138D01*
X2213138Y-2113138D01*
X3796138Y-15924638D02*
X3796138Y-15698362D01*
X3569862Y-15698362D01*
X3569862Y-15924638D01*
X3796138Y-15924638D01*
X11157058Y-7037178D02*
X11157058Y-6810902D01*
X10930782Y-6810902D01*
X10930782Y-7037178D01*
X11157058Y-7037178D01*
X20613138Y-15913138D02*
X20613138Y-15686862D01*
X20386862Y-15686862D01*
X20386862Y-15913138D01*
X20613138Y-15913138D01*
X22213138Y-2113138D02*
X22213138Y-1886862D01*
X21986862Y-1886862D01*
X21986862Y-2113138D01*
X22213138Y-2113138D01*
X10922000Y-9394000D02*
X11172000Y-9144000D01*
X10922000Y-8894000D01*
X10672000Y-9144000D01*
X10922000Y-9394000D01*
X10922000Y-10410000D02*
X11172000Y-10160000D01*
X10922000Y-9910000D01*
X10672000Y-10160000D01*
X10922000Y-10410000D01*
X11938000Y-9394000D02*
X12188000Y-9144000D01*
X11938000Y-8894000D01*
X11688000Y-9144000D01*
X11938000Y-9394000D01*
X11938000Y-10410000D02*
X12188000Y-10160000D01*
X11938000Y-9910000D01*
X11688000Y-10160000D01*
X11938000Y-10410000D01*
D12*
X1878928Y-16773214D02*
X1878928Y-16473214D01*
X1950357Y-16473214D01*
X1993214Y-16487500D01*
X2021786Y-16516071D01*
X2036071Y-16544643D01*
X2050357Y-16601786D01*
X2050357Y-16644643D01*
X2036071Y-16701786D01*
X2021786Y-16730357D01*
X1993214Y-16758929D01*
X1950357Y-16773214D01*
X1878928Y-16773214D01*
X2178928Y-16773214D02*
X2178928Y-16573214D01*
X2178928Y-16630357D02*
X2193214Y-16601786D01*
X2207500Y-16587500D01*
X2236071Y-16573214D01*
X2264643Y-16573214D01*
X2364643Y-16773214D02*
X2364643Y-16573214D01*
X2364643Y-16473214D02*
X2350357Y-16487500D01*
X2364643Y-16501786D01*
X2378928Y-16487500D01*
X2364643Y-16473214D01*
X2364643Y-16501786D01*
X2550357Y-16773214D02*
X2521786Y-16758929D01*
X2507500Y-16730357D01*
X2507500Y-16473214D01*
X2707500Y-16773214D02*
X2678928Y-16758929D01*
X2664643Y-16730357D01*
X2664643Y-16473214D01*
X3050357Y-16773214D02*
X3050357Y-16473214D01*
X3150357Y-16687500D01*
X3250357Y-16473214D01*
X3250357Y-16773214D01*
X3521786Y-16773214D02*
X3521786Y-16616071D01*
X3507500Y-16587500D01*
X3478928Y-16573214D01*
X3421786Y-16573214D01*
X3393214Y-16587500D01*
X3521786Y-16758929D02*
X3493214Y-16773214D01*
X3421786Y-16773214D01*
X3393214Y-16758929D01*
X3378928Y-16730357D01*
X3378928Y-16701786D01*
X3393214Y-16673214D01*
X3421786Y-16658929D01*
X3493214Y-16658929D01*
X3521786Y-16644643D01*
X3664643Y-16573214D02*
X3664643Y-16873214D01*
X3664643Y-16587500D02*
X3693214Y-16573214D01*
X3750357Y-16573214D01*
X3778928Y-16587500D01*
X3793214Y-16601786D01*
X3807500Y-16630357D01*
X3807500Y-16716071D01*
X3793214Y-16744643D01*
X3778928Y-16758929D01*
X3750357Y-16773214D01*
X3693214Y-16773214D01*
X3664643Y-16758929D01*
X3936071Y-16744643D02*
X3950357Y-16758929D01*
X3936071Y-16773214D01*
X3921786Y-16758929D01*
X3936071Y-16744643D01*
X3936071Y-16773214D01*
X3936071Y-16587500D02*
X3950357Y-16601786D01*
X3936071Y-16616071D01*
X3921786Y-16601786D01*
X3936071Y-16587500D01*
X3936071Y-16616071D01*
X1527500Y-17235000D02*
X1592500Y-17300000D01*
X1592500Y-17235000D02*
X1527500Y-17300000D01*
X1936071Y-17103214D02*
X1964643Y-17103214D01*
X1993214Y-17117500D01*
X2007500Y-17131786D01*
X2021786Y-17160357D01*
X2036071Y-17217500D01*
X2036071Y-17288929D01*
X2021786Y-17346072D01*
X2007500Y-17374643D01*
X1993214Y-17388929D01*
X1964643Y-17403214D01*
X1936071Y-17403214D01*
X1907500Y-17388929D01*
X1893214Y-17374643D01*
X1878928Y-17346072D01*
X1864643Y-17288929D01*
X1864643Y-17217500D01*
X1878928Y-17160357D01*
X1893214Y-17131786D01*
X1907500Y-17117500D01*
X1936071Y-17103214D01*
X2164643Y-17374643D02*
X2178928Y-17388929D01*
X2164643Y-17403214D01*
X2150357Y-17388929D01*
X2164643Y-17374643D01*
X2164643Y-17403214D01*
X2436071Y-17103214D02*
X2378928Y-17103214D01*
X2350357Y-17117500D01*
X2336071Y-17131786D01*
X2307500Y-17174643D01*
X2293214Y-17231786D01*
X2293214Y-17346072D01*
X2307500Y-17374643D01*
X2321786Y-17388929D01*
X2350357Y-17403214D01*
X2407500Y-17403214D01*
X2436071Y-17388929D01*
X2450357Y-17374643D01*
X2464643Y-17346072D01*
X2464643Y-17274643D01*
X2450357Y-17246072D01*
X2436071Y-17231786D01*
X2407500Y-17217500D01*
X2350357Y-17217500D01*
X2321786Y-17231786D01*
X2307500Y-17246072D01*
X2293214Y-17274643D01*
X2736071Y-17103214D02*
X2593214Y-17103214D01*
X2578928Y-17246072D01*
X2593214Y-17231786D01*
X2621786Y-17217500D01*
X2693214Y-17217500D01*
X2721786Y-17231786D01*
X2736071Y-17246072D01*
X2750357Y-17274643D01*
X2750357Y-17346072D01*
X2736071Y-17374643D01*
X2721786Y-17388929D01*
X2693214Y-17403214D01*
X2621786Y-17403214D01*
X2593214Y-17388929D01*
X2578928Y-17374643D01*
X2878928Y-17403214D02*
X2878928Y-17203214D01*
X2878928Y-17231786D02*
X2893214Y-17217500D01*
X2921786Y-17203214D01*
X2964643Y-17203214D01*
X2993214Y-17217500D01*
X3007500Y-17246072D01*
X3007500Y-17403214D01*
X3007500Y-17246072D02*
X3021786Y-17217500D01*
X3050357Y-17203214D01*
X3093214Y-17203214D01*
X3121786Y-17217500D01*
X3136071Y-17246072D01*
X3136071Y-17403214D01*
X3278928Y-17403214D02*
X3278928Y-17203214D01*
X3278928Y-17231786D02*
X3293214Y-17217500D01*
X3321786Y-17203214D01*
X3364643Y-17203214D01*
X3393214Y-17217500D01*
X3407500Y-17246072D01*
X3407500Y-17403214D01*
X3407500Y-17246072D02*
X3421786Y-17217500D01*
X3450357Y-17203214D01*
X3493214Y-17203214D01*
X3521786Y-17217500D01*
X3536071Y-17246072D01*
X3536071Y-17403214D01*
X4121786Y-17088929D02*
X3864643Y-17474643D01*
X4507500Y-17103214D02*
X4536071Y-17103214D01*
X4564643Y-17117500D01*
X4578928Y-17131786D01*
X4593214Y-17160357D01*
X4607500Y-17217500D01*
X4607500Y-17288929D01*
X4593214Y-17346072D01*
X4578928Y-17374643D01*
X4564643Y-17388929D01*
X4536071Y-17403214D01*
X4507500Y-17403214D01*
X4478928Y-17388929D01*
X4464643Y-17374643D01*
X4450357Y-17346072D01*
X4436071Y-17288929D01*
X4436071Y-17217500D01*
X4450357Y-17160357D01*
X4464643Y-17131786D01*
X4478928Y-17117500D01*
X4507500Y-17103214D01*
X4736071Y-17374643D02*
X4750357Y-17388929D01*
X4736071Y-17403214D01*
X4721786Y-17388929D01*
X4736071Y-17374643D01*
X4736071Y-17403214D01*
X4936071Y-17103214D02*
X4964643Y-17103214D01*
X4993214Y-17117500D01*
X5007500Y-17131786D01*
X5021786Y-17160357D01*
X5036071Y-17217500D01*
X5036071Y-17288929D01*
X5021786Y-17346072D01*
X5007500Y-17374643D01*
X4993214Y-17388929D01*
X4964643Y-17403214D01*
X4936071Y-17403214D01*
X4907500Y-17388929D01*
X4893214Y-17374643D01*
X4878928Y-17346072D01*
X4864643Y-17288929D01*
X4864643Y-17217500D01*
X4878928Y-17160357D01*
X4893214Y-17131786D01*
X4907500Y-17117500D01*
X4936071Y-17103214D01*
X5150357Y-17131786D02*
X5164643Y-17117500D01*
X5193214Y-17103214D01*
X5264643Y-17103214D01*
X5293214Y-17117500D01*
X5307500Y-17131786D01*
X5321786Y-17160357D01*
X5321786Y-17188929D01*
X5307500Y-17231786D01*
X5136071Y-17403214D01*
X5321786Y-17403214D01*
X5578928Y-17103214D02*
X5521786Y-17103214D01*
X5493214Y-17117500D01*
X5478928Y-17131786D01*
X5450357Y-17174643D01*
X5436071Y-17231786D01*
X5436071Y-17346072D01*
X5450357Y-17374643D01*
X5464643Y-17388929D01*
X5493214Y-17403214D01*
X5550357Y-17403214D01*
X5578928Y-17388929D01*
X5593214Y-17374643D01*
X5607500Y-17346072D01*
X5607500Y-17274643D01*
X5593214Y-17246072D01*
X5578928Y-17231786D01*
X5550357Y-17217500D01*
X5493214Y-17217500D01*
X5464643Y-17231786D01*
X5450357Y-17246072D01*
X5436071Y-17274643D01*
X5721786Y-17103214D02*
X5721786Y-17160357D01*
X5836071Y-17103214D02*
X5836071Y-17160357D01*
X6278928Y-17517500D02*
X6264643Y-17503214D01*
X6236071Y-17460357D01*
X6221786Y-17431786D01*
X6207500Y-17388929D01*
X6193214Y-17317500D01*
X6193214Y-17260357D01*
X6207500Y-17188929D01*
X6221786Y-17146072D01*
X6236071Y-17117500D01*
X6264643Y-17074643D01*
X6278928Y-17060357D01*
X6521786Y-17203214D02*
X6521786Y-17403214D01*
X6450357Y-17088929D02*
X6378928Y-17303214D01*
X6564643Y-17303214D01*
X6907500Y-17403214D02*
X6907500Y-17103214D01*
X7036071Y-17403214D02*
X7036071Y-17246072D01*
X7021786Y-17217500D01*
X6993214Y-17203214D01*
X6950357Y-17203214D01*
X6921786Y-17217500D01*
X6907500Y-17231786D01*
X7221786Y-17403214D02*
X7193214Y-17388929D01*
X7178928Y-17374643D01*
X7164643Y-17346072D01*
X7164643Y-17260357D01*
X7178928Y-17231786D01*
X7193214Y-17217500D01*
X7221786Y-17203214D01*
X7264643Y-17203214D01*
X7293214Y-17217500D01*
X7307500Y-17231786D01*
X7321786Y-17260357D01*
X7321786Y-17346072D01*
X7307500Y-17374643D01*
X7293214Y-17388929D01*
X7264643Y-17403214D01*
X7221786Y-17403214D01*
X7493214Y-17403214D02*
X7464643Y-17388929D01*
X7450357Y-17360357D01*
X7450357Y-17103214D01*
X7721786Y-17388929D02*
X7693214Y-17403214D01*
X7636071Y-17403214D01*
X7607500Y-17388929D01*
X7593214Y-17360357D01*
X7593214Y-17246072D01*
X7607500Y-17217500D01*
X7636071Y-17203214D01*
X7693214Y-17203214D01*
X7721786Y-17217500D01*
X7736071Y-17246072D01*
X7736071Y-17274643D01*
X7593214Y-17303214D01*
X7850357Y-17388929D02*
X7878928Y-17403214D01*
X7936071Y-17403214D01*
X7964643Y-17388929D01*
X7978928Y-17360357D01*
X7978928Y-17346072D01*
X7964643Y-17317500D01*
X7936071Y-17303214D01*
X7893214Y-17303214D01*
X7864643Y-17288929D01*
X7850357Y-17260357D01*
X7850357Y-17246072D01*
X7864643Y-17217500D01*
X7893214Y-17203214D01*
X7936071Y-17203214D01*
X7964643Y-17217500D01*
X8078928Y-17517500D02*
X8093214Y-17503214D01*
X8121786Y-17460357D01*
X8136071Y-17431786D01*
X8150357Y-17388929D01*
X8164643Y-17317500D01*
X8164643Y-17260357D01*
X8150357Y-17188929D01*
X8136071Y-17146072D01*
X8121786Y-17117500D01*
X8093214Y-17074643D01*
X8078928Y-17060357D01*
X8621786Y-17517500D02*
X8607500Y-17503214D01*
X8578928Y-17460357D01*
X8564643Y-17431786D01*
X8550357Y-17388929D01*
X8536071Y-17317500D01*
X8536071Y-17260357D01*
X8550357Y-17188929D01*
X8564643Y-17146072D01*
X8578928Y-17117500D01*
X8607500Y-17074643D01*
X8621786Y-17060357D01*
X8736071Y-17203214D02*
X8736071Y-17403214D01*
X8736071Y-17231786D02*
X8750357Y-17217500D01*
X8778928Y-17203214D01*
X8821786Y-17203214D01*
X8850357Y-17217500D01*
X8864643Y-17246072D01*
X8864643Y-17403214D01*
X9050357Y-17403214D02*
X9021786Y-17388929D01*
X9007500Y-17374643D01*
X8993214Y-17346072D01*
X8993214Y-17260357D01*
X9007500Y-17231786D01*
X9021786Y-17217500D01*
X9050357Y-17203214D01*
X9093214Y-17203214D01*
X9121786Y-17217500D01*
X9136071Y-17231786D01*
X9150357Y-17260357D01*
X9150357Y-17346072D01*
X9136071Y-17374643D01*
X9121786Y-17388929D01*
X9093214Y-17403214D01*
X9050357Y-17403214D01*
X9236071Y-17203214D02*
X9350357Y-17203214D01*
X9278928Y-17103214D02*
X9278928Y-17360357D01*
X9293214Y-17388929D01*
X9321786Y-17403214D01*
X9350357Y-17403214D01*
X9678928Y-17203214D02*
X9678928Y-17503214D01*
X9678928Y-17217500D02*
X9707500Y-17203214D01*
X9764643Y-17203214D01*
X9793214Y-17217500D01*
X9807500Y-17231786D01*
X9821786Y-17260357D01*
X9821786Y-17346072D01*
X9807500Y-17374643D01*
X9793214Y-17388929D01*
X9764643Y-17403214D01*
X9707500Y-17403214D01*
X9678928Y-17388929D01*
X9993214Y-17403214D02*
X9964643Y-17388929D01*
X9950357Y-17360357D01*
X9950357Y-17103214D01*
X10236071Y-17403214D02*
X10236071Y-17246072D01*
X10221786Y-17217500D01*
X10193214Y-17203214D01*
X10136071Y-17203214D01*
X10107500Y-17217500D01*
X10236071Y-17388929D02*
X10207500Y-17403214D01*
X10136071Y-17403214D01*
X10107500Y-17388929D01*
X10093214Y-17360357D01*
X10093214Y-17331786D01*
X10107500Y-17303214D01*
X10136071Y-17288929D01*
X10207500Y-17288929D01*
X10236071Y-17274643D01*
X10336071Y-17203214D02*
X10450357Y-17203214D01*
X10378928Y-17103214D02*
X10378928Y-17360357D01*
X10393214Y-17388929D01*
X10421786Y-17403214D01*
X10450357Y-17403214D01*
X10664643Y-17388929D02*
X10636071Y-17403214D01*
X10578928Y-17403214D01*
X10550357Y-17388929D01*
X10536071Y-17360357D01*
X10536071Y-17246072D01*
X10550357Y-17217500D01*
X10578928Y-17203214D01*
X10636071Y-17203214D01*
X10664643Y-17217500D01*
X10678928Y-17246072D01*
X10678928Y-17274643D01*
X10536071Y-17303214D01*
X10936071Y-17403214D02*
X10936071Y-17103214D01*
X10936071Y-17388929D02*
X10907500Y-17403214D01*
X10850357Y-17403214D01*
X10821786Y-17388929D01*
X10807500Y-17374643D01*
X10793214Y-17346072D01*
X10793214Y-17260357D01*
X10807500Y-17231786D01*
X10821786Y-17217500D01*
X10850357Y-17203214D01*
X10907500Y-17203214D01*
X10936071Y-17217500D01*
X11050357Y-17517500D02*
X11064643Y-17503214D01*
X11093214Y-17460357D01*
X11107500Y-17431786D01*
X11121786Y-17388929D01*
X11136071Y-17317500D01*
X11136071Y-17260357D01*
X11121786Y-17188929D01*
X11107500Y-17146072D01*
X11093214Y-17117500D01*
X11064643Y-17074643D01*
X11050357Y-17060357D01*
X1592500Y-17663500D02*
G75*
G03*
X1592500Y-17663500I-50000J0D01*
G01*
X2036071Y-17799214D02*
X1864643Y-17799214D01*
X1950357Y-17799214D02*
X1950357Y-17499214D01*
X1921786Y-17542072D01*
X1893214Y-17570643D01*
X1864643Y-17584929D01*
X2164643Y-17770643D02*
X2178928Y-17784929D01*
X2164643Y-17799214D01*
X2150357Y-17784929D01*
X2164643Y-17770643D01*
X2164643Y-17799214D01*
X2364643Y-17499214D02*
X2393214Y-17499214D01*
X2421786Y-17513500D01*
X2436071Y-17527786D01*
X2450357Y-17556357D01*
X2464643Y-17613500D01*
X2464643Y-17684929D01*
X2450357Y-17742072D01*
X2436071Y-17770643D01*
X2421786Y-17784929D01*
X2393214Y-17799214D01*
X2364643Y-17799214D01*
X2336071Y-17784929D01*
X2321786Y-17770643D01*
X2307500Y-17742072D01*
X2293214Y-17684929D01*
X2293214Y-17613500D01*
X2307500Y-17556357D01*
X2321786Y-17527786D01*
X2336071Y-17513500D01*
X2364643Y-17499214D01*
X2650357Y-17499214D02*
X2678928Y-17499214D01*
X2707500Y-17513500D01*
X2721786Y-17527786D01*
X2736071Y-17556357D01*
X2750357Y-17613500D01*
X2750357Y-17684929D01*
X2736071Y-17742072D01*
X2721786Y-17770643D01*
X2707500Y-17784929D01*
X2678928Y-17799214D01*
X2650357Y-17799214D01*
X2621786Y-17784929D01*
X2607500Y-17770643D01*
X2593214Y-17742072D01*
X2578928Y-17684929D01*
X2578928Y-17613500D01*
X2593214Y-17556357D01*
X2607500Y-17527786D01*
X2621786Y-17513500D01*
X2650357Y-17499214D01*
X2878928Y-17799214D02*
X2878928Y-17599214D01*
X2878928Y-17627786D02*
X2893214Y-17613500D01*
X2921786Y-17599214D01*
X2964643Y-17599214D01*
X2993214Y-17613500D01*
X3007500Y-17642072D01*
X3007500Y-17799214D01*
X3007500Y-17642072D02*
X3021786Y-17613500D01*
X3050357Y-17599214D01*
X3093214Y-17599214D01*
X3121786Y-17613500D01*
X3136071Y-17642072D01*
X3136071Y-17799214D01*
X3278928Y-17799214D02*
X3278928Y-17599214D01*
X3278928Y-17627786D02*
X3293214Y-17613500D01*
X3321786Y-17599214D01*
X3364643Y-17599214D01*
X3393214Y-17613500D01*
X3407500Y-17642072D01*
X3407500Y-17799214D01*
X3407500Y-17642072D02*
X3421786Y-17613500D01*
X3450357Y-17599214D01*
X3493214Y-17599214D01*
X3521786Y-17613500D01*
X3536071Y-17642072D01*
X3536071Y-17799214D01*
X4121786Y-17484929D02*
X3864643Y-17870643D01*
X4507500Y-17499214D02*
X4536071Y-17499214D01*
X4564643Y-17513500D01*
X4578928Y-17527786D01*
X4593214Y-17556357D01*
X4607500Y-17613500D01*
X4607500Y-17684929D01*
X4593214Y-17742072D01*
X4578928Y-17770643D01*
X4564643Y-17784929D01*
X4536071Y-17799214D01*
X4507500Y-17799214D01*
X4478928Y-17784929D01*
X4464643Y-17770643D01*
X4450357Y-17742072D01*
X4436071Y-17684929D01*
X4436071Y-17613500D01*
X4450357Y-17556357D01*
X4464643Y-17527786D01*
X4478928Y-17513500D01*
X4507500Y-17499214D01*
X4736071Y-17770643D02*
X4750357Y-17784929D01*
X4736071Y-17799214D01*
X4721786Y-17784929D01*
X4736071Y-17770643D01*
X4736071Y-17799214D01*
X4936071Y-17499214D02*
X4964643Y-17499214D01*
X4993214Y-17513500D01*
X5007500Y-17527786D01*
X5021786Y-17556357D01*
X5036071Y-17613500D01*
X5036071Y-17684929D01*
X5021786Y-17742072D01*
X5007500Y-17770643D01*
X4993214Y-17784929D01*
X4964643Y-17799214D01*
X4936071Y-17799214D01*
X4907500Y-17784929D01*
X4893214Y-17770643D01*
X4878928Y-17742072D01*
X4864643Y-17684929D01*
X4864643Y-17613500D01*
X4878928Y-17556357D01*
X4893214Y-17527786D01*
X4907500Y-17513500D01*
X4936071Y-17499214D01*
X5136071Y-17499214D02*
X5321786Y-17499214D01*
X5221786Y-17613500D01*
X5264643Y-17613500D01*
X5293214Y-17627786D01*
X5307500Y-17642072D01*
X5321786Y-17670643D01*
X5321786Y-17742072D01*
X5307500Y-17770643D01*
X5293214Y-17784929D01*
X5264643Y-17799214D01*
X5178928Y-17799214D01*
X5150357Y-17784929D01*
X5136071Y-17770643D01*
X5464643Y-17799214D02*
X5521786Y-17799214D01*
X5550357Y-17784929D01*
X5564643Y-17770643D01*
X5593214Y-17727786D01*
X5607500Y-17670643D01*
X5607500Y-17556357D01*
X5593214Y-17527786D01*
X5578928Y-17513500D01*
X5550357Y-17499214D01*
X5493214Y-17499214D01*
X5464643Y-17513500D01*
X5450357Y-17527786D01*
X5436071Y-17556357D01*
X5436071Y-17627786D01*
X5450357Y-17656357D01*
X5464643Y-17670643D01*
X5493214Y-17684929D01*
X5550357Y-17684929D01*
X5578928Y-17670643D01*
X5593214Y-17656357D01*
X5607500Y-17627786D01*
X5721786Y-17499214D02*
X5721786Y-17556357D01*
X5836071Y-17499214D02*
X5836071Y-17556357D01*
X6278928Y-17913500D02*
X6264643Y-17899214D01*
X6236071Y-17856357D01*
X6221786Y-17827786D01*
X6207500Y-17784929D01*
X6193214Y-17713500D01*
X6193214Y-17656357D01*
X6207500Y-17584929D01*
X6221786Y-17542072D01*
X6236071Y-17513500D01*
X6264643Y-17470643D01*
X6278928Y-17456357D01*
X6536071Y-17499214D02*
X6393214Y-17499214D01*
X6378928Y-17642072D01*
X6393214Y-17627786D01*
X6421786Y-17613500D01*
X6493214Y-17613500D01*
X6521786Y-17627786D01*
X6536071Y-17642072D01*
X6550357Y-17670643D01*
X6550357Y-17742072D01*
X6536071Y-17770643D01*
X6521786Y-17784929D01*
X6493214Y-17799214D01*
X6421786Y-17799214D01*
X6393214Y-17784929D01*
X6378928Y-17770643D01*
X6907500Y-17799214D02*
X6907500Y-17499214D01*
X7036071Y-17799214D02*
X7036071Y-17642072D01*
X7021786Y-17613500D01*
X6993214Y-17599214D01*
X6950357Y-17599214D01*
X6921786Y-17613500D01*
X6907500Y-17627786D01*
X7221786Y-17799214D02*
X7193214Y-17784929D01*
X7178928Y-17770643D01*
X7164643Y-17742072D01*
X7164643Y-17656357D01*
X7178928Y-17627786D01*
X7193214Y-17613500D01*
X7221786Y-17599214D01*
X7264643Y-17599214D01*
X7293214Y-17613500D01*
X7307500Y-17627786D01*
X7321786Y-17656357D01*
X7321786Y-17742072D01*
X7307500Y-17770643D01*
X7293214Y-17784929D01*
X7264643Y-17799214D01*
X7221786Y-17799214D01*
X7493214Y-17799214D02*
X7464643Y-17784929D01*
X7450357Y-17756357D01*
X7450357Y-17499214D01*
X7721786Y-17784929D02*
X7693214Y-17799214D01*
X7636071Y-17799214D01*
X7607500Y-17784929D01*
X7593214Y-17756357D01*
X7593214Y-17642072D01*
X7607500Y-17613500D01*
X7636071Y-17599214D01*
X7693214Y-17599214D01*
X7721786Y-17613500D01*
X7736071Y-17642072D01*
X7736071Y-17670643D01*
X7593214Y-17699214D01*
X7850357Y-17784929D02*
X7878928Y-17799214D01*
X7936071Y-17799214D01*
X7964643Y-17784929D01*
X7978928Y-17756357D01*
X7978928Y-17742072D01*
X7964643Y-17713500D01*
X7936071Y-17699214D01*
X7893214Y-17699214D01*
X7864643Y-17684929D01*
X7850357Y-17656357D01*
X7850357Y-17642072D01*
X7864643Y-17613500D01*
X7893214Y-17599214D01*
X7936071Y-17599214D01*
X7964643Y-17613500D01*
X8078928Y-17913500D02*
X8093214Y-17899214D01*
X8121786Y-17856357D01*
X8136071Y-17827786D01*
X8150357Y-17784929D01*
X8164643Y-17713500D01*
X8164643Y-17656357D01*
X8150357Y-17584929D01*
X8136071Y-17542072D01*
X8121786Y-17513500D01*
X8093214Y-17470643D01*
X8078928Y-17456357D01*
X8621786Y-17913500D02*
X8607500Y-17899214D01*
X8578928Y-17856357D01*
X8564643Y-17827786D01*
X8550357Y-17784929D01*
X8536071Y-17713500D01*
X8536071Y-17656357D01*
X8550357Y-17584929D01*
X8564643Y-17542072D01*
X8578928Y-17513500D01*
X8607500Y-17470643D01*
X8621786Y-17456357D01*
X8736071Y-17599214D02*
X8736071Y-17799214D01*
X8736071Y-17627786D02*
X8750357Y-17613500D01*
X8778928Y-17599214D01*
X8821786Y-17599214D01*
X8850357Y-17613500D01*
X8864643Y-17642072D01*
X8864643Y-17799214D01*
X9050357Y-17799214D02*
X9021786Y-17784929D01*
X9007500Y-17770643D01*
X8993214Y-17742072D01*
X8993214Y-17656357D01*
X9007500Y-17627786D01*
X9021786Y-17613500D01*
X9050357Y-17599214D01*
X9093214Y-17599214D01*
X9121786Y-17613500D01*
X9136071Y-17627786D01*
X9150357Y-17656357D01*
X9150357Y-17742072D01*
X9136071Y-17770643D01*
X9121786Y-17784929D01*
X9093214Y-17799214D01*
X9050357Y-17799214D01*
X9236071Y-17599214D02*
X9350357Y-17599214D01*
X9278928Y-17499214D02*
X9278928Y-17756357D01*
X9293214Y-17784929D01*
X9321786Y-17799214D01*
X9350357Y-17799214D01*
X9678928Y-17599214D02*
X9678928Y-17899214D01*
X9678928Y-17613500D02*
X9707500Y-17599214D01*
X9764643Y-17599214D01*
X9793214Y-17613500D01*
X9807500Y-17627786D01*
X9821786Y-17656357D01*
X9821786Y-17742072D01*
X9807500Y-17770643D01*
X9793214Y-17784929D01*
X9764643Y-17799214D01*
X9707500Y-17799214D01*
X9678928Y-17784929D01*
X9993214Y-17799214D02*
X9964643Y-17784929D01*
X9950357Y-17756357D01*
X9950357Y-17499214D01*
X10236071Y-17799214D02*
X10236071Y-17642072D01*
X10221786Y-17613500D01*
X10193214Y-17599214D01*
X10136071Y-17599214D01*
X10107500Y-17613500D01*
X10236071Y-17784929D02*
X10207500Y-17799214D01*
X10136071Y-17799214D01*
X10107500Y-17784929D01*
X10093214Y-17756357D01*
X10093214Y-17727786D01*
X10107500Y-17699214D01*
X10136071Y-17684929D01*
X10207500Y-17684929D01*
X10236071Y-17670643D01*
X10336071Y-17599214D02*
X10450357Y-17599214D01*
X10378928Y-17499214D02*
X10378928Y-17756357D01*
X10393214Y-17784929D01*
X10421786Y-17799214D01*
X10450357Y-17799214D01*
X10664643Y-17784929D02*
X10636071Y-17799214D01*
X10578928Y-17799214D01*
X10550357Y-17784929D01*
X10536071Y-17756357D01*
X10536071Y-17642072D01*
X10550357Y-17613500D01*
X10578928Y-17599214D01*
X10636071Y-17599214D01*
X10664643Y-17613500D01*
X10678928Y-17642072D01*
X10678928Y-17670643D01*
X10536071Y-17699214D01*
X10936071Y-17799214D02*
X10936071Y-17499214D01*
X10936071Y-17784929D02*
X10907500Y-17799214D01*
X10850357Y-17799214D01*
X10821786Y-17784929D01*
X10807500Y-17770643D01*
X10793214Y-17742072D01*
X10793214Y-17656357D01*
X10807500Y-17627786D01*
X10821786Y-17613500D01*
X10850357Y-17599214D01*
X10907500Y-17599214D01*
X10936071Y-17613500D01*
X11050357Y-17913500D02*
X11064643Y-17899214D01*
X11093214Y-17856357D01*
X11107500Y-17827786D01*
X11121786Y-17784929D01*
X11136071Y-17713500D01*
X11136071Y-17656357D01*
X11121786Y-17584929D01*
X11107500Y-17542072D01*
X11093214Y-17513500D01*
X11064643Y-17470643D01*
X11050357Y-17456357D01*
X1442500Y-17909500D02*
X1442500Y-18209500D01*
X1292500Y-18059500D02*
X1592500Y-18059500D01*
X1850357Y-17895214D02*
X2036071Y-17895214D01*
X1936071Y-18009500D01*
X1978928Y-18009500D01*
X2007500Y-18023786D01*
X2021786Y-18038072D01*
X2036071Y-18066643D01*
X2036071Y-18138072D01*
X2021786Y-18166643D01*
X2007500Y-18180929D01*
X1978928Y-18195214D01*
X1893214Y-18195214D01*
X1864643Y-18180929D01*
X1850357Y-18166643D01*
X2164643Y-18166643D02*
X2178928Y-18180929D01*
X2164643Y-18195214D01*
X2150357Y-18180929D01*
X2164643Y-18166643D01*
X2164643Y-18195214D01*
X2364643Y-17895214D02*
X2393214Y-17895214D01*
X2421786Y-17909500D01*
X2436071Y-17923786D01*
X2450357Y-17952357D01*
X2464643Y-18009500D01*
X2464643Y-18080929D01*
X2450357Y-18138072D01*
X2436071Y-18166643D01*
X2421786Y-18180929D01*
X2393214Y-18195214D01*
X2364643Y-18195214D01*
X2336071Y-18180929D01*
X2321786Y-18166643D01*
X2307500Y-18138072D01*
X2293214Y-18080929D01*
X2293214Y-18009500D01*
X2307500Y-17952357D01*
X2321786Y-17923786D01*
X2336071Y-17909500D01*
X2364643Y-17895214D01*
X2650357Y-17895214D02*
X2678928Y-17895214D01*
X2707500Y-17909500D01*
X2721786Y-17923786D01*
X2736071Y-17952357D01*
X2750357Y-18009500D01*
X2750357Y-18080929D01*
X2736071Y-18138072D01*
X2721786Y-18166643D01*
X2707500Y-18180929D01*
X2678928Y-18195214D01*
X2650357Y-18195214D01*
X2621786Y-18180929D01*
X2607500Y-18166643D01*
X2593214Y-18138072D01*
X2578928Y-18080929D01*
X2578928Y-18009500D01*
X2593214Y-17952357D01*
X2607500Y-17923786D01*
X2621786Y-17909500D01*
X2650357Y-17895214D01*
X2878928Y-18195214D02*
X2878928Y-17995214D01*
X2878928Y-18023786D02*
X2893214Y-18009500D01*
X2921786Y-17995214D01*
X2964643Y-17995214D01*
X2993214Y-18009500D01*
X3007500Y-18038072D01*
X3007500Y-18195214D01*
X3007500Y-18038072D02*
X3021786Y-18009500D01*
X3050357Y-17995214D01*
X3093214Y-17995214D01*
X3121786Y-18009500D01*
X3136071Y-18038072D01*
X3136071Y-18195214D01*
X3278928Y-18195214D02*
X3278928Y-17995214D01*
X3278928Y-18023786D02*
X3293214Y-18009500D01*
X3321786Y-17995214D01*
X3364643Y-17995214D01*
X3393214Y-18009500D01*
X3407500Y-18038072D01*
X3407500Y-18195214D01*
X3407500Y-18038072D02*
X3421786Y-18009500D01*
X3450357Y-17995214D01*
X3493214Y-17995214D01*
X3521786Y-18009500D01*
X3536071Y-18038072D01*
X3536071Y-18195214D01*
X4121786Y-17880929D02*
X3864643Y-18266643D01*
X4507500Y-17895214D02*
X4536071Y-17895214D01*
X4564643Y-17909500D01*
X4578928Y-17923786D01*
X4593214Y-17952357D01*
X4607500Y-18009500D01*
X4607500Y-18080929D01*
X4593214Y-18138072D01*
X4578928Y-18166643D01*
X4564643Y-18180929D01*
X4536071Y-18195214D01*
X4507500Y-18195214D01*
X4478928Y-18180929D01*
X4464643Y-18166643D01*
X4450357Y-18138072D01*
X4436071Y-18080929D01*
X4436071Y-18009500D01*
X4450357Y-17952357D01*
X4464643Y-17923786D01*
X4478928Y-17909500D01*
X4507500Y-17895214D01*
X4736071Y-18166643D02*
X4750357Y-18180929D01*
X4736071Y-18195214D01*
X4721786Y-18180929D01*
X4736071Y-18166643D01*
X4736071Y-18195214D01*
X5036071Y-18195214D02*
X4864643Y-18195214D01*
X4950357Y-18195214D02*
X4950357Y-17895214D01*
X4921786Y-17938072D01*
X4893214Y-17966643D01*
X4864643Y-17980929D01*
X5321786Y-18195214D02*
X5150357Y-18195214D01*
X5236071Y-18195214D02*
X5236071Y-17895214D01*
X5207500Y-17938072D01*
X5178928Y-17966643D01*
X5150357Y-17980929D01*
X5493214Y-18023786D02*
X5464643Y-18009500D01*
X5450357Y-17995214D01*
X5436071Y-17966643D01*
X5436071Y-17952357D01*
X5450357Y-17923786D01*
X5464643Y-17909500D01*
X5493214Y-17895214D01*
X5550357Y-17895214D01*
X5578928Y-17909500D01*
X5593214Y-17923786D01*
X5607500Y-17952357D01*
X5607500Y-17966643D01*
X5593214Y-17995214D01*
X5578928Y-18009500D01*
X5550357Y-18023786D01*
X5493214Y-18023786D01*
X5464643Y-18038072D01*
X5450357Y-18052357D01*
X5436071Y-18080929D01*
X5436071Y-18138072D01*
X5450357Y-18166643D01*
X5464643Y-18180929D01*
X5493214Y-18195214D01*
X5550357Y-18195214D01*
X5578928Y-18180929D01*
X5593214Y-18166643D01*
X5607500Y-18138072D01*
X5607500Y-18080929D01*
X5593214Y-18052357D01*
X5578928Y-18038072D01*
X5550357Y-18023786D01*
X5721786Y-17895214D02*
X5721786Y-17952357D01*
X5836071Y-17895214D02*
X5836071Y-17952357D01*
X6278928Y-18309500D02*
X6264643Y-18295214D01*
X6236071Y-18252357D01*
X6221786Y-18223786D01*
X6207500Y-18180929D01*
X6193214Y-18109500D01*
X6193214Y-18052357D01*
X6207500Y-17980929D01*
X6221786Y-17938072D01*
X6236071Y-17909500D01*
X6264643Y-17866643D01*
X6278928Y-17852357D01*
X6450357Y-17895214D02*
X6478928Y-17895214D01*
X6507500Y-17909500D01*
X6521786Y-17923786D01*
X6536071Y-17952357D01*
X6550357Y-18009500D01*
X6550357Y-18080929D01*
X6536071Y-18138072D01*
X6521786Y-18166643D01*
X6507500Y-18180929D01*
X6478928Y-18195214D01*
X6450357Y-18195214D01*
X6421786Y-18180929D01*
X6407500Y-18166643D01*
X6393214Y-18138072D01*
X6378928Y-18080929D01*
X6378928Y-18009500D01*
X6393214Y-17952357D01*
X6407500Y-17923786D01*
X6421786Y-17909500D01*
X6450357Y-17895214D01*
X6907500Y-18195214D02*
X6907500Y-17895214D01*
X7036071Y-18195214D02*
X7036071Y-18038072D01*
X7021786Y-18009500D01*
X6993214Y-17995214D01*
X6950357Y-17995214D01*
X6921786Y-18009500D01*
X6907500Y-18023786D01*
X7221786Y-18195214D02*
X7193214Y-18180929D01*
X7178928Y-18166643D01*
X7164643Y-18138072D01*
X7164643Y-18052357D01*
X7178928Y-18023786D01*
X7193214Y-18009500D01*
X7221786Y-17995214D01*
X7264643Y-17995214D01*
X7293214Y-18009500D01*
X7307500Y-18023786D01*
X7321786Y-18052357D01*
X7321786Y-18138072D01*
X7307500Y-18166643D01*
X7293214Y-18180929D01*
X7264643Y-18195214D01*
X7221786Y-18195214D01*
X7493214Y-18195214D02*
X7464643Y-18180929D01*
X7450357Y-18152357D01*
X7450357Y-17895214D01*
X7721786Y-18180929D02*
X7693214Y-18195214D01*
X7636071Y-18195214D01*
X7607500Y-18180929D01*
X7593214Y-18152357D01*
X7593214Y-18038072D01*
X7607500Y-18009500D01*
X7636071Y-17995214D01*
X7693214Y-17995214D01*
X7721786Y-18009500D01*
X7736071Y-18038072D01*
X7736071Y-18066643D01*
X7593214Y-18095214D01*
X7850357Y-18180929D02*
X7878928Y-18195214D01*
X7936071Y-18195214D01*
X7964643Y-18180929D01*
X7978928Y-18152357D01*
X7978928Y-18138072D01*
X7964643Y-18109500D01*
X7936071Y-18095214D01*
X7893214Y-18095214D01*
X7864643Y-18080929D01*
X7850357Y-18052357D01*
X7850357Y-18038072D01*
X7864643Y-18009500D01*
X7893214Y-17995214D01*
X7936071Y-17995214D01*
X7964643Y-18009500D01*
X8336071Y-18080929D02*
X8564643Y-18080929D01*
X8450357Y-18195214D02*
X8450357Y-17966643D01*
X8921786Y-17923786D02*
X8936071Y-17909500D01*
X8964643Y-17895214D01*
X9036071Y-17895214D01*
X9064643Y-17909500D01*
X9078928Y-17923786D01*
X9093214Y-17952357D01*
X9093214Y-17980929D01*
X9078928Y-18023786D01*
X8907500Y-18195214D01*
X9093214Y-18195214D01*
X9436071Y-18180929D02*
X9464643Y-18195214D01*
X9521786Y-18195214D01*
X9550357Y-18180929D01*
X9564643Y-18152357D01*
X9564643Y-18138072D01*
X9550357Y-18109500D01*
X9521786Y-18095214D01*
X9478928Y-18095214D01*
X9450357Y-18080929D01*
X9436071Y-18052357D01*
X9436071Y-18038072D01*
X9450357Y-18009500D01*
X9478928Y-17995214D01*
X9521786Y-17995214D01*
X9550357Y-18009500D01*
X9736071Y-18195214D02*
X9707500Y-18180929D01*
X9693214Y-18152357D01*
X9693214Y-17895214D01*
X9893214Y-18195214D02*
X9864643Y-18180929D01*
X9850357Y-18166643D01*
X9836071Y-18138072D01*
X9836071Y-18052357D01*
X9850357Y-18023786D01*
X9864643Y-18009500D01*
X9893214Y-17995214D01*
X9936071Y-17995214D01*
X9964643Y-18009500D01*
X9978928Y-18023786D01*
X9993214Y-18052357D01*
X9993214Y-18138072D01*
X9978928Y-18166643D01*
X9964643Y-18180929D01*
X9936071Y-18195214D01*
X9893214Y-18195214D01*
X10078928Y-17995214D02*
X10193214Y-17995214D01*
X10121786Y-17895214D02*
X10121786Y-18152357D01*
X10136071Y-18180929D01*
X10164643Y-18195214D01*
X10193214Y-18195214D01*
X10278928Y-18180929D02*
X10307500Y-18195214D01*
X10364643Y-18195214D01*
X10393214Y-18180929D01*
X10407500Y-18152357D01*
X10407500Y-18138072D01*
X10393214Y-18109500D01*
X10364643Y-18095214D01*
X10321786Y-18095214D01*
X10293214Y-18080929D01*
X10278928Y-18052357D01*
X10278928Y-18038072D01*
X10293214Y-18009500D01*
X10321786Y-17995214D01*
X10364643Y-17995214D01*
X10393214Y-18009500D01*
X10507500Y-18309500D02*
X10521786Y-18295214D01*
X10550357Y-18252357D01*
X10564643Y-18223786D01*
X10578928Y-18180929D01*
X10593214Y-18109500D01*
X10593214Y-18052357D01*
X10578928Y-17980929D01*
X10564643Y-17938072D01*
X10550357Y-17909500D01*
X10521786Y-17866643D01*
X10507500Y-17852357D01*
X11050357Y-18309500D02*
X11036071Y-18295214D01*
X11007500Y-18252357D01*
X10993214Y-18223786D01*
X10978928Y-18180929D01*
X10964643Y-18109500D01*
X10964643Y-18052357D01*
X10978928Y-17980929D01*
X10993214Y-17938072D01*
X11007500Y-17909500D01*
X11036071Y-17866643D01*
X11050357Y-17852357D01*
X11164643Y-17995214D02*
X11164643Y-18195214D01*
X11164643Y-18023786D02*
X11178928Y-18009500D01*
X11207500Y-17995214D01*
X11250357Y-17995214D01*
X11278928Y-18009500D01*
X11293214Y-18038072D01*
X11293214Y-18195214D01*
X11478928Y-18195214D02*
X11450357Y-18180929D01*
X11436071Y-18166643D01*
X11421786Y-18138072D01*
X11421786Y-18052357D01*
X11436071Y-18023786D01*
X11450357Y-18009500D01*
X11478928Y-17995214D01*
X11521786Y-17995214D01*
X11550357Y-18009500D01*
X11564643Y-18023786D01*
X11578928Y-18052357D01*
X11578928Y-18138072D01*
X11564643Y-18166643D01*
X11550357Y-18180929D01*
X11521786Y-18195214D01*
X11478928Y-18195214D01*
X11664643Y-17995214D02*
X11778928Y-17995214D01*
X11707500Y-17895214D02*
X11707500Y-18152357D01*
X11721786Y-18180929D01*
X11750357Y-18195214D01*
X11778928Y-18195214D01*
X12107500Y-17995214D02*
X12107500Y-18295214D01*
X12107500Y-18009500D02*
X12136071Y-17995214D01*
X12193214Y-17995214D01*
X12221786Y-18009500D01*
X12236071Y-18023786D01*
X12250357Y-18052357D01*
X12250357Y-18138072D01*
X12236071Y-18166643D01*
X12221786Y-18180929D01*
X12193214Y-18195214D01*
X12136071Y-18195214D01*
X12107500Y-18180929D01*
X12421786Y-18195214D02*
X12393214Y-18180929D01*
X12378928Y-18152357D01*
X12378928Y-17895214D01*
X12664643Y-18195214D02*
X12664643Y-18038072D01*
X12650357Y-18009500D01*
X12621786Y-17995214D01*
X12564643Y-17995214D01*
X12536071Y-18009500D01*
X12664643Y-18180929D02*
X12636071Y-18195214D01*
X12564643Y-18195214D01*
X12536071Y-18180929D01*
X12521786Y-18152357D01*
X12521786Y-18123786D01*
X12536071Y-18095214D01*
X12564643Y-18080929D01*
X12636071Y-18080929D01*
X12664643Y-18066643D01*
X12764643Y-17995214D02*
X12878928Y-17995214D01*
X12807500Y-17895214D02*
X12807500Y-18152357D01*
X12821786Y-18180929D01*
X12850357Y-18195214D01*
X12878928Y-18195214D01*
X13093214Y-18180929D02*
X13064643Y-18195214D01*
X13007500Y-18195214D01*
X12978928Y-18180929D01*
X12964643Y-18152357D01*
X12964643Y-18038072D01*
X12978928Y-18009500D01*
X13007500Y-17995214D01*
X13064643Y-17995214D01*
X13093214Y-18009500D01*
X13107500Y-18038072D01*
X13107500Y-18066643D01*
X12964643Y-18095214D01*
X13364643Y-18195214D02*
X13364643Y-17895214D01*
X13364643Y-18180929D02*
X13336071Y-18195214D01*
X13278928Y-18195214D01*
X13250357Y-18180929D01*
X13236071Y-18166643D01*
X13221786Y-18138072D01*
X13221786Y-18052357D01*
X13236071Y-18023786D01*
X13250357Y-18009500D01*
X13278928Y-17995214D01*
X13336071Y-17995214D01*
X13364643Y-18009500D01*
X13478928Y-18309500D02*
X13493214Y-18295214D01*
X13521786Y-18252357D01*
X13536071Y-18223786D01*
X13550357Y-18180929D01*
X13564643Y-18109500D01*
X13564643Y-18052357D01*
X13550357Y-17980929D01*
X13536071Y-17938072D01*
X13521786Y-17909500D01*
X13493214Y-17866643D01*
X13478928Y-17852357D01*
X1545638Y-18602638D02*
X1545638Y-18376362D01*
X1319362Y-18376362D01*
X1319362Y-18602638D01*
X1545638Y-18602638D01*
X1850357Y-18325214D02*
X2036071Y-18325214D01*
X1936071Y-18439500D01*
X1978928Y-18439500D01*
X2007500Y-18453786D01*
X2021786Y-18468072D01*
X2036071Y-18496643D01*
X2036071Y-18568072D01*
X2021786Y-18596643D01*
X2007500Y-18610929D01*
X1978928Y-18625214D01*
X1893214Y-18625214D01*
X1864643Y-18610929D01*
X1850357Y-18596643D01*
X2164643Y-18596643D02*
X2178928Y-18610929D01*
X2164643Y-18625214D01*
X2150357Y-18610929D01*
X2164643Y-18596643D01*
X2164643Y-18625214D01*
X2293214Y-18353786D02*
X2307500Y-18339500D01*
X2336071Y-18325214D01*
X2407500Y-18325214D01*
X2436071Y-18339500D01*
X2450357Y-18353786D01*
X2464643Y-18382357D01*
X2464643Y-18410929D01*
X2450357Y-18453786D01*
X2278928Y-18625214D01*
X2464643Y-18625214D01*
X2650357Y-18325214D02*
X2678928Y-18325214D01*
X2707500Y-18339500D01*
X2721786Y-18353786D01*
X2736071Y-18382357D01*
X2750357Y-18439500D01*
X2750357Y-18510929D01*
X2736071Y-18568072D01*
X2721786Y-18596643D01*
X2707500Y-18610929D01*
X2678928Y-18625214D01*
X2650357Y-18625214D01*
X2621786Y-18610929D01*
X2607500Y-18596643D01*
X2593214Y-18568072D01*
X2578928Y-18510929D01*
X2578928Y-18439500D01*
X2593214Y-18382357D01*
X2607500Y-18353786D01*
X2621786Y-18339500D01*
X2650357Y-18325214D01*
X2878928Y-18625214D02*
X2878928Y-18425214D01*
X2878928Y-18453786D02*
X2893214Y-18439500D01*
X2921786Y-18425214D01*
X2964643Y-18425214D01*
X2993214Y-18439500D01*
X3007500Y-18468072D01*
X3007500Y-18625214D01*
X3007500Y-18468072D02*
X3021786Y-18439500D01*
X3050357Y-18425214D01*
X3093214Y-18425214D01*
X3121786Y-18439500D01*
X3136071Y-18468072D01*
X3136071Y-18625214D01*
X3278928Y-18625214D02*
X3278928Y-18425214D01*
X3278928Y-18453786D02*
X3293214Y-18439500D01*
X3321786Y-18425214D01*
X3364643Y-18425214D01*
X3393214Y-18439500D01*
X3407500Y-18468072D01*
X3407500Y-18625214D01*
X3407500Y-18468072D02*
X3421786Y-18439500D01*
X3450357Y-18425214D01*
X3493214Y-18425214D01*
X3521786Y-18439500D01*
X3536071Y-18468072D01*
X3536071Y-18625214D01*
X4121786Y-18310929D02*
X3864643Y-18696643D01*
X4507500Y-18325214D02*
X4536071Y-18325214D01*
X4564643Y-18339500D01*
X4578928Y-18353786D01*
X4593214Y-18382357D01*
X4607500Y-18439500D01*
X4607500Y-18510929D01*
X4593214Y-18568072D01*
X4578928Y-18596643D01*
X4564643Y-18610929D01*
X4536071Y-18625214D01*
X4507500Y-18625214D01*
X4478928Y-18610929D01*
X4464643Y-18596643D01*
X4450357Y-18568072D01*
X4436071Y-18510929D01*
X4436071Y-18439500D01*
X4450357Y-18382357D01*
X4464643Y-18353786D01*
X4478928Y-18339500D01*
X4507500Y-18325214D01*
X4736071Y-18596643D02*
X4750357Y-18610929D01*
X4736071Y-18625214D01*
X4721786Y-18610929D01*
X4736071Y-18596643D01*
X4736071Y-18625214D01*
X5036071Y-18625214D02*
X4864643Y-18625214D01*
X4950357Y-18625214D02*
X4950357Y-18325214D01*
X4921786Y-18368072D01*
X4893214Y-18396643D01*
X4864643Y-18410929D01*
X5150357Y-18353786D02*
X5164643Y-18339500D01*
X5193214Y-18325214D01*
X5264643Y-18325214D01*
X5293214Y-18339500D01*
X5307500Y-18353786D01*
X5321786Y-18382357D01*
X5321786Y-18410929D01*
X5307500Y-18453786D01*
X5136071Y-18625214D01*
X5321786Y-18625214D01*
X5578928Y-18325214D02*
X5521786Y-18325214D01*
X5493214Y-18339500D01*
X5478928Y-18353786D01*
X5450357Y-18396643D01*
X5436071Y-18453786D01*
X5436071Y-18568072D01*
X5450357Y-18596643D01*
X5464643Y-18610929D01*
X5493214Y-18625214D01*
X5550357Y-18625214D01*
X5578928Y-18610929D01*
X5593214Y-18596643D01*
X5607500Y-18568072D01*
X5607500Y-18496643D01*
X5593214Y-18468072D01*
X5578928Y-18453786D01*
X5550357Y-18439500D01*
X5493214Y-18439500D01*
X5464643Y-18453786D01*
X5450357Y-18468072D01*
X5436071Y-18496643D01*
X5721786Y-18325214D02*
X5721786Y-18382357D01*
X5836071Y-18325214D02*
X5836071Y-18382357D01*
X6278928Y-18739500D02*
X6264643Y-18725214D01*
X6236071Y-18682357D01*
X6221786Y-18653786D01*
X6207500Y-18610929D01*
X6193214Y-18539500D01*
X6193214Y-18482357D01*
X6207500Y-18410929D01*
X6221786Y-18368072D01*
X6236071Y-18339500D01*
X6264643Y-18296643D01*
X6278928Y-18282357D01*
X6536071Y-18325214D02*
X6393214Y-18325214D01*
X6378928Y-18468072D01*
X6393214Y-18453786D01*
X6421786Y-18439500D01*
X6493214Y-18439500D01*
X6521786Y-18453786D01*
X6536071Y-18468072D01*
X6550357Y-18496643D01*
X6550357Y-18568072D01*
X6536071Y-18596643D01*
X6521786Y-18610929D01*
X6493214Y-18625214D01*
X6421786Y-18625214D01*
X6393214Y-18610929D01*
X6378928Y-18596643D01*
X6907500Y-18625214D02*
X6907500Y-18325214D01*
X7036071Y-18625214D02*
X7036071Y-18468072D01*
X7021786Y-18439500D01*
X6993214Y-18425214D01*
X6950357Y-18425214D01*
X6921786Y-18439500D01*
X6907500Y-18453786D01*
X7221786Y-18625214D02*
X7193214Y-18610929D01*
X7178928Y-18596643D01*
X7164643Y-18568072D01*
X7164643Y-18482357D01*
X7178928Y-18453786D01*
X7193214Y-18439500D01*
X7221786Y-18425214D01*
X7264643Y-18425214D01*
X7293214Y-18439500D01*
X7307500Y-18453786D01*
X7321786Y-18482357D01*
X7321786Y-18568072D01*
X7307500Y-18596643D01*
X7293214Y-18610929D01*
X7264643Y-18625214D01*
X7221786Y-18625214D01*
X7493214Y-18625214D02*
X7464643Y-18610929D01*
X7450357Y-18582357D01*
X7450357Y-18325214D01*
X7721786Y-18610929D02*
X7693214Y-18625214D01*
X7636071Y-18625214D01*
X7607500Y-18610929D01*
X7593214Y-18582357D01*
X7593214Y-18468072D01*
X7607500Y-18439500D01*
X7636071Y-18425214D01*
X7693214Y-18425214D01*
X7721786Y-18439500D01*
X7736071Y-18468072D01*
X7736071Y-18496643D01*
X7593214Y-18525214D01*
X7850357Y-18610929D02*
X7878928Y-18625214D01*
X7936071Y-18625214D01*
X7964643Y-18610929D01*
X7978928Y-18582357D01*
X7978928Y-18568072D01*
X7964643Y-18539500D01*
X7936071Y-18525214D01*
X7893214Y-18525214D01*
X7864643Y-18510929D01*
X7850357Y-18482357D01*
X7850357Y-18468072D01*
X7864643Y-18439500D01*
X7893214Y-18425214D01*
X7936071Y-18425214D01*
X7964643Y-18439500D01*
X8078928Y-18739500D02*
X8093214Y-18725214D01*
X8121786Y-18682357D01*
X8136071Y-18653786D01*
X8150357Y-18610929D01*
X8164643Y-18539500D01*
X8164643Y-18482357D01*
X8150357Y-18410929D01*
X8136071Y-18368072D01*
X8121786Y-18339500D01*
X8093214Y-18296643D01*
X8078928Y-18282357D01*
X8621786Y-18739500D02*
X8607500Y-18725214D01*
X8578928Y-18682357D01*
X8564643Y-18653786D01*
X8550357Y-18610929D01*
X8536071Y-18539500D01*
X8536071Y-18482357D01*
X8550357Y-18410929D01*
X8564643Y-18368072D01*
X8578928Y-18339500D01*
X8607500Y-18296643D01*
X8621786Y-18282357D01*
X8736071Y-18425214D02*
X8736071Y-18625214D01*
X8736071Y-18453786D02*
X8750357Y-18439500D01*
X8778928Y-18425214D01*
X8821786Y-18425214D01*
X8850357Y-18439500D01*
X8864643Y-18468072D01*
X8864643Y-18625214D01*
X9050357Y-18625214D02*
X9021786Y-18610929D01*
X9007500Y-18596643D01*
X8993214Y-18568072D01*
X8993214Y-18482357D01*
X9007500Y-18453786D01*
X9021786Y-18439500D01*
X9050357Y-18425214D01*
X9093214Y-18425214D01*
X9121786Y-18439500D01*
X9136071Y-18453786D01*
X9150357Y-18482357D01*
X9150357Y-18568072D01*
X9136071Y-18596643D01*
X9121786Y-18610929D01*
X9093214Y-18625214D01*
X9050357Y-18625214D01*
X9236071Y-18425214D02*
X9350357Y-18425214D01*
X9278928Y-18325214D02*
X9278928Y-18582357D01*
X9293214Y-18610929D01*
X9321786Y-18625214D01*
X9350357Y-18625214D01*
X9678928Y-18425214D02*
X9678928Y-18725214D01*
X9678928Y-18439500D02*
X9707500Y-18425214D01*
X9764643Y-18425214D01*
X9793214Y-18439500D01*
X9807500Y-18453786D01*
X9821786Y-18482357D01*
X9821786Y-18568072D01*
X9807500Y-18596643D01*
X9793214Y-18610929D01*
X9764643Y-18625214D01*
X9707500Y-18625214D01*
X9678928Y-18610929D01*
X9993214Y-18625214D02*
X9964643Y-18610929D01*
X9950357Y-18582357D01*
X9950357Y-18325214D01*
X10236071Y-18625214D02*
X10236071Y-18468072D01*
X10221786Y-18439500D01*
X10193214Y-18425214D01*
X10136071Y-18425214D01*
X10107500Y-18439500D01*
X10236071Y-18610929D02*
X10207500Y-18625214D01*
X10136071Y-18625214D01*
X10107500Y-18610929D01*
X10093214Y-18582357D01*
X10093214Y-18553786D01*
X10107500Y-18525214D01*
X10136071Y-18510929D01*
X10207500Y-18510929D01*
X10236071Y-18496643D01*
X10336071Y-18425214D02*
X10450357Y-18425214D01*
X10378928Y-18325214D02*
X10378928Y-18582357D01*
X10393214Y-18610929D01*
X10421786Y-18625214D01*
X10450357Y-18625214D01*
X10664643Y-18610929D02*
X10636071Y-18625214D01*
X10578928Y-18625214D01*
X10550357Y-18610929D01*
X10536071Y-18582357D01*
X10536071Y-18468072D01*
X10550357Y-18439500D01*
X10578928Y-18425214D01*
X10636071Y-18425214D01*
X10664643Y-18439500D01*
X10678928Y-18468072D01*
X10678928Y-18496643D01*
X10536071Y-18525214D01*
X10936071Y-18625214D02*
X10936071Y-18325214D01*
X10936071Y-18610929D02*
X10907500Y-18625214D01*
X10850357Y-18625214D01*
X10821786Y-18610929D01*
X10807500Y-18596643D01*
X10793214Y-18568072D01*
X10793214Y-18482357D01*
X10807500Y-18453786D01*
X10821786Y-18439500D01*
X10850357Y-18425214D01*
X10907500Y-18425214D01*
X10936071Y-18439500D01*
X11050357Y-18739500D02*
X11064643Y-18725214D01*
X11093214Y-18682357D01*
X11107500Y-18653786D01*
X11121786Y-18610929D01*
X11136071Y-18539500D01*
X11136071Y-18482357D01*
X11121786Y-18410929D01*
X11107500Y-18368072D01*
X11093214Y-18339500D01*
X11064643Y-18296643D01*
X11050357Y-18282357D01*
X1342500Y-19189500D02*
X1592500Y-18939500D01*
X1342500Y-18689500D01*
X1092500Y-18939500D01*
X1342500Y-19189500D01*
X2021786Y-18775214D02*
X1878928Y-18775214D01*
X1864643Y-18918072D01*
X1878928Y-18903786D01*
X1907500Y-18889500D01*
X1978928Y-18889500D01*
X2007500Y-18903786D01*
X2021786Y-18918072D01*
X2036071Y-18946643D01*
X2036071Y-19018072D01*
X2021786Y-19046643D01*
X2007500Y-19060929D01*
X1978928Y-19075214D01*
X1907500Y-19075214D01*
X1878928Y-19060929D01*
X1864643Y-19046643D01*
X2164643Y-19046643D02*
X2178928Y-19060929D01*
X2164643Y-19075214D01*
X2150357Y-19060929D01*
X2164643Y-19046643D01*
X2164643Y-19075214D01*
X2364643Y-18775214D02*
X2393214Y-18775214D01*
X2421786Y-18789500D01*
X2436071Y-18803786D01*
X2450357Y-18832357D01*
X2464643Y-18889500D01*
X2464643Y-18960929D01*
X2450357Y-19018072D01*
X2436071Y-19046643D01*
X2421786Y-19060929D01*
X2393214Y-19075214D01*
X2364643Y-19075214D01*
X2336071Y-19060929D01*
X2321786Y-19046643D01*
X2307500Y-19018072D01*
X2293214Y-18960929D01*
X2293214Y-18889500D01*
X2307500Y-18832357D01*
X2321786Y-18803786D01*
X2336071Y-18789500D01*
X2364643Y-18775214D01*
X2650357Y-18775214D02*
X2678928Y-18775214D01*
X2707500Y-18789500D01*
X2721786Y-18803786D01*
X2736071Y-18832357D01*
X2750357Y-18889500D01*
X2750357Y-18960929D01*
X2736071Y-19018072D01*
X2721786Y-19046643D01*
X2707500Y-19060929D01*
X2678928Y-19075214D01*
X2650357Y-19075214D01*
X2621786Y-19060929D01*
X2607500Y-19046643D01*
X2593214Y-19018072D01*
X2578928Y-18960929D01*
X2578928Y-18889500D01*
X2593214Y-18832357D01*
X2607500Y-18803786D01*
X2621786Y-18789500D01*
X2650357Y-18775214D01*
X2878928Y-19075214D02*
X2878928Y-18875214D01*
X2878928Y-18903786D02*
X2893214Y-18889500D01*
X2921786Y-18875214D01*
X2964643Y-18875214D01*
X2993214Y-18889500D01*
X3007500Y-18918072D01*
X3007500Y-19075214D01*
X3007500Y-18918072D02*
X3021786Y-18889500D01*
X3050357Y-18875214D01*
X3093214Y-18875214D01*
X3121786Y-18889500D01*
X3136071Y-18918072D01*
X3136071Y-19075214D01*
X3278928Y-19075214D02*
X3278928Y-18875214D01*
X3278928Y-18903786D02*
X3293214Y-18889500D01*
X3321786Y-18875214D01*
X3364643Y-18875214D01*
X3393214Y-18889500D01*
X3407500Y-18918072D01*
X3407500Y-19075214D01*
X3407500Y-18918072D02*
X3421786Y-18889500D01*
X3450357Y-18875214D01*
X3493214Y-18875214D01*
X3521786Y-18889500D01*
X3536071Y-18918072D01*
X3536071Y-19075214D01*
X4121786Y-18760929D02*
X3864643Y-19146643D01*
X4507500Y-18775214D02*
X4536071Y-18775214D01*
X4564643Y-18789500D01*
X4578928Y-18803786D01*
X4593214Y-18832357D01*
X4607500Y-18889500D01*
X4607500Y-18960929D01*
X4593214Y-19018072D01*
X4578928Y-19046643D01*
X4564643Y-19060929D01*
X4536071Y-19075214D01*
X4507500Y-19075214D01*
X4478928Y-19060929D01*
X4464643Y-19046643D01*
X4450357Y-19018072D01*
X4436071Y-18960929D01*
X4436071Y-18889500D01*
X4450357Y-18832357D01*
X4464643Y-18803786D01*
X4478928Y-18789500D01*
X4507500Y-18775214D01*
X4736071Y-19046643D02*
X4750357Y-19060929D01*
X4736071Y-19075214D01*
X4721786Y-19060929D01*
X4736071Y-19046643D01*
X4736071Y-19075214D01*
X5036071Y-19075214D02*
X4864643Y-19075214D01*
X4950357Y-19075214D02*
X4950357Y-18775214D01*
X4921786Y-18818072D01*
X4893214Y-18846643D01*
X4864643Y-18860929D01*
X5178928Y-19075214D02*
X5236071Y-19075214D01*
X5264643Y-19060929D01*
X5278928Y-19046643D01*
X5307500Y-19003786D01*
X5321786Y-18946643D01*
X5321786Y-18832357D01*
X5307500Y-18803786D01*
X5293214Y-18789500D01*
X5264643Y-18775214D01*
X5207500Y-18775214D01*
X5178928Y-18789500D01*
X5164643Y-18803786D01*
X5150357Y-18832357D01*
X5150357Y-18903786D01*
X5164643Y-18932357D01*
X5178928Y-18946643D01*
X5207500Y-18960929D01*
X5264643Y-18960929D01*
X5293214Y-18946643D01*
X5307500Y-18932357D01*
X5321786Y-18903786D01*
X5421786Y-18775214D02*
X5621786Y-18775214D01*
X5493214Y-19075214D01*
X5721786Y-18775214D02*
X5721786Y-18832357D01*
X5836071Y-18775214D02*
X5836071Y-18832357D01*
X6278928Y-19189500D02*
X6264643Y-19175214D01*
X6236071Y-19132357D01*
X6221786Y-19103786D01*
X6207500Y-19060929D01*
X6193214Y-18989500D01*
X6193214Y-18932357D01*
X6207500Y-18860929D01*
X6221786Y-18818072D01*
X6236071Y-18789500D01*
X6264643Y-18746643D01*
X6278928Y-18732357D01*
X6521786Y-18875214D02*
X6521786Y-19075214D01*
X6450357Y-18760929D02*
X6378928Y-18975214D01*
X6564643Y-18975214D01*
X6907500Y-19075214D02*
X6907500Y-18775214D01*
X7036071Y-19075214D02*
X7036071Y-18918072D01*
X7021786Y-18889500D01*
X6993214Y-18875214D01*
X6950357Y-18875214D01*
X6921786Y-18889500D01*
X6907500Y-18903786D01*
X7221786Y-19075214D02*
X7193214Y-19060929D01*
X7178928Y-19046643D01*
X7164643Y-19018072D01*
X7164643Y-18932357D01*
X7178928Y-18903786D01*
X7193214Y-18889500D01*
X7221786Y-18875214D01*
X7264643Y-18875214D01*
X7293214Y-18889500D01*
X7307500Y-18903786D01*
X7321786Y-18932357D01*
X7321786Y-19018072D01*
X7307500Y-19046643D01*
X7293214Y-19060929D01*
X7264643Y-19075214D01*
X7221786Y-19075214D01*
X7493214Y-19075214D02*
X7464643Y-19060929D01*
X7450357Y-19032357D01*
X7450357Y-18775214D01*
X7721786Y-19060929D02*
X7693214Y-19075214D01*
X7636071Y-19075214D01*
X7607500Y-19060929D01*
X7593214Y-19032357D01*
X7593214Y-18918072D01*
X7607500Y-18889500D01*
X7636071Y-18875214D01*
X7693214Y-18875214D01*
X7721786Y-18889500D01*
X7736071Y-18918072D01*
X7736071Y-18946643D01*
X7593214Y-18975214D01*
X7850357Y-19060929D02*
X7878928Y-19075214D01*
X7936071Y-19075214D01*
X7964643Y-19060929D01*
X7978928Y-19032357D01*
X7978928Y-19018072D01*
X7964643Y-18989500D01*
X7936071Y-18975214D01*
X7893214Y-18975214D01*
X7864643Y-18960929D01*
X7850357Y-18932357D01*
X7850357Y-18918072D01*
X7864643Y-18889500D01*
X7893214Y-18875214D01*
X7936071Y-18875214D01*
X7964643Y-18889500D01*
X8078928Y-19189500D02*
X8093214Y-19175214D01*
X8121786Y-19132357D01*
X8136071Y-19103786D01*
X8150357Y-19060929D01*
X8164643Y-18989500D01*
X8164643Y-18932357D01*
X8150357Y-18860929D01*
X8136071Y-18818072D01*
X8121786Y-18789500D01*
X8093214Y-18746643D01*
X8078928Y-18732357D01*
X8621786Y-19189500D02*
X8607500Y-19175214D01*
X8578928Y-19132357D01*
X8564643Y-19103786D01*
X8550357Y-19060929D01*
X8536071Y-18989500D01*
X8536071Y-18932357D01*
X8550357Y-18860929D01*
X8564643Y-18818072D01*
X8578928Y-18789500D01*
X8607500Y-18746643D01*
X8621786Y-18732357D01*
X8736071Y-18875214D02*
X8736071Y-19075214D01*
X8736071Y-18903786D02*
X8750357Y-18889500D01*
X8778928Y-18875214D01*
X8821786Y-18875214D01*
X8850357Y-18889500D01*
X8864643Y-18918072D01*
X8864643Y-19075214D01*
X9050357Y-19075214D02*
X9021786Y-19060929D01*
X9007500Y-19046643D01*
X8993214Y-19018072D01*
X8993214Y-18932357D01*
X9007500Y-18903786D01*
X9021786Y-18889500D01*
X9050357Y-18875214D01*
X9093214Y-18875214D01*
X9121786Y-18889500D01*
X9136071Y-18903786D01*
X9150357Y-18932357D01*
X9150357Y-19018072D01*
X9136071Y-19046643D01*
X9121786Y-19060929D01*
X9093214Y-19075214D01*
X9050357Y-19075214D01*
X9236071Y-18875214D02*
X9350357Y-18875214D01*
X9278928Y-18775214D02*
X9278928Y-19032357D01*
X9293214Y-19060929D01*
X9321786Y-19075214D01*
X9350357Y-19075214D01*
X9678928Y-18875214D02*
X9678928Y-19175214D01*
X9678928Y-18889500D02*
X9707500Y-18875214D01*
X9764643Y-18875214D01*
X9793214Y-18889500D01*
X9807500Y-18903786D01*
X9821786Y-18932357D01*
X9821786Y-19018072D01*
X9807500Y-19046643D01*
X9793214Y-19060929D01*
X9764643Y-19075214D01*
X9707500Y-19075214D01*
X9678928Y-19060929D01*
X9993214Y-19075214D02*
X9964643Y-19060929D01*
X9950357Y-19032357D01*
X9950357Y-18775214D01*
X10236071Y-19075214D02*
X10236071Y-18918072D01*
X10221786Y-18889500D01*
X10193214Y-18875214D01*
X10136071Y-18875214D01*
X10107500Y-18889500D01*
X10236071Y-19060929D02*
X10207500Y-19075214D01*
X10136071Y-19075214D01*
X10107500Y-19060929D01*
X10093214Y-19032357D01*
X10093214Y-19003786D01*
X10107500Y-18975214D01*
X10136071Y-18960929D01*
X10207500Y-18960929D01*
X10236071Y-18946643D01*
X10336071Y-18875214D02*
X10450357Y-18875214D01*
X10378928Y-18775214D02*
X10378928Y-19032357D01*
X10393214Y-19060929D01*
X10421786Y-19075214D01*
X10450357Y-19075214D01*
X10664643Y-19060929D02*
X10636071Y-19075214D01*
X10578928Y-19075214D01*
X10550357Y-19060929D01*
X10536071Y-19032357D01*
X10536071Y-18918072D01*
X10550357Y-18889500D01*
X10578928Y-18875214D01*
X10636071Y-18875214D01*
X10664643Y-18889500D01*
X10678928Y-18918072D01*
X10678928Y-18946643D01*
X10536071Y-18975214D01*
X10936071Y-19075214D02*
X10936071Y-18775214D01*
X10936071Y-19060929D02*
X10907500Y-19075214D01*
X10850357Y-19075214D01*
X10821786Y-19060929D01*
X10807500Y-19046643D01*
X10793214Y-19018072D01*
X10793214Y-18932357D01*
X10807500Y-18903786D01*
X10821786Y-18889500D01*
X10850357Y-18875214D01*
X10907500Y-18875214D01*
X10936071Y-18889500D01*
X11050357Y-19189500D02*
X11064643Y-19175214D01*
X11093214Y-19132357D01*
X11107500Y-19103786D01*
X11121786Y-19060929D01*
X11136071Y-18989500D01*
X11136071Y-18932357D01*
X11121786Y-18860929D01*
X11107500Y-18818072D01*
X11093214Y-18789500D01*
X11064643Y-18746643D01*
X11050357Y-18732357D01*
M02*
