G04 #@! TF.GenerationSoftware,KiCad,Pcbnew,5.1.10*
G04 #@! TF.CreationDate,2021-05-26T01:04:42+02:00*
G04 #@! TF.ProjectId,main,6d61696e-2e6b-4696-9361-645f70636258,rev?*
G04 #@! TF.SameCoordinates,Original*
G04 #@! TF.FileFunction,Soldermask,Bot*
G04 #@! TF.FilePolarity,Negative*
%FSLAX46Y46*%
G04 Gerber Fmt 4.6, Leading zero omitted, Abs format (unit mm)*
G04 Created by KiCad (PCBNEW 5.1.10) date 2021-05-26 01:04:42*
%MOMM*%
%LPD*%
G01*
G04 APERTURE LIST*
%ADD10C,1.422400*%
%ADD11R,1.422400X1.422400*%
%ADD12O,1.700000X1.700000*%
%ADD13R,1.700000X1.700000*%
%ADD14C,1.700000*%
%ADD15C,3.200000*%
%ADD16C,5.000000*%
%ADD17R,1.600000X1.600000*%
%ADD18C,1.600000*%
%ADD19C,3.800000*%
%ADD20C,2.100000*%
%ADD21O,1.600000X1.600000*%
%ADD22C,2.200000*%
%ADD23O,3.000000X4.000000*%
%ADD24C,3.100000*%
%ADD25C,2.500000*%
%ADD26O,1.400000X2.200000*%
%ADD27O,2.200000X1.400000*%
%ADD28C,0.100000*%
%ADD29C,2.400000*%
%ADD30C,1.200000*%
%ADD31R,1.520000X1.520000*%
%ADD32C,1.520000*%
%ADD33C,1.800000*%
%ADD34O,1.400000X1.400000*%
%ADD35C,1.400000*%
%ADD36O,1.800000X1.800000*%
%ADD37R,1.800000X1.800000*%
%ADD38C,1.442000*%
%ADD39R,2.000000X1.460000*%
%ADD40R,1.300000X2.600000*%
%ADD41O,4.800600X3.000000*%
%ADD42O,3.000000X4.800600*%
%ADD43C,3.400000*%
G04 APERTURE END LIST*
D10*
X170180000Y-124460000D03*
X154940000Y-116840000D03*
X167640000Y-124460000D03*
X157480000Y-116840000D03*
X165100000Y-124460000D03*
X160020000Y-116840000D03*
X162560000Y-124460000D03*
X162560000Y-116840000D03*
X160020000Y-124460000D03*
X165100000Y-116840000D03*
X157480000Y-124460000D03*
X167640000Y-116840000D03*
X154940000Y-124460000D03*
D11*
X170180000Y-116840000D03*
D12*
X78740000Y-153670000D03*
X78740000Y-151130000D03*
X81280000Y-153670000D03*
X81280000Y-151130000D03*
X83820000Y-153670000D03*
D13*
X83820000Y-151130000D03*
D14*
X179070000Y-48260000D03*
X194310000Y-53340000D03*
X142240000Y-96520000D03*
X171450000Y-46990000D03*
X184150000Y-48260000D03*
X106680000Y-57150000D03*
X35560000Y-52070000D03*
X38100000Y-107950000D03*
X38100000Y-132080000D03*
D15*
X21000000Y-20000000D03*
D10*
X137160000Y-40640000D03*
X165100000Y-55880000D03*
X139700000Y-40640000D03*
X162560000Y-55880000D03*
X142240000Y-40640000D03*
X160020000Y-55880000D03*
X144780000Y-40640000D03*
X157480000Y-55880000D03*
X147320000Y-40640000D03*
X154940000Y-55880000D03*
X149860000Y-40640000D03*
X152400000Y-55880000D03*
X152400000Y-40640000D03*
X149860000Y-55880000D03*
X154940000Y-40640000D03*
X147320000Y-55880000D03*
X157480000Y-40640000D03*
X144780000Y-55880000D03*
X160020000Y-40640000D03*
X142240000Y-55880000D03*
X162560000Y-40640000D03*
X139700000Y-55880000D03*
X165100000Y-40640000D03*
D11*
X137160000Y-55880000D03*
D10*
X114300000Y-83820000D03*
X114300000Y-81280000D03*
X111760000Y-81280000D03*
X111760000Y-83820000D03*
X109220000Y-81280000D03*
X109220000Y-83820000D03*
X106680000Y-81280000D03*
X106680000Y-83820000D03*
X104140000Y-81280000D03*
X104140000Y-83820000D03*
X101600000Y-81280000D03*
X99060000Y-83820000D03*
X101600000Y-83820000D03*
X99060000Y-86360000D03*
X101600000Y-86360000D03*
X99060000Y-88900000D03*
X101600000Y-88900000D03*
X99060000Y-91440000D03*
X101600000Y-91440000D03*
X99060000Y-93980000D03*
X101600000Y-93980000D03*
X99060000Y-96520000D03*
X101600000Y-96520000D03*
X99060000Y-99060000D03*
X101600000Y-99060000D03*
X99060000Y-101600000D03*
X101600000Y-101600000D03*
X99060000Y-109220000D03*
X99060000Y-104140000D03*
X101600000Y-104140000D03*
X99060000Y-106680000D03*
X101600000Y-106680000D03*
X101600000Y-111760000D03*
X101600000Y-109220000D03*
X104140000Y-111760000D03*
X104140000Y-109220000D03*
X106680000Y-111760000D03*
X106680000Y-109220000D03*
X109220000Y-111760000D03*
X109220000Y-109220000D03*
X111760000Y-111760000D03*
X111760000Y-109220000D03*
X114300000Y-111760000D03*
X114300000Y-109220000D03*
X116840000Y-111760000D03*
X116840000Y-109220000D03*
X119380000Y-111760000D03*
X119380000Y-109220000D03*
X121920000Y-111760000D03*
X121920000Y-109220000D03*
X124460000Y-111760000D03*
X124460000Y-109220000D03*
X127000000Y-111760000D03*
X129540000Y-109220000D03*
X127000000Y-109220000D03*
X129540000Y-106680000D03*
X127000000Y-106680000D03*
X129540000Y-104140000D03*
X127000000Y-104140000D03*
X129540000Y-101600000D03*
X127000000Y-101600000D03*
X129540000Y-99060000D03*
X127000000Y-99060000D03*
X129540000Y-96520000D03*
X127000000Y-96520000D03*
X129540000Y-93980000D03*
X127000000Y-93980000D03*
X129540000Y-91440000D03*
X127000000Y-91440000D03*
X129540000Y-88900000D03*
X127000000Y-88900000D03*
X129540000Y-86360000D03*
X127000000Y-86360000D03*
X129540000Y-83820000D03*
X127000000Y-81280000D03*
X127000000Y-83820000D03*
X124460000Y-81280000D03*
X124460000Y-83820000D03*
X121920000Y-81280000D03*
X121920000Y-83820000D03*
X119380000Y-81280000D03*
X119380000Y-83820000D03*
X116840000Y-81280000D03*
X116840000Y-83820000D03*
D16*
X109220000Y-101600000D03*
X119380000Y-101600000D03*
X119380000Y-91440000D03*
X109220000Y-91440000D03*
D17*
X132080000Y-63500000D03*
D18*
X116840000Y-71120000D03*
X129540000Y-63500000D03*
X119380000Y-71120000D03*
X127000000Y-63500000D03*
X121920000Y-71120000D03*
X124460000Y-63500000D03*
X124460000Y-71120000D03*
X121920000Y-63500000D03*
X127000000Y-71120000D03*
X119380000Y-63500000D03*
X129540000Y-71120000D03*
X116840000Y-63500000D03*
X132080000Y-71120000D03*
D10*
X96520000Y-74930000D03*
X76200000Y-67310000D03*
X93980000Y-74930000D03*
X78740000Y-67310000D03*
X91440000Y-74930000D03*
X81280000Y-67310000D03*
X88900000Y-74930000D03*
X83820000Y-67310000D03*
X86360000Y-74930000D03*
X86360000Y-67310000D03*
X83820000Y-74930000D03*
X88900000Y-67310000D03*
X81280000Y-74930000D03*
X91440000Y-67310000D03*
X78740000Y-74930000D03*
X93980000Y-67310000D03*
X76200000Y-74930000D03*
D11*
X96520000Y-67310000D03*
D15*
X110439200Y-69240400D03*
X205000000Y-158000000D03*
D18*
X26180000Y-77000000D03*
X26180000Y-74460000D03*
X26180000Y-71920000D03*
X26180000Y-69380000D03*
X26180000Y-66840000D03*
X26180000Y-64300000D03*
X26180000Y-61760000D03*
X26180000Y-59220000D03*
X26180000Y-56680000D03*
X26180000Y-54140000D03*
X26180000Y-51600000D03*
X26180000Y-49060000D03*
X26180000Y-46520000D03*
X26180000Y-43980000D03*
X26180000Y-41440000D03*
X26180000Y-38900000D03*
X23640000Y-77000000D03*
X23640000Y-74460000D03*
X23640000Y-71920000D03*
X23640000Y-69380000D03*
X23640000Y-66840000D03*
X23640000Y-64300000D03*
X23640000Y-61760000D03*
X23640000Y-59220000D03*
X23640000Y-56680000D03*
X23640000Y-54140000D03*
X23640000Y-51600000D03*
X23640000Y-49060000D03*
X23640000Y-46520000D03*
X23640000Y-43980000D03*
X23640000Y-41440000D03*
X23640000Y-38900000D03*
X21100000Y-77000000D03*
X21100000Y-74460000D03*
X21100000Y-71920000D03*
X21100000Y-69380000D03*
X21100000Y-66840000D03*
X21100000Y-64300000D03*
X21100000Y-61760000D03*
X21100000Y-59220000D03*
X21100000Y-56680000D03*
X21100000Y-54140000D03*
X21100000Y-51600000D03*
X21100000Y-49060000D03*
X21100000Y-46520000D03*
X21100000Y-43980000D03*
X21100000Y-41440000D03*
D19*
X18560000Y-82080000D03*
X18560000Y-33820000D03*
D18*
X21100000Y-38900000D03*
D20*
X214630000Y-42680000D03*
X214630000Y-45180000D03*
X214630000Y-47680000D03*
X224630000Y-45180000D03*
D10*
X68580000Y-160020000D03*
X48260000Y-152400000D03*
X66040000Y-160020000D03*
X50800000Y-152400000D03*
X63500000Y-160020000D03*
X53340000Y-152400000D03*
X60960000Y-160020000D03*
X55880000Y-152400000D03*
X58420000Y-160020000D03*
X58420000Y-152400000D03*
X55880000Y-160020000D03*
X60960000Y-152400000D03*
X53340000Y-160020000D03*
X63500000Y-152400000D03*
X50800000Y-160020000D03*
X66040000Y-152400000D03*
X48260000Y-160020000D03*
D11*
X68580000Y-152400000D03*
D17*
X39370000Y-144145000D03*
D21*
X39370000Y-136525000D03*
D10*
X40640000Y-86360000D03*
X88900000Y-101600000D03*
X43180000Y-86360000D03*
X86360000Y-101600000D03*
X45720000Y-86360000D03*
X83820000Y-101600000D03*
X48260000Y-86360000D03*
X81280000Y-101600000D03*
X50800000Y-86360000D03*
X78740000Y-101600000D03*
X53340000Y-86360000D03*
X76200000Y-101600000D03*
X55880000Y-86360000D03*
X73660000Y-101600000D03*
X58420000Y-86360000D03*
X71120000Y-101600000D03*
X60960000Y-86360000D03*
X68580000Y-101600000D03*
X63500000Y-86360000D03*
X66040000Y-101600000D03*
X66040000Y-86360000D03*
X63500000Y-101600000D03*
X68580000Y-86360000D03*
X60960000Y-101600000D03*
X71120000Y-86360000D03*
X58420000Y-101600000D03*
X73660000Y-86360000D03*
X55880000Y-101600000D03*
X76200000Y-86360000D03*
X53340000Y-101600000D03*
X78740000Y-86360000D03*
X50800000Y-101600000D03*
X81280000Y-86360000D03*
X48260000Y-101600000D03*
X83820000Y-86360000D03*
X45720000Y-101600000D03*
X86360000Y-86360000D03*
X43180000Y-101600000D03*
X88900000Y-86360000D03*
D11*
X40640000Y-101600000D03*
D15*
X221000000Y-20000000D03*
X36830000Y-158115000D03*
D22*
X97950000Y-30298640D03*
X99855000Y-25218640D03*
X101760000Y-30298640D03*
X103665000Y-25218640D03*
X105570000Y-30298640D03*
X107475000Y-25218640D03*
X109380000Y-30298640D03*
X111285000Y-25218640D03*
X113190000Y-30298640D03*
X115095000Y-25218640D03*
X117000000Y-30298640D03*
X118905000Y-25218640D03*
X120810000Y-30298640D03*
X122715000Y-25218640D03*
X124620000Y-30298640D03*
X126525000Y-25218640D03*
X128430000Y-30298640D03*
X130335000Y-25218640D03*
X132240000Y-30298640D03*
X134145000Y-25218640D03*
X136050000Y-30298640D03*
D23*
X90500180Y-23219660D03*
X143499820Y-23219660D03*
D18*
X132080000Y-76200000D03*
X127000000Y-76200000D03*
X38100000Y-101600000D03*
X38100000Y-96520000D03*
X43180000Y-116840000D03*
X43180000Y-111760000D03*
X43180000Y-132080000D03*
X43180000Y-137160000D03*
X93345000Y-119380000D03*
X93345000Y-124460000D03*
X23495000Y-30480000D03*
X23495000Y-25400000D03*
X29210000Y-33020000D03*
X34290000Y-33020000D03*
D17*
X19050000Y-26035000D03*
D18*
X19050000Y-28575000D03*
X114300000Y-76200000D03*
X119380000Y-76200000D03*
X134620000Y-86360000D03*
X134620000Y-81280000D03*
X134620000Y-96520000D03*
X134620000Y-101600000D03*
X114300000Y-116840000D03*
X119380000Y-116840000D03*
X127000000Y-116840000D03*
X121920000Y-116840000D03*
X109220000Y-116840000D03*
X104140000Y-116840000D03*
X93980000Y-101600000D03*
X93980000Y-106680000D03*
X109220000Y-76200000D03*
X104140000Y-76200000D03*
X83820000Y-24130000D03*
X83820000Y-21590000D03*
X83820000Y-29210000D03*
X83820000Y-26670000D03*
X99060000Y-69850000D03*
X99060000Y-74930000D03*
X99060000Y-64770000D03*
X99060000Y-59690000D03*
X99060000Y-49530000D03*
X99060000Y-54610000D03*
X99060000Y-44450000D03*
X99060000Y-39370000D03*
X49530000Y-52070000D03*
D17*
X49530000Y-54610000D03*
X102870000Y-48260000D03*
D18*
X102870000Y-45720000D03*
X102870000Y-66040000D03*
D17*
X102870000Y-68580000D03*
D18*
X40640000Y-17780000D03*
D17*
X40640000Y-20320000D03*
D18*
X51435000Y-20320000D03*
X51435000Y-25400000D03*
X81280000Y-77470000D03*
X76200000Y-77470000D03*
D17*
X46990000Y-26670000D03*
D18*
X46990000Y-24130000D03*
X193820000Y-104160000D03*
X193820000Y-109240000D03*
X193820000Y-68600000D03*
X193820000Y-73680000D03*
X193040000Y-96520000D03*
X193040000Y-91440000D03*
X183794400Y-38354000D03*
X183794400Y-43434000D03*
X191770000Y-49530000D03*
X196850000Y-49530000D03*
D17*
X87630000Y-124460000D03*
D18*
X90170000Y-124460000D03*
X191770000Y-46990000D03*
X196850000Y-46990000D03*
X146480000Y-33020000D03*
X151560000Y-33020000D03*
X154100000Y-33020000D03*
X159180000Y-33020000D03*
X164260000Y-33020000D03*
X169340000Y-33020000D03*
X171880000Y-33020000D03*
X176960000Y-33020000D03*
D10*
X152400000Y-116840000D03*
X152400000Y-121920000D03*
D18*
X170180000Y-60960000D03*
X165100000Y-60960000D03*
X142240000Y-58420000D03*
X137160000Y-58420000D03*
D10*
X127000000Y-53340000D03*
X132080000Y-53340000D03*
D18*
X121920000Y-54610000D03*
D17*
X119380000Y-54610000D03*
D18*
X104140000Y-34290000D03*
X104140000Y-39370000D03*
X109220000Y-39370000D03*
X109220000Y-34290000D03*
X205740000Y-40640000D03*
X200660000Y-40640000D03*
D17*
X203200000Y-33020000D03*
D18*
X205740000Y-33020000D03*
X222000000Y-122040000D03*
D17*
X222000000Y-119500000D03*
X222000000Y-84460000D03*
D18*
X222000000Y-87000000D03*
D21*
X36830000Y-136525000D03*
D17*
X36830000Y-144145000D03*
D22*
X220532200Y-115816848D03*
X220532200Y-91620808D03*
X220532200Y-56620808D03*
X220532200Y-80816848D03*
D14*
X152700000Y-23800000D03*
X155300000Y-23800000D03*
X150600000Y-26300000D03*
X157400000Y-26300000D03*
X150600000Y-23800000D03*
X157400000Y-23800000D03*
D24*
X160750000Y-20800000D03*
X154000000Y-20000000D03*
X147250000Y-20800000D03*
X165250000Y-20800000D03*
X172000000Y-20000000D03*
X178750000Y-20800000D03*
D14*
X175400000Y-23800000D03*
X168600000Y-23800000D03*
X175400000Y-26300000D03*
X168600000Y-26300000D03*
X173300000Y-23800000D03*
X170700000Y-23800000D03*
D25*
X30000000Y-158500000D03*
X30000000Y-154500000D03*
X30000000Y-150500000D03*
X30000000Y-144000000D03*
X30000000Y-140000000D03*
X30000000Y-136000000D03*
X30000000Y-132000000D03*
X212000000Y-159000000D03*
X212000000Y-155000000D03*
X212000000Y-151000000D03*
X212000000Y-147000000D03*
X212000000Y-140500000D03*
X212000000Y-136500000D03*
X212000000Y-132500000D03*
D26*
X222500000Y-30500000D03*
D27*
X217500000Y-33000000D03*
X217500000Y-35500000D03*
X217500000Y-28000000D03*
X217500000Y-25500000D03*
D28*
G36*
X107330000Y-50050602D02*
G01*
X107354534Y-50050602D01*
X107403365Y-50055412D01*
X107451490Y-50064984D01*
X107498445Y-50079228D01*
X107543778Y-50098005D01*
X107587051Y-50121136D01*
X107627850Y-50148396D01*
X107665779Y-50179524D01*
X107700476Y-50214221D01*
X107731604Y-50252150D01*
X107758864Y-50292949D01*
X107781995Y-50336222D01*
X107800772Y-50381555D01*
X107815016Y-50428510D01*
X107824588Y-50476635D01*
X107829398Y-50525466D01*
X107829398Y-50550000D01*
X107830000Y-50550000D01*
X107830000Y-51050000D01*
X107829398Y-51050000D01*
X107829398Y-51074534D01*
X107824588Y-51123365D01*
X107815016Y-51171490D01*
X107800772Y-51218445D01*
X107781995Y-51263778D01*
X107758864Y-51307051D01*
X107731604Y-51347850D01*
X107700476Y-51385779D01*
X107665779Y-51420476D01*
X107627850Y-51451604D01*
X107587051Y-51478864D01*
X107543778Y-51501995D01*
X107498445Y-51520772D01*
X107451490Y-51535016D01*
X107403365Y-51544588D01*
X107354534Y-51549398D01*
X107330000Y-51549398D01*
X107330000Y-51550000D01*
X106830000Y-51550000D01*
X106830000Y-50050000D01*
X107330000Y-50050000D01*
X107330000Y-50050602D01*
G37*
G36*
X106530000Y-51550000D02*
G01*
X106030000Y-51550000D01*
X106030000Y-51549398D01*
X106005466Y-51549398D01*
X105956635Y-51544588D01*
X105908510Y-51535016D01*
X105861555Y-51520772D01*
X105816222Y-51501995D01*
X105772949Y-51478864D01*
X105732150Y-51451604D01*
X105694221Y-51420476D01*
X105659524Y-51385779D01*
X105628396Y-51347850D01*
X105601136Y-51307051D01*
X105578005Y-51263778D01*
X105559228Y-51218445D01*
X105544984Y-51171490D01*
X105535412Y-51123365D01*
X105530602Y-51074534D01*
X105530602Y-51050000D01*
X105530000Y-51050000D01*
X105530000Y-50550000D01*
X105530602Y-50550000D01*
X105530602Y-50525466D01*
X105535412Y-50476635D01*
X105544984Y-50428510D01*
X105559228Y-50381555D01*
X105578005Y-50336222D01*
X105601136Y-50292949D01*
X105628396Y-50252150D01*
X105659524Y-50214221D01*
X105694221Y-50179524D01*
X105732150Y-50148396D01*
X105772949Y-50121136D01*
X105816222Y-50098005D01*
X105861555Y-50079228D01*
X105908510Y-50064984D01*
X105956635Y-50055412D01*
X106005466Y-50050602D01*
X106030000Y-50050602D01*
X106030000Y-50050000D01*
X106530000Y-50050000D01*
X106530000Y-51550000D01*
G37*
D18*
X81280000Y-19050000D03*
X81280000Y-29210000D03*
X207790000Y-121940000D03*
X217950000Y-121940000D03*
X205656400Y-83865400D03*
X215816400Y-83865400D03*
X195580000Y-33655000D03*
X185420000Y-33655000D03*
X198120000Y-43815000D03*
X198120000Y-33655000D03*
X200660000Y-38100000D03*
X210820000Y-38100000D03*
X211523800Y-86837200D03*
X208983800Y-86837200D03*
X206443800Y-86837200D03*
X203903800Y-86837200D03*
X201363800Y-86837200D03*
D17*
X198823800Y-86837200D03*
D18*
X29055060Y-16550640D03*
D29*
X27305000Y-19050000D03*
X35306000Y-19050000D03*
D18*
X33555940Y-16550640D03*
X26670000Y-22860000D03*
X34290000Y-30480000D03*
X29210000Y-22860000D03*
X31750000Y-30480000D03*
X31750000Y-22860000D03*
X29210000Y-30480000D03*
X34290000Y-22860000D03*
D17*
X26670000Y-30480000D03*
D10*
X96520000Y-119380000D03*
X111760000Y-127000000D03*
X99060000Y-119380000D03*
X109220000Y-127000000D03*
X101600000Y-119380000D03*
X106680000Y-127000000D03*
X104140000Y-119380000D03*
X104140000Y-127000000D03*
X106680000Y-119380000D03*
X101600000Y-127000000D03*
X109220000Y-119380000D03*
X99060000Y-127000000D03*
X111760000Y-119380000D03*
D11*
X96520000Y-127000000D03*
X83820000Y-111760000D03*
D10*
X55880000Y-127000000D03*
X81280000Y-111760000D03*
X58420000Y-127000000D03*
X78740000Y-111760000D03*
X60960000Y-127000000D03*
X76200000Y-111760000D03*
X63500000Y-127000000D03*
X73660000Y-111760000D03*
X66040000Y-127000000D03*
X71120000Y-111760000D03*
X68580000Y-127000000D03*
X68580000Y-111760000D03*
X71120000Y-127000000D03*
X66040000Y-111760000D03*
X73660000Y-127000000D03*
X63500000Y-111760000D03*
X76200000Y-127000000D03*
X60960000Y-111760000D03*
X78740000Y-127000000D03*
X58420000Y-111760000D03*
X81280000Y-127000000D03*
X55880000Y-111760000D03*
X83820000Y-127000000D03*
X53340000Y-111760000D03*
X50800000Y-111760000D03*
X48260000Y-111760000D03*
X45720000Y-111760000D03*
X45720000Y-127000000D03*
X48260000Y-127000000D03*
X50800000Y-127000000D03*
X53340000Y-127000000D03*
D11*
X96520000Y-46990000D03*
D10*
X76200000Y-54610000D03*
X93980000Y-46990000D03*
X78740000Y-54610000D03*
X91440000Y-46990000D03*
X81280000Y-54610000D03*
X88900000Y-46990000D03*
X83820000Y-54610000D03*
X86360000Y-46990000D03*
X86360000Y-54610000D03*
X83820000Y-46990000D03*
X88900000Y-54610000D03*
X81280000Y-46990000D03*
X91440000Y-54610000D03*
X78740000Y-46990000D03*
X93980000Y-54610000D03*
X76200000Y-46990000D03*
X96520000Y-54610000D03*
X96520000Y-64770000D03*
X76200000Y-57150000D03*
X93980000Y-64770000D03*
X78740000Y-57150000D03*
X91440000Y-64770000D03*
X81280000Y-57150000D03*
X88900000Y-64770000D03*
X83820000Y-57150000D03*
X86360000Y-64770000D03*
X86360000Y-57150000D03*
X83820000Y-64770000D03*
X88900000Y-57150000D03*
X81280000Y-64770000D03*
X91440000Y-57150000D03*
X78740000Y-64770000D03*
X93980000Y-57150000D03*
X76200000Y-64770000D03*
D11*
X96520000Y-57150000D03*
X96520000Y-36830000D03*
D10*
X76200000Y-44450000D03*
X93980000Y-36830000D03*
X78740000Y-44450000D03*
X91440000Y-36830000D03*
X81280000Y-44450000D03*
X88900000Y-36830000D03*
X83820000Y-44450000D03*
X86360000Y-36830000D03*
X86360000Y-44450000D03*
X83820000Y-36830000D03*
X88900000Y-44450000D03*
X81280000Y-36830000D03*
X91440000Y-44450000D03*
X78740000Y-36830000D03*
X93980000Y-44450000D03*
X76200000Y-36830000D03*
X96520000Y-44450000D03*
D30*
X53975000Y-19431000D03*
X53975000Y-21209000D03*
X53975000Y-22987000D03*
X53975000Y-24765000D03*
X53975000Y-26543000D03*
X53975000Y-28321000D03*
X53975000Y-30099000D03*
X53975000Y-31877000D03*
X53975000Y-33655000D03*
X53975000Y-35433000D03*
X53975000Y-37211000D03*
X53975000Y-38989000D03*
X53975000Y-40767000D03*
X53975000Y-42545000D03*
X53975000Y-44323000D03*
X53975000Y-46101000D03*
X53975000Y-47879000D03*
X53975000Y-49657000D03*
X53975000Y-51435000D03*
X53975000Y-53213000D03*
X53975000Y-54991000D03*
X53975000Y-56769000D03*
X53975000Y-58547000D03*
X53975000Y-60325000D03*
X53975000Y-62103000D03*
X53975000Y-63881000D03*
X53975000Y-65659000D03*
X53975000Y-67437000D03*
X53975000Y-69215000D03*
X53975000Y-70993000D03*
X53975000Y-72771000D03*
X53975000Y-74549000D03*
X73025000Y-19431000D03*
X73025000Y-21209000D03*
X73025000Y-22987000D03*
X73025000Y-24765000D03*
X73025000Y-26543000D03*
X73025000Y-28321000D03*
X73025000Y-30099000D03*
X73025000Y-31877000D03*
X73025000Y-33655000D03*
X73025000Y-35433000D03*
X73025000Y-37211000D03*
X73025000Y-38989000D03*
X73025000Y-40767000D03*
X73025000Y-42545000D03*
X73025000Y-44323000D03*
X73025000Y-46101000D03*
X73025000Y-47879000D03*
X73025000Y-49657000D03*
X73025000Y-51435000D03*
X73025000Y-53213000D03*
X73025000Y-54991000D03*
X73025000Y-56769000D03*
X73025000Y-58547000D03*
X73025000Y-60325000D03*
X73025000Y-62103000D03*
X73025000Y-63881000D03*
X73025000Y-65659000D03*
X73025000Y-67437000D03*
X73025000Y-69215000D03*
X73025000Y-70993000D03*
X73025000Y-72771000D03*
X73025000Y-74549000D03*
D10*
X180340000Y-111760000D03*
X187960000Y-88900000D03*
X180340000Y-109220000D03*
X187960000Y-91440000D03*
X180340000Y-106680000D03*
X187960000Y-93980000D03*
X180340000Y-104140000D03*
X187960000Y-96520000D03*
X180340000Y-101600000D03*
X187960000Y-99060000D03*
X180340000Y-99060000D03*
X187960000Y-101600000D03*
X180340000Y-96520000D03*
X187960000Y-104140000D03*
X180340000Y-93980000D03*
X187960000Y-106680000D03*
X180340000Y-91440000D03*
X187960000Y-109220000D03*
X180340000Y-88900000D03*
D11*
X187960000Y-111760000D03*
D10*
X170180000Y-63500000D03*
X154940000Y-111760000D03*
X170180000Y-66040000D03*
X154940000Y-109220000D03*
X170180000Y-68580000D03*
X154940000Y-106680000D03*
X170180000Y-71120000D03*
X154940000Y-104140000D03*
X170180000Y-73660000D03*
X154940000Y-101600000D03*
X170180000Y-76200000D03*
X154940000Y-99060000D03*
X170180000Y-78740000D03*
X154940000Y-96520000D03*
X170180000Y-81280000D03*
X154940000Y-93980000D03*
X170180000Y-83820000D03*
X154940000Y-91440000D03*
X170180000Y-86360000D03*
X154940000Y-88900000D03*
X170180000Y-88900000D03*
X154940000Y-86360000D03*
X170180000Y-91440000D03*
X154940000Y-83820000D03*
X170180000Y-93980000D03*
X154940000Y-81280000D03*
X170180000Y-96520000D03*
X154940000Y-78740000D03*
X170180000Y-99060000D03*
X154940000Y-76200000D03*
X170180000Y-101600000D03*
X154940000Y-73660000D03*
X170180000Y-104140000D03*
X154940000Y-71120000D03*
X170180000Y-106680000D03*
X154940000Y-68580000D03*
X170180000Y-109220000D03*
X154940000Y-66040000D03*
X170180000Y-111760000D03*
D11*
X154940000Y-63500000D03*
D10*
X109220000Y-50800000D03*
X116840000Y-43180000D03*
X109220000Y-48260000D03*
X116840000Y-45720000D03*
X109220000Y-45720000D03*
X116840000Y-48260000D03*
X109220000Y-43180000D03*
X116840000Y-50800000D03*
X132080000Y-50800000D03*
X124460000Y-43180000D03*
X132080000Y-48260000D03*
X124460000Y-45720000D03*
X132080000Y-45720000D03*
X124460000Y-48260000D03*
X132080000Y-43180000D03*
X124460000Y-50800000D03*
D17*
X200660000Y-43180000D03*
D18*
X208280000Y-50800000D03*
X200660000Y-45720000D03*
X208280000Y-48260000D03*
X200660000Y-48260000D03*
X208280000Y-45720000D03*
X200660000Y-50800000D03*
X208280000Y-43180000D03*
X77470000Y-26670000D03*
X77470000Y-21590000D03*
D10*
X53340000Y-147320000D03*
X50800000Y-147320000D03*
X48260000Y-147320000D03*
X45720000Y-147320000D03*
X45720000Y-132080000D03*
X48260000Y-132080000D03*
X50800000Y-132080000D03*
X53340000Y-132080000D03*
X83820000Y-147320000D03*
X55880000Y-132080000D03*
X81280000Y-147320000D03*
X58420000Y-132080000D03*
X78740000Y-147320000D03*
X60960000Y-132080000D03*
X76200000Y-147320000D03*
X63500000Y-132080000D03*
X73660000Y-147320000D03*
X66040000Y-132080000D03*
X71120000Y-147320000D03*
X68580000Y-132080000D03*
X68580000Y-147320000D03*
X71120000Y-132080000D03*
X66040000Y-147320000D03*
X73660000Y-132080000D03*
X63500000Y-147320000D03*
X76200000Y-132080000D03*
X60960000Y-147320000D03*
X78740000Y-132080000D03*
X58420000Y-147320000D03*
X81280000Y-132080000D03*
X55880000Y-147320000D03*
D11*
X83820000Y-132080000D03*
D17*
X93980000Y-34290000D03*
D21*
X91440000Y-34290000D03*
X88900000Y-34290000D03*
X86360000Y-34290000D03*
X83820000Y-34290000D03*
X81280000Y-34290000D03*
X78740000Y-34290000D03*
X76200000Y-34290000D03*
D18*
X190500000Y-86360000D03*
X190500000Y-83820000D03*
X190500000Y-81280000D03*
X190500000Y-78740000D03*
X190500000Y-76200000D03*
X190500000Y-73660000D03*
X190500000Y-71120000D03*
X190500000Y-68580000D03*
X190500000Y-66040000D03*
D17*
X190500000Y-63500000D03*
X40640000Y-26670000D03*
D18*
X40640000Y-24130000D03*
X46990000Y-17780000D03*
D17*
X46990000Y-20320000D03*
D31*
X45720000Y-62230000D03*
D32*
X40640000Y-62230000D03*
X43180000Y-62230000D03*
X43180000Y-67470000D03*
X40640000Y-67470000D03*
D31*
X45720000Y-67470000D03*
D32*
X43180000Y-57150000D03*
X40640000Y-57150000D03*
D31*
X45720000Y-57150000D03*
X45720000Y-52070000D03*
D32*
X40640000Y-52070000D03*
X43180000Y-52070000D03*
D17*
X36830000Y-152400000D03*
D18*
X36830000Y-149860000D03*
X45720000Y-157480000D03*
X45720000Y-152400000D03*
X96520000Y-132080000D03*
X99060000Y-132080000D03*
X101600000Y-132080000D03*
X104140000Y-132080000D03*
X106680000Y-132080000D03*
X109220000Y-132080000D03*
X111760000Y-132080000D03*
X114300000Y-132080000D03*
X116840000Y-132080000D03*
D17*
X119380000Y-132080000D03*
D18*
X101600000Y-160020000D03*
X106680000Y-160020000D03*
X91440000Y-147320000D03*
X91440000Y-142240000D03*
X119380000Y-135890000D03*
X119380000Y-140970000D03*
X119380000Y-144780000D03*
X119380000Y-149860000D03*
D33*
X127000000Y-139700000D03*
X124460000Y-139700000D03*
X124460000Y-142240000D03*
X127000000Y-142240000D03*
X127000000Y-149860000D03*
X124460000Y-149860000D03*
X127000000Y-147320000D03*
X124460000Y-147320000D03*
X127000000Y-144780000D03*
X124460000Y-144780000D03*
D34*
X40640000Y-38260000D03*
D35*
X40640000Y-35720000D03*
X45720000Y-45880000D03*
D34*
X45720000Y-48420000D03*
X43180000Y-48420000D03*
D35*
X43180000Y-45880000D03*
X40640000Y-45880000D03*
D34*
X40640000Y-48420000D03*
X45720000Y-38260000D03*
D35*
X45720000Y-35720000D03*
D34*
X45720000Y-43340000D03*
D35*
X45720000Y-40800000D03*
X43180000Y-40800000D03*
D34*
X43180000Y-43340000D03*
X43180000Y-38260000D03*
D35*
X43180000Y-35720000D03*
X40640000Y-40800000D03*
D34*
X40640000Y-43340000D03*
X45720000Y-33180000D03*
D35*
X45720000Y-30640000D03*
X43180000Y-30640000D03*
D34*
X43180000Y-33180000D03*
X40640000Y-33180000D03*
D35*
X40640000Y-30640000D03*
D17*
X189230000Y-59690000D03*
D18*
X189230000Y-57150000D03*
X185420000Y-60960000D03*
X180340000Y-60960000D03*
D17*
X176530000Y-62230000D03*
D18*
X176530000Y-59690000D03*
D36*
X180340000Y-63500000D03*
X182880000Y-63500000D03*
D37*
X185420000Y-63500000D03*
D16*
X182880000Y-80160000D03*
D18*
X152400000Y-106680000D03*
X152400000Y-111760000D03*
X172720000Y-86360000D03*
X172720000Y-83820000D03*
D38*
X172720000Y-81280000D03*
X172720000Y-78740000D03*
D18*
X172720000Y-76200000D03*
X172720000Y-73660000D03*
X172720000Y-71120000D03*
X172720000Y-68580000D03*
X172720000Y-66040000D03*
D17*
X172720000Y-63500000D03*
D18*
X48260000Y-30480000D03*
X48260000Y-40640000D03*
D12*
X88900000Y-104775000D03*
X86360000Y-104775000D03*
X83820000Y-104775000D03*
X81280000Y-104775000D03*
X78740000Y-104775000D03*
X76200000Y-104775000D03*
X73660000Y-104775000D03*
X71120000Y-104775000D03*
X68580000Y-104775000D03*
X66040000Y-104775000D03*
X63500000Y-104775000D03*
X60960000Y-104775000D03*
X58420000Y-104775000D03*
X55880000Y-104775000D03*
X53340000Y-104775000D03*
X50800000Y-104775000D03*
X48260000Y-104775000D03*
X45720000Y-104775000D03*
X43180000Y-104775000D03*
D13*
X40640000Y-104775000D03*
X40640000Y-82550000D03*
D12*
X43180000Y-82550000D03*
X45720000Y-82550000D03*
X48260000Y-82550000D03*
X50800000Y-82550000D03*
X53340000Y-82550000D03*
X55880000Y-82550000D03*
X58420000Y-82550000D03*
X60960000Y-82550000D03*
X63500000Y-82550000D03*
X66040000Y-82550000D03*
X68580000Y-82550000D03*
X71120000Y-82550000D03*
X73660000Y-82550000D03*
X76200000Y-82550000D03*
X78740000Y-82550000D03*
X81280000Y-82550000D03*
X83820000Y-82550000D03*
X86360000Y-82550000D03*
X88900000Y-82550000D03*
D33*
X88900000Y-147320000D03*
X88900000Y-144780000D03*
X88900000Y-142240000D03*
X88900000Y-139700000D03*
X88900000Y-137160000D03*
X50800000Y-35560000D03*
X50800000Y-27940000D03*
X176530000Y-73660000D03*
X176530000Y-76200000D03*
X50800000Y-62230000D03*
X193040000Y-83820000D03*
X193040000Y-81280000D03*
X35560000Y-132080000D03*
D10*
X114300000Y-139700000D03*
X114300000Y-142240000D03*
X114300000Y-144780000D03*
X114300000Y-147320000D03*
X114300000Y-149860000D03*
X114300000Y-152400000D03*
X111760000Y-137160000D03*
X111760000Y-142240000D03*
X111760000Y-144780000D03*
X111760000Y-147320000D03*
X111760000Y-149860000D03*
X111760000Y-154940000D03*
X109220000Y-154940000D03*
X106680000Y-154940000D03*
X104140000Y-154940000D03*
X101600000Y-154940000D03*
X99060000Y-154940000D03*
X111760000Y-152400000D03*
X109220000Y-152400000D03*
X106680000Y-152400000D03*
X104140000Y-152400000D03*
X101600000Y-152400000D03*
X99060000Y-152400000D03*
X96520000Y-152400000D03*
X96520000Y-149860000D03*
X96520000Y-147320000D03*
X96520000Y-144780000D03*
X96520000Y-142240000D03*
X96520000Y-139700000D03*
X99060000Y-149860000D03*
X99060000Y-147320000D03*
X99060000Y-144780000D03*
X99060000Y-142240000D03*
X99060000Y-139700000D03*
X111760000Y-137160000D03*
X109220000Y-137160000D03*
X106680000Y-137160000D03*
X99060000Y-137160000D03*
X101600000Y-137160000D03*
X104140000Y-137160000D03*
X114300000Y-139700000D03*
X111760000Y-139700000D03*
X109220000Y-139700000D03*
X101600000Y-139700000D03*
X104140000Y-139700000D03*
X106680000Y-139700000D03*
D32*
X114300000Y-36830000D03*
X114300000Y-34290000D03*
D31*
X114300000Y-39370000D03*
D18*
X128270000Y-36830000D03*
X118110000Y-36830000D03*
X128270000Y-39370000D03*
X118110000Y-39370000D03*
X128270000Y-34290000D03*
X118110000Y-34290000D03*
D28*
G36*
X99885402Y-35113200D02*
G01*
X99885402Y-35088666D01*
X99890212Y-35039835D01*
X99899784Y-34991710D01*
X99914028Y-34944755D01*
X99932805Y-34899422D01*
X99955936Y-34856149D01*
X99983196Y-34815350D01*
X100014324Y-34777421D01*
X100049021Y-34742724D01*
X100086950Y-34711596D01*
X100127749Y-34684336D01*
X100171022Y-34661205D01*
X100216355Y-34642428D01*
X100263310Y-34628184D01*
X100311435Y-34618612D01*
X100360266Y-34613802D01*
X100384800Y-34613802D01*
X100384800Y-34613200D01*
X100884800Y-34613200D01*
X100884800Y-34613802D01*
X100909334Y-34613802D01*
X100958165Y-34618612D01*
X101006290Y-34628184D01*
X101053245Y-34642428D01*
X101098578Y-34661205D01*
X101141851Y-34684336D01*
X101182650Y-34711596D01*
X101220579Y-34742724D01*
X101255276Y-34777421D01*
X101286404Y-34815350D01*
X101313664Y-34856149D01*
X101336795Y-34899422D01*
X101355572Y-34944755D01*
X101369816Y-34991710D01*
X101379388Y-35039835D01*
X101384198Y-35088666D01*
X101384198Y-35113200D01*
X101384800Y-35113200D01*
X101384800Y-35613200D01*
X99884800Y-35613200D01*
X99884800Y-35113200D01*
X99885402Y-35113200D01*
G37*
G36*
X101384800Y-35913200D02*
G01*
X101384800Y-36413200D01*
X101384198Y-36413200D01*
X101384198Y-36437734D01*
X101379388Y-36486565D01*
X101369816Y-36534690D01*
X101355572Y-36581645D01*
X101336795Y-36626978D01*
X101313664Y-36670251D01*
X101286404Y-36711050D01*
X101255276Y-36748979D01*
X101220579Y-36783676D01*
X101182650Y-36814804D01*
X101141851Y-36842064D01*
X101098578Y-36865195D01*
X101053245Y-36883972D01*
X101006290Y-36898216D01*
X100958165Y-36907788D01*
X100909334Y-36912598D01*
X100884800Y-36912598D01*
X100884800Y-36913200D01*
X100384800Y-36913200D01*
X100384800Y-36912598D01*
X100360266Y-36912598D01*
X100311435Y-36907788D01*
X100263310Y-36898216D01*
X100216355Y-36883972D01*
X100171022Y-36865195D01*
X100127749Y-36842064D01*
X100086950Y-36814804D01*
X100049021Y-36783676D01*
X100014324Y-36748979D01*
X99983196Y-36711050D01*
X99955936Y-36670251D01*
X99932805Y-36626978D01*
X99914028Y-36581645D01*
X99899784Y-36534690D01*
X99890212Y-36486565D01*
X99885402Y-36437734D01*
X99885402Y-36413200D01*
X99884800Y-36413200D01*
X99884800Y-35913200D01*
X101384800Y-35913200D01*
G37*
D18*
X119380000Y-160020000D03*
X129540000Y-160020000D03*
X48260000Y-67470000D03*
X48260000Y-57310000D03*
D39*
X212719000Y-19661600D03*
X206919000Y-19661600D03*
D40*
X212544000Y-17111600D03*
X207094000Y-17111600D03*
D41*
X209854800Y-23317200D03*
X209854800Y-29413200D03*
D42*
X204774800Y-25603200D03*
D18*
X193540000Y-30400000D03*
X191000000Y-30400000D03*
X191000000Y-28401020D03*
X193540000Y-28401020D03*
D43*
X198269480Y-25701000D03*
X186270520Y-25701000D03*
D14*
X35560000Y-54610000D03*
D17*
X132080000Y-139700000D03*
D21*
X132080000Y-142240000D03*
X132080000Y-144780000D03*
X132080000Y-147320000D03*
X132080000Y-149860000D03*
G36*
G01*
X141390000Y-119980000D02*
X141390000Y-118780000D01*
G75*
G02*
X141640000Y-118530000I250000J0D01*
G01*
X142840000Y-118530000D01*
G75*
G02*
X143090000Y-118780000I0J-250000D01*
G01*
X143090000Y-119980000D01*
G75*
G02*
X142840000Y-120230000I-250000J0D01*
G01*
X141640000Y-120230000D01*
G75*
G02*
X141390000Y-119980000I0J250000D01*
G01*
G37*
D14*
X142240000Y-121920000D03*
X142240000Y-124460000D03*
X144780000Y-119380000D03*
X144780000Y-121920000D03*
X144780000Y-124460000D03*
M02*
