M48
; DRILL file {KiCad 5.1.9} date Tue Apr 27 01:06:16 2021
; FORMAT={-:-/ absolute / metric / decimal}
; #@! TF.CreationDate,2021-04-27T01:06:16+02:00
; #@! TF.GenerationSoftware,Kicad,Pcbnew,5.1.9
; #@! TF.FileFunction,Plated,1,2,PTH
FMAT,2
METRIC
T1C0.450
T2C0.600
T3C0.700
T4C0.800
T5C1.000
T6C1.100
T7C1.300
T8C1.500
T9C1.600
T10C2.300
T11C2.800
T12C3.500
%
G90
G05
T1
X21.133Y-101.936
X22.362Y-103.165
X22.379Y-99.897
X22.785Y-94.916
X23.401Y-99.092
X28.651Y-49.022
X29.921Y-50.292
X30.268Y-93.497
X30.328Y-94.699
X31.115Y-91.796
X32.508Y-90.961
X32.664Y-92.57
X33.057Y-83.491
X33.28Y-90.037
X33.839Y-82.577
X33.871Y-76.947
X34.392Y-89.578
X34.798Y-105.156
X34.81Y-50.394
X35.485Y-90.081
X35.712Y-77.31
X36.779Y-34.341
X40.089Y-127.61
X41.656Y-149.2
X43.653Y-87.791
X44.702Y-134.536
X47.231Y-89.502
X49.691Y-89.908
X51.295Y-90.932
X52.616Y-89.861
X54.225Y-90.018
X55.982Y-90.322
X58.332Y-78.152
X59.289Y-90.114
X60.865Y-77.716
X61.061Y-107.958
X61.073Y-73.395
X61.118Y-70.384
X62.281Y-93.154
X62.683Y-73.17
X64.439Y-155.321
X64.745Y-107.958
X64.872Y-89.967
X67.335Y-107.848
X70.739Y-107.544
X73.978Y-43.434
X75.057Y-105.918
X76.737Y-158.561
X76.91Y-144.636
X77.216Y-117.45
X77.56Y-92.159
X77.723Y-141.631
X77.93Y-39.513
X78.74Y-40.843
X79.35Y-142.908
X80.238Y-128.144
X80.264Y-136.042
X80.546Y-92.159
X81.305Y-96.545
X82.347Y-142.037
X83.658Y-119.896
X83.845Y-98.273
X84.176Y-137.16
X85.289Y-121.217
X86.258Y-112.014
X86.36Y-99.009
X86.825Y-149.551
X87.02Y-130.2
X90.729Y-120.294
X90.825Y-90.534
X91.796Y-119.329
X92.659Y-90.94
X94.234Y-82.804
X94.234Y-89.205
X95.359Y-159.504
X96.922Y-159.098
X98.171Y-160.274
X98.838Y-159.098
X99.585Y-160.041
X100.22Y-161.063
X102.87Y-144.399
X103.632Y-147.447
X105.283Y-69.85
X107.423Y-157.649
X107.569Y-141.986
X108.839Y-146.177
X109.22Y-156.939
X110.338Y-78.74
X110.413Y-157.097
X110.744Y-158.344
X111.481Y-117.881
X111.701Y-159.596
X111.709Y-94.234
X113.014Y-88.002
X113.665Y-60.96
X115.463Y-73.744
X115.617Y-130.428
X115.672Y-114.351
X115.824Y-94.64
X119.431Y-151.435
X119.532Y-77.775
X119.554Y-120.979
X120.075Y-123.401
X121.601Y-123.049
X122.079Y-126.477
X122.461Y-127.618
X123.038Y-72.949
X123.944Y-92.783
X124.608Y-120.82
X124.663Y-98.806
X125.171Y-121.883
X125.324Y-96.418
X125.492Y-80.012
X126.374Y-121.867
X126.676Y-79.793
X128.098Y-78.224
X128.55Y-128.024
X128.698Y-160.917
X130.454Y-134.671
X130.839Y-97.884
X132.74Y-111.709
X134.163Y-45.466
X134.214Y-35.611
X135.534Y-72.187
X136.042Y-57.81
X137.234Y-97.239
X137.414Y-116.434
X139.344Y-98.857
X139.548Y-87.63
X140.835Y-85.654
X142.596Y-99.103
X142.707Y-68.621
X142.799Y-100.635
X142.799Y-116.891
X143.257Y-88.587
X144.069Y-131.572
X144.447Y-95.715
X144.757Y-100.175
X145.296Y-80.318
X145.398Y-84.72
X145.558Y-131.217
X146.017Y-159.21
X146.152Y-157.937
X147.038Y-86.367
X147.797Y-97.404
X147.93Y-74.676
X148.082Y-128.829
X148.485Y-100.365
X149.853Y-120.026
X150.571Y-118.821
X151.63Y-89.989
X151.765Y-111.76
X153.334Y-88.716
X158.039Y-69.748
X158.746Y-39.21
X160.934Y-85.344
X162.458Y-42.867
X163.982Y-62.535
X164.033Y-68.834
X166.37Y-37.998
X167.132Y-151.384
X168.148Y-152.349
X168.91Y-30.226
X171.247Y-62.382
X174.752Y-154.889
X175.158Y-80.721
X175.481Y-45.097
X176.479Y-130.251
X177.089Y-101.194
X177.241Y-90.526
X177.699Y-41.403
X177.8Y-78.74
X178.308Y-46.33
X179.121Y-41.554
X180.562Y-39.496
X181.496Y-37.607
X181.966Y-122.936
X182.932Y-39.074
X183.39Y-37.188
X183.918Y-38.268
X184.15Y-42.621
X184.201Y-44.298
X184.978Y-87.412
X186.487Y-115.621
X186.69Y-74.778
X189.128Y-38.354
X191.008Y-92.761
X191.357Y-93.912
X194.208Y-116.891
X195.678Y-42.67
X195.678Y-40.725
X195.732Y-39.421
X195.885Y-24.536
X197.764Y-76.708
X197.815Y-78.486
X202.469Y-89.489
X205.08Y-88.595
X222.199Y-112.42
T3
X40.64Y-30.64
X40.64Y-33.18
X40.64Y-35.72
X40.64Y-38.26
X40.64Y-40.8
X40.64Y-43.34
X40.64Y-45.88
X40.64Y-48.42
X43.18Y-30.64
X43.18Y-33.18
X43.18Y-35.72
X43.18Y-38.26
X43.18Y-40.8
X43.18Y-43.34
X43.18Y-45.88
X43.18Y-48.42
X45.72Y-30.64
X45.72Y-33.18
X45.72Y-35.72
X45.72Y-38.26
X45.72Y-40.8
X45.72Y-43.34
X45.72Y-45.88
X45.72Y-48.42
X53.975Y-19.431
X53.975Y-21.209
X53.975Y-22.987
X53.975Y-24.765
X53.975Y-26.543
X53.975Y-28.321
X53.975Y-30.099
X53.975Y-31.877
X53.975Y-33.655
X53.975Y-35.433
X53.975Y-37.211
X53.975Y-38.989
X53.975Y-40.767
X53.975Y-42.545
X53.975Y-44.323
X53.975Y-46.101
X53.975Y-47.879
X53.975Y-49.657
X53.975Y-51.435
X53.975Y-53.213
X53.975Y-54.991
X53.975Y-56.769
X53.975Y-58.547
X53.975Y-60.325
X53.975Y-62.103
X53.975Y-63.881
X53.975Y-65.659
X53.975Y-67.437
X53.975Y-69.215
X53.975Y-70.993
X53.975Y-72.771
X53.975Y-74.549
X73.025Y-19.431
X73.025Y-21.209
X73.025Y-22.987
X73.025Y-24.765
X73.025Y-26.543
X73.025Y-28.321
X73.025Y-30.099
X73.025Y-31.877
X73.025Y-33.655
X73.025Y-35.433
X73.025Y-37.211
X73.025Y-38.989
X73.025Y-40.767
X73.025Y-42.545
X73.025Y-44.323
X73.025Y-46.101
X73.025Y-47.879
X73.025Y-49.657
X73.025Y-51.435
X73.025Y-53.213
X73.025Y-54.991
X73.025Y-56.769
X73.025Y-58.547
X73.025Y-60.325
X73.025Y-62.103
X73.025Y-63.881
X73.025Y-65.659
X73.025Y-67.437
X73.025Y-69.215
X73.025Y-70.993
X73.025Y-72.771
X73.025Y-74.549
T4
X19.05Y-26.035
X19.05Y-28.575
X21.1Y-38.9
X21.1Y-41.44
X21.1Y-43.98
X21.1Y-46.52
X21.1Y-49.06
X21.1Y-51.6
X21.1Y-54.14
X21.1Y-56.68
X21.1Y-59.22
X21.1Y-61.76
X21.1Y-64.3
X21.1Y-66.84
X21.1Y-69.38
X21.1Y-71.92
X21.1Y-74.46
X21.1Y-77.0
X23.495Y-25.4
X23.495Y-30.48
X23.64Y-38.9
X23.64Y-41.44
X23.64Y-43.98
X23.64Y-46.52
X23.64Y-49.06
X23.64Y-51.6
X23.64Y-54.14
X23.64Y-56.68
X23.64Y-59.22
X23.64Y-61.76
X23.64Y-64.3
X23.64Y-66.84
X23.64Y-69.38
X23.64Y-71.92
X23.64Y-74.46
X23.64Y-77.0
X26.18Y-38.9
X26.18Y-41.44
X26.18Y-43.98
X26.18Y-46.52
X26.18Y-49.06
X26.18Y-51.6
X26.18Y-54.14
X26.18Y-56.68
X26.18Y-59.22
X26.18Y-61.76
X26.18Y-64.3
X26.18Y-66.84
X26.18Y-69.38
X26.18Y-71.92
X26.18Y-74.46
X26.18Y-77.0
X26.67Y-22.86
X26.67Y-30.48
X26.916Y-101.323
X29.21Y-22.86
X29.21Y-30.48
X29.21Y-33.02
X31.75Y-22.86
X31.75Y-30.48
X34.29Y-22.86
X34.29Y-30.48
X34.29Y-33.02
X35.56Y-53.34
X35.56Y-63.5
X36.83Y-136.525
X36.83Y-144.145
X36.83Y-149.86
X36.83Y-152.4
X38.1Y-96.52
X38.1Y-101.6
X39.37Y-136.525
X39.37Y-144.145
X40.64Y-17.78
X40.64Y-20.32
X40.64Y-24.13
X40.64Y-26.67
X40.64Y-52.07
X40.64Y-57.15
X40.64Y-62.23
X40.64Y-67.47
X40.64Y-86.36
X40.64Y-101.6
X43.18Y-52.07
X43.18Y-57.15
X43.18Y-62.23
X43.18Y-67.47
X43.18Y-86.36
X43.18Y-101.6
X43.18Y-111.76
X43.18Y-116.84
X43.18Y-132.08
X43.18Y-137.16
X45.72Y-52.07
X45.72Y-57.15
X45.72Y-62.23
X45.72Y-67.47
X45.72Y-86.36
X45.72Y-101.6
X45.72Y-111.76
X45.72Y-127.0
X45.72Y-132.08
X45.72Y-147.32
X45.72Y-152.4
X45.72Y-157.48
X46.99Y-17.78
X46.99Y-20.32
X46.99Y-24.13
X46.99Y-26.67
X48.26Y-30.48
X48.26Y-40.64
X48.26Y-86.36
X48.26Y-101.6
X48.26Y-111.76
X48.26Y-127.0
X48.26Y-132.08
X48.26Y-147.32
X48.26Y-152.4
X48.26Y-160.02
X49.53Y-52.07
X49.53Y-54.61
X50.8Y-86.36
X50.8Y-101.6
X50.8Y-111.76
X50.8Y-127.0
X50.8Y-132.08
X50.8Y-147.32
X50.8Y-152.4
X50.8Y-160.02
X51.435Y-20.32
X51.435Y-25.4
X53.34Y-86.36
X53.34Y-101.6
X53.34Y-111.76
X53.34Y-127.0
X53.34Y-132.08
X53.34Y-147.32
X53.34Y-152.4
X53.34Y-160.02
X55.88Y-86.36
X55.88Y-101.6
X55.88Y-111.76
X55.88Y-127.0
X55.88Y-132.08
X55.88Y-147.32
X55.88Y-152.4
X55.88Y-160.02
X58.42Y-86.36
X58.42Y-101.6
X58.42Y-111.76
X58.42Y-127.0
X58.42Y-132.08
X58.42Y-147.32
X58.42Y-152.4
X58.42Y-160.02
X60.96Y-86.36
X60.96Y-101.6
X60.96Y-111.76
X60.96Y-127.0
X60.96Y-132.08
X60.96Y-147.32
X60.96Y-152.4
X60.96Y-160.02
X63.5Y-86.36
X63.5Y-101.6
X63.5Y-111.76
X63.5Y-127.0
X63.5Y-132.08
X63.5Y-147.32
X63.5Y-152.4
X63.5Y-160.02
X66.04Y-86.36
X66.04Y-101.6
X66.04Y-111.76
X66.04Y-127.0
X66.04Y-132.08
X66.04Y-147.32
X66.04Y-152.4
X66.04Y-160.02
X68.58Y-86.36
X68.58Y-101.6
X68.58Y-111.76
X68.58Y-127.0
X68.58Y-132.08
X68.58Y-147.32
X68.58Y-152.4
X68.58Y-160.02
X71.12Y-86.36
X71.12Y-101.6
X71.12Y-111.76
X71.12Y-127.0
X71.12Y-132.08
X71.12Y-147.32
X73.66Y-86.36
X73.66Y-101.6
X73.66Y-111.76
X73.66Y-127.0
X73.66Y-132.08
X73.66Y-147.32
X76.2Y-34.29
X76.2Y-36.83
X76.2Y-44.45
X76.2Y-46.99
X76.2Y-54.61
X76.2Y-57.15
X76.2Y-64.77
X76.2Y-67.31
X76.2Y-74.93
X76.2Y-77.47
X76.2Y-86.36
X76.2Y-101.6
X76.2Y-111.76
X76.2Y-127.0
X76.2Y-132.08
X76.2Y-147.32
X77.47Y-21.59
X77.47Y-26.67
X78.74Y-34.29
X78.74Y-36.83
X78.74Y-44.45
X78.74Y-46.99
X78.74Y-54.61
X78.74Y-57.15
X78.74Y-64.77
X78.74Y-67.31
X78.74Y-74.93
X78.74Y-86.36
X78.74Y-101.6
X78.74Y-111.76
X78.74Y-127.0
X78.74Y-132.08
X78.74Y-147.32
X81.28Y-19.05
X81.28Y-29.21
X81.28Y-34.29
X81.28Y-36.83
X81.28Y-44.45
X81.28Y-46.99
X81.28Y-54.61
X81.28Y-57.15
X81.28Y-64.77
X81.28Y-67.31
X81.28Y-74.93
X81.28Y-77.47
X81.28Y-86.36
X81.28Y-101.6
X81.28Y-111.76
X81.28Y-127.0
X81.28Y-132.08
X81.28Y-147.32
X83.82Y-21.59
X83.82Y-24.13
X83.82Y-26.67
X83.82Y-29.21
X83.82Y-34.29
X83.82Y-36.83
X83.82Y-44.45
X83.82Y-46.99
X83.82Y-54.61
X83.82Y-57.15
X83.82Y-64.77
X83.82Y-67.31
X83.82Y-74.93
X83.82Y-86.36
X83.82Y-101.6
X83.82Y-111.76
X83.82Y-127.0
X83.82Y-132.08
X83.82Y-147.32
X86.36Y-34.29
X86.36Y-36.83
X86.36Y-44.45
X86.36Y-46.99
X86.36Y-54.61
X86.36Y-57.15
X86.36Y-64.77
X86.36Y-67.31
X86.36Y-74.93
X86.36Y-86.36
X86.36Y-101.6
X87.63Y-124.46
X88.9Y-34.29
X88.9Y-36.83
X88.9Y-44.45
X88.9Y-46.99
X88.9Y-54.61
X88.9Y-57.15
X88.9Y-64.77
X88.9Y-67.31
X88.9Y-74.93
X88.9Y-86.36
X88.9Y-101.6
X90.17Y-124.46
X91.44Y-34.29
X91.44Y-36.83
X91.44Y-44.45
X91.44Y-46.99
X91.44Y-54.61
X91.44Y-57.15
X91.44Y-64.77
X91.44Y-67.31
X91.44Y-74.93
X91.44Y-142.24
X91.44Y-147.32
X93.345Y-119.38
X93.345Y-124.46
X93.98Y-34.29
X93.98Y-36.83
X93.98Y-44.45
X93.98Y-46.99
X93.98Y-54.61
X93.98Y-57.15
X93.98Y-64.77
X93.98Y-67.31
X93.98Y-74.93
X93.98Y-101.6
X93.98Y-106.68
X96.52Y-36.83
X96.52Y-44.45
X96.52Y-46.99
X96.52Y-54.61
X96.52Y-57.15
X96.52Y-64.77
X96.52Y-67.31
X96.52Y-74.93
X96.52Y-119.38
X96.52Y-127.0
X96.52Y-132.08
X99.06Y-39.37
X99.06Y-44.45
X99.06Y-49.53
X99.06Y-54.61
X99.06Y-59.69
X99.06Y-64.77
X99.06Y-69.85
X99.06Y-74.93
X99.06Y-119.38
X99.06Y-127.0
X99.06Y-132.08
X101.6Y-119.38
X101.6Y-127.0
X101.6Y-132.08
X101.6Y-160.02
X102.87Y-45.72
X102.87Y-48.26
X102.87Y-66.04
X102.87Y-68.58
X104.14Y-76.2
X104.14Y-116.84
X104.14Y-119.38
X104.14Y-127.0
X104.14Y-132.08
X106.68Y-35.56
X106.68Y-40.64
X106.68Y-119.38
X106.68Y-127.0
X106.68Y-132.08
X106.68Y-160.02
X109.22Y-35.56
X109.22Y-40.64
X109.22Y-43.18
X109.22Y-45.72
X109.22Y-48.26
X109.22Y-50.8
X109.22Y-76.2
X109.22Y-116.84
X109.22Y-119.38
X109.22Y-127.0
X109.22Y-132.08
X111.76Y-119.38
X111.76Y-127.0
X111.76Y-132.08
X114.3Y-76.2
X114.3Y-116.84
X114.3Y-132.08
X116.84Y-43.18
X116.84Y-45.72
X116.84Y-48.26
X116.84Y-50.8
X116.84Y-63.5
X116.84Y-71.12
X116.84Y-132.08
X119.38Y-63.5
X119.38Y-71.12
X119.38Y-76.2
X119.38Y-116.84
X119.38Y-132.08
X119.38Y-135.89
X119.38Y-140.97
X119.38Y-144.78
X119.38Y-149.86
X120.65Y-45.72
X120.65Y-48.26
X121.92Y-63.5
X121.92Y-71.12
X121.92Y-116.84
X124.46Y-43.18
X124.46Y-45.72
X124.46Y-48.26
X124.46Y-50.8
X124.46Y-63.5
X124.46Y-71.12
X127.0Y-53.34
X127.0Y-63.5
X127.0Y-71.12
X127.0Y-74.93
X127.0Y-116.84
X129.54Y-63.5
X129.54Y-71.12
X130.81Y-34.29
X132.08Y-43.18
X132.08Y-45.72
X132.08Y-48.26
X132.08Y-50.8
X132.08Y-53.34
X132.08Y-63.5
X132.08Y-71.12
X132.08Y-74.93
X134.62Y-50.8
X134.62Y-55.88
X134.62Y-81.28
X134.62Y-86.36
X134.62Y-96.52
X134.62Y-101.6
X137.16Y-40.64
X137.16Y-55.88
X139.7Y-40.64
X139.7Y-55.88
X140.97Y-34.29
X142.24Y-40.64
X142.24Y-55.88
X144.78Y-40.64
X144.78Y-55.88
X147.32Y-20.32
X147.32Y-22.86
X147.32Y-25.4
X147.32Y-27.94
X147.32Y-30.48
X147.32Y-33.02
X147.32Y-35.56
X147.32Y-40.64
X147.32Y-55.88
X149.86Y-17.78
X149.86Y-40.64
X149.86Y-55.88
X152.4Y-40.64
X152.4Y-55.88
X154.94Y-17.78
X154.94Y-20.32
X154.94Y-22.86
X154.94Y-25.4
X154.94Y-27.94
X154.94Y-30.48
X154.94Y-33.02
X154.94Y-35.56
X154.94Y-40.64
X154.94Y-55.88
X154.94Y-63.5
X154.94Y-66.04
X154.94Y-68.58
X154.94Y-71.12
X154.94Y-73.66
X154.94Y-76.2
X154.94Y-78.74
X154.94Y-81.28
X154.94Y-83.82
X154.94Y-86.36
X154.94Y-88.9
X154.94Y-91.44
X154.94Y-93.98
X154.94Y-96.52
X154.94Y-99.06
X154.94Y-101.6
X154.94Y-104.14
X154.94Y-106.68
X154.94Y-109.22
X154.94Y-111.76
X154.94Y-114.3
X157.48Y-33.02
X157.48Y-40.64
X157.48Y-55.88
X160.02Y-40.64
X160.02Y-55.88
X160.02Y-114.3
X162.56Y-33.02
X162.56Y-40.64
X162.56Y-55.88
X165.1Y-33.02
X165.1Y-40.64
X165.1Y-55.88
X165.1Y-60.96
X170.18Y-33.02
X170.18Y-60.96
X170.18Y-63.5
X170.18Y-66.04
X170.18Y-68.58
X170.18Y-71.12
X170.18Y-73.66
X170.18Y-76.2
X170.18Y-78.74
X170.18Y-81.28
X170.18Y-83.82
X170.18Y-86.36
X170.18Y-88.9
X170.18Y-91.44
X170.18Y-93.98
X170.18Y-96.52
X170.18Y-99.06
X170.18Y-101.6
X170.18Y-104.14
X170.18Y-106.68
X170.18Y-109.22
X170.18Y-111.76
X172.72Y-63.5
X172.72Y-66.04
X172.72Y-68.58
X172.72Y-71.12
X172.72Y-73.66
X172.72Y-76.2
X172.72Y-78.74
X172.72Y-81.28
X172.72Y-83.82
X172.72Y-86.36
X175.26Y-33.02
X176.53Y-59.69
X176.53Y-62.23
X180.34Y-33.02
X180.34Y-60.96
X180.34Y-88.9
X180.34Y-91.44
X180.34Y-93.98
X180.34Y-96.52
X180.34Y-99.06
X180.34Y-101.6
X180.34Y-104.14
X180.34Y-106.68
X180.34Y-109.22
X180.34Y-111.76
X182.88Y-33.02
X185.42Y-60.96
X187.96Y-30.48
X187.96Y-33.02
X187.96Y-88.9
X187.96Y-91.44
X187.96Y-93.98
X187.96Y-96.52
X187.96Y-99.06
X187.96Y-101.6
X187.96Y-104.14
X187.96Y-106.68
X187.96Y-109.22
X187.96Y-111.76
X189.23Y-57.15
X189.23Y-59.69
X190.5Y-33.02
X190.5Y-63.5
X190.5Y-66.04
X190.5Y-68.58
X190.5Y-71.12
X190.5Y-73.66
X190.5Y-76.2
X190.5Y-78.74
X190.5Y-81.28
X190.5Y-83.82
X190.5Y-86.36
X191.77Y-46.99
X191.77Y-49.53
X193.04Y-91.44
X193.04Y-96.52
X193.82Y-68.6
X193.82Y-73.68
X193.82Y-104.16
X193.82Y-109.24
X195.58Y-33.02
X196.85Y-46.99
X196.85Y-49.53
X198.12Y-26.67
X198.12Y-30.48
X198.12Y-33.02
X198.12Y-43.18
X198.824Y-86.837
X200.66Y-26.67
X200.66Y-38.1
X200.66Y-40.64
X200.66Y-43.18
X200.66Y-45.72
X200.66Y-48.26
X200.66Y-50.8
X201.364Y-86.837
X203.2Y-26.67
X203.2Y-33.02
X203.904Y-86.837
X205.656Y-83.865
X205.74Y-26.67
X205.74Y-33.02
X205.74Y-40.64
X206.444Y-86.837
X207.79Y-121.94
X208.28Y-26.67
X208.28Y-43.18
X208.28Y-45.72
X208.28Y-48.26
X208.28Y-50.8
X208.984Y-86.837
X210.82Y-38.1
X211.524Y-86.837
X215.816Y-83.865
X217.95Y-121.94
X222.0Y-84.46
X222.0Y-87.0
X222.0Y-119.5
X222.0Y-122.04
T5
X29.055Y-16.551
X33.556Y-16.551
X34.29Y-40.64
X35.56Y-132.08
X38.1Y-107.95
X38.1Y-132.08
X40.64Y-82.55
X40.64Y-104.775
X43.18Y-82.55
X43.18Y-104.775
X45.72Y-82.55
X45.72Y-104.775
X48.26Y-82.55
X48.26Y-104.775
X50.8Y-27.94
X50.8Y-35.56
X50.8Y-62.23
X50.8Y-82.55
X50.8Y-104.775
X53.34Y-82.55
X53.34Y-104.775
X55.88Y-82.55
X55.88Y-104.775
X58.42Y-82.55
X58.42Y-104.775
X60.96Y-82.55
X60.96Y-104.775
X63.5Y-82.55
X63.5Y-104.775
X66.04Y-82.55
X66.04Y-104.775
X68.58Y-82.55
X68.58Y-104.775
X71.12Y-82.55
X71.12Y-104.775
X73.66Y-82.55
X73.66Y-104.775
X76.2Y-82.55
X76.2Y-104.775
X78.74Y-82.55
X78.74Y-104.775
X78.74Y-151.13
X78.74Y-153.67
X81.28Y-82.55
X81.28Y-104.775
X81.28Y-151.13
X81.28Y-153.67
X83.82Y-82.55
X83.82Y-104.775
X83.82Y-151.13
X83.82Y-153.67
X86.36Y-82.55
X86.36Y-104.775
X88.9Y-82.55
X88.9Y-104.775
X88.9Y-137.16
X88.9Y-139.7
X88.9Y-142.24
X88.9Y-144.78
X88.9Y-147.32
X96.52Y-139.7
X96.52Y-142.24
X96.52Y-144.78
X96.52Y-147.32
X96.52Y-149.86
X96.52Y-152.4
X99.06Y-83.82
X99.06Y-86.36
X99.06Y-88.9
X99.06Y-91.44
X99.06Y-93.98
X99.06Y-96.52
X99.06Y-99.06
X99.06Y-101.6
X99.06Y-104.14
X99.06Y-106.68
X99.06Y-109.22
X99.06Y-137.16
X99.06Y-139.7
X99.06Y-142.24
X99.06Y-144.78
X99.06Y-147.32
X99.06Y-149.86
X99.06Y-152.4
X99.06Y-154.94
X101.6Y-81.28
X101.6Y-83.82
X101.6Y-86.36
X101.6Y-88.9
X101.6Y-91.44
X101.6Y-93.98
X101.6Y-96.52
X101.6Y-99.06
X101.6Y-101.6
X101.6Y-104.14
X101.6Y-106.68
X101.6Y-109.22
X101.6Y-111.76
X101.6Y-137.16
X101.6Y-139.7
X101.6Y-152.4
X101.6Y-154.94
X104.14Y-81.28
X104.14Y-83.82
X104.14Y-109.22
X104.14Y-111.76
X104.14Y-137.16
X104.14Y-139.7
X104.14Y-152.4
X104.14Y-154.94
X106.68Y-57.15
X106.68Y-81.28
X106.68Y-83.82
X106.68Y-109.22
X106.68Y-111.76
X106.68Y-137.16
X106.68Y-139.7
X106.68Y-152.4
X106.68Y-154.94
X109.22Y-81.28
X109.22Y-83.82
X109.22Y-109.22
X109.22Y-111.76
X109.22Y-137.16
X109.22Y-139.7
X109.22Y-152.4
X109.22Y-154.94
X111.76Y-81.28
X111.76Y-83.82
X111.76Y-109.22
X111.76Y-111.76
X111.76Y-137.16
X111.76Y-137.16
X111.76Y-139.7
X111.76Y-142.24
X111.76Y-144.78
X111.76Y-147.32
X111.76Y-149.86
X111.76Y-152.4
X111.76Y-154.94
X114.3Y-81.28
X114.3Y-83.82
X114.3Y-109.22
X114.3Y-111.76
X114.3Y-139.7
X114.3Y-139.7
X114.3Y-142.24
X114.3Y-144.78
X114.3Y-147.32
X114.3Y-149.86
X114.3Y-152.4
X116.84Y-81.28
X116.84Y-83.82
X116.84Y-109.22
X116.84Y-111.76
X119.38Y-81.28
X119.38Y-83.82
X119.38Y-109.22
X119.38Y-111.76
X121.92Y-81.28
X121.92Y-83.82
X121.92Y-109.22
X121.92Y-111.76
X124.46Y-81.28
X124.46Y-83.82
X124.46Y-109.22
X124.46Y-111.76
X124.46Y-139.7
X124.46Y-142.24
X124.46Y-144.78
X124.46Y-147.32
X124.46Y-149.86
X127.0Y-81.28
X127.0Y-83.82
X127.0Y-86.36
X127.0Y-88.9
X127.0Y-91.44
X127.0Y-93.98
X127.0Y-96.52
X127.0Y-99.06
X127.0Y-101.6
X127.0Y-104.14
X127.0Y-106.68
X127.0Y-109.22
X127.0Y-111.76
X127.0Y-139.7
X127.0Y-142.24
X127.0Y-144.78
X127.0Y-147.32
X127.0Y-149.86
X129.54Y-83.82
X129.54Y-86.36
X129.54Y-88.9
X129.54Y-91.44
X129.54Y-93.98
X129.54Y-96.52
X129.54Y-99.06
X129.54Y-101.6
X129.54Y-104.14
X129.54Y-106.68
X129.54Y-109.22
X137.16Y-119.38
X139.7Y-71.12
X139.7Y-73.66
X139.7Y-76.2
X139.7Y-78.74
X139.7Y-81.28
X142.24Y-71.12
X142.24Y-73.66
X142.24Y-76.2
X142.24Y-78.74
X142.24Y-81.28
X160.02Y-36.83
X162.56Y-36.83
X165.1Y-36.83
X167.64Y-36.83
X170.18Y-36.83
X171.45Y-46.99
X176.53Y-73.66
X176.53Y-76.2
X180.34Y-63.5
X182.88Y-63.5
X184.15Y-53.34
X185.42Y-63.5
X189.23Y-53.34
X193.04Y-81.28
X193.04Y-83.82
X194.31Y-53.34
T6
X161.6Y-23.8
X161.6Y-26.3
X163.7Y-23.8
X166.3Y-23.8
X168.4Y-23.8
X168.4Y-26.3
X179.6Y-23.8
X179.6Y-26.3
X181.7Y-23.8
X184.3Y-23.8
X186.4Y-23.8
X186.4Y-26.3
T7
X30.0Y-130.0
X30.0Y-134.0
X30.0Y-138.0
X30.0Y-142.0
X30.0Y-148.5
X30.0Y-152.5
X30.0Y-156.5
X97.95Y-30.299
X99.855Y-25.219
X101.76Y-30.299
X103.665Y-25.219
X105.57Y-30.299
X107.475Y-25.219
X109.38Y-30.299
X111.285Y-25.219
X113.19Y-30.299
X115.095Y-25.219
X117.0Y-30.299
X118.905Y-25.219
X120.81Y-30.299
X122.715Y-25.219
X124.62Y-30.299
X126.525Y-25.219
X128.43Y-30.299
X130.335Y-25.219
X132.24Y-30.299
X134.145Y-25.219
X136.05Y-30.299
X212.0Y-130.5
X212.0Y-134.5
X212.0Y-138.5
X212.0Y-145.0
X212.0Y-149.0
X212.0Y-153.0
X212.0Y-157.0
X214.63Y-43.18
X214.63Y-45.68
X214.63Y-48.18
X224.63Y-45.68
T8
X220.532Y-56.621
X220.532Y-80.817
X220.532Y-91.621
X220.532Y-115.817
T9
X27.305Y-19.05
X35.306Y-19.05
T10
X158.25Y-20.8
X165.0Y-20.0
X171.75Y-20.8
X176.25Y-20.8
X183.0Y-20.0
X189.75Y-20.8
T11
X18.56Y-33.82
X18.56Y-82.08
T12
X182.88Y-80.16
T2
X193.8Y-18.14G85X193.8Y-17.54
G05
X193.8Y-22.57G85X193.8Y-21.47
G05
X202.44Y-18.14G85X202.44Y-17.54
G05
X202.44Y-22.57G85X202.44Y-21.47
G05
X207.01Y-18.14G85X207.01Y-17.54
G05
X207.01Y-22.57G85X207.01Y-21.47
G05
X215.65Y-18.14G85X215.65Y-17.54
G05
X215.65Y-22.57G85X215.65Y-21.47
G05
T4
X217.85Y-27.0G85X217.15Y-27.0
G05
X217.85Y-29.5G85X217.15Y-29.5
G05
X217.85Y-34.5G85X217.15Y-34.5
G05
X217.85Y-37.0G85X217.15Y-37.0
G05
X222.5Y-31.65G85X222.5Y-32.35
G05
T0
M30
