%FSLAX45Y45*%
G04 Gerber Fmt 4.5, Leading zero omitted, Abs format (unit mm)*
G04 Created by KiCad (PCBNEW 5.1.10) date 2021-05-26 01:01:05*
%MOMM*%
%LPD*%
G01*
G04 APERTURE LIST*
%TA.AperFunction,Profile*%
%ADD10C,0.150000*%
%TD*%
%ADD11C,0.200000*%
%ADD12C,0.300000*%
G04 APERTURE END LIST*
D10*
X1600000Y-16300000D02*
X1600000Y-1500000D01*
X22600000Y-16300000D02*
X1600000Y-16300000D01*
X22600000Y-1500000D02*
X22600000Y-16300000D01*
X1600000Y-1500000D02*
X22600000Y-1500000D01*
D11*
X21700000Y-3000000D02*
X21800000Y-3100000D01*
X21800000Y-3000000D02*
X21700000Y-3100000D01*
X22200000Y-2500000D02*
X22300000Y-2600000D01*
X22300000Y-2500000D02*
X22200000Y-2600000D01*
X22200000Y-3500000D02*
X22300000Y-3600000D01*
X22300000Y-3500000D02*
X22200000Y-3600000D01*
X22450000Y-2500000D02*
X22550000Y-2600000D01*
X22550000Y-2500000D02*
X22450000Y-2600000D01*
X22450000Y-3500000D02*
X22550000Y-3600000D01*
X22550000Y-3500000D02*
X22450000Y-3600000D01*
X9200018Y-2321966D02*
G75*
G03*
X9200018Y-2321966I-150000J0D01*
G01*
X9190018Y-2371966D02*
X9190018Y-2271966D01*
X8910018Y-2371966D02*
X8910018Y-2271966D01*
X9190018Y-2271966D02*
G75*
G03*
X8910018Y-2271966I-140000J0D01*
G01*
X8910018Y-2371966D02*
G75*
G03*
X9190018Y-2371966I140000J0D01*
G01*
X14499982Y-2321966D02*
G75*
G03*
X14499982Y-2321966I-150000J0D01*
G01*
X14489982Y-2371966D02*
X14489982Y-2271966D01*
X14209982Y-2371966D02*
X14209982Y-2271966D01*
X14489982Y-2271966D02*
G75*
G03*
X14209982Y-2271966I-140000J0D01*
G01*
X14209982Y-2371966D02*
G75*
G03*
X14489982Y-2371966I140000J0D01*
G01*
X2100000Y-1840000D02*
X2100000Y-2160000D01*
X1940000Y-2000000D02*
X2260000Y-2000000D01*
X3683000Y-15651500D02*
X3683000Y-15971500D01*
X3523000Y-15811500D02*
X3843000Y-15811500D01*
X11043920Y-6764040D02*
X11043920Y-7084040D01*
X10883920Y-6924040D02*
X11203920Y-6924040D01*
X20500000Y-15640000D02*
X20500000Y-15960000D01*
X20340000Y-15800000D02*
X20660000Y-15800000D01*
X22100000Y-1840000D02*
X22100000Y-2160000D01*
X21940000Y-2000000D02*
X22260000Y-2000000D01*
X11098778Y-9320778D02*
X11098778Y-8967222D01*
X10745222Y-8967222D01*
X10745222Y-9320778D01*
X11098778Y-9320778D01*
X11098778Y-10336778D02*
X11098778Y-9983222D01*
X10745222Y-9983222D01*
X10745222Y-10336778D01*
X11098778Y-10336778D01*
X12114778Y-9320778D02*
X12114778Y-8967222D01*
X11761222Y-8967222D01*
X11761222Y-9320778D01*
X12114778Y-9320778D01*
X12114778Y-10336778D02*
X12114778Y-9983222D01*
X11761222Y-9983222D01*
X11761222Y-10336778D01*
X12114778Y-10336778D01*
D12*
X1878928Y-16773214D02*
X1878928Y-16473214D01*
X1950357Y-16473214D01*
X1993214Y-16487500D01*
X2021786Y-16516071D01*
X2036071Y-16544643D01*
X2050357Y-16601786D01*
X2050357Y-16644643D01*
X2036071Y-16701786D01*
X2021786Y-16730357D01*
X1993214Y-16758929D01*
X1950357Y-16773214D01*
X1878928Y-16773214D01*
X2178928Y-16773214D02*
X2178928Y-16573214D01*
X2178928Y-16630357D02*
X2193214Y-16601786D01*
X2207500Y-16587500D01*
X2236071Y-16573214D01*
X2264643Y-16573214D01*
X2364643Y-16773214D02*
X2364643Y-16573214D01*
X2364643Y-16473214D02*
X2350357Y-16487500D01*
X2364643Y-16501786D01*
X2378928Y-16487500D01*
X2364643Y-16473214D01*
X2364643Y-16501786D01*
X2550357Y-16773214D02*
X2521786Y-16758929D01*
X2507500Y-16730357D01*
X2507500Y-16473214D01*
X2707500Y-16773214D02*
X2678928Y-16758929D01*
X2664643Y-16730357D01*
X2664643Y-16473214D01*
X3050357Y-16773214D02*
X3050357Y-16473214D01*
X3150357Y-16687500D01*
X3250357Y-16473214D01*
X3250357Y-16773214D01*
X3521786Y-16773214D02*
X3521786Y-16616071D01*
X3507500Y-16587500D01*
X3478928Y-16573214D01*
X3421786Y-16573214D01*
X3393214Y-16587500D01*
X3521786Y-16758929D02*
X3493214Y-16773214D01*
X3421786Y-16773214D01*
X3393214Y-16758929D01*
X3378928Y-16730357D01*
X3378928Y-16701786D01*
X3393214Y-16673214D01*
X3421786Y-16658929D01*
X3493214Y-16658929D01*
X3521786Y-16644643D01*
X3664643Y-16573214D02*
X3664643Y-16873214D01*
X3664643Y-16587500D02*
X3693214Y-16573214D01*
X3750357Y-16573214D01*
X3778928Y-16587500D01*
X3793214Y-16601786D01*
X3807500Y-16630357D01*
X3807500Y-16716071D01*
X3793214Y-16744643D01*
X3778928Y-16758929D01*
X3750357Y-16773214D01*
X3693214Y-16773214D01*
X3664643Y-16758929D01*
X3936071Y-16744643D02*
X3950357Y-16758929D01*
X3936071Y-16773214D01*
X3921786Y-16758929D01*
X3936071Y-16744643D01*
X3936071Y-16773214D01*
X3936071Y-16587500D02*
X3950357Y-16601786D01*
X3936071Y-16616071D01*
X3921786Y-16601786D01*
X3936071Y-16587500D01*
X3936071Y-16616071D01*
X1492500Y-17217500D02*
X1592500Y-17317500D01*
X1592500Y-17217500D02*
X1492500Y-17317500D01*
X2036071Y-17403214D02*
X1864643Y-17403214D01*
X1950357Y-17403214D02*
X1950357Y-17103214D01*
X1921786Y-17146072D01*
X1893214Y-17174643D01*
X1864643Y-17188929D01*
X2164643Y-17374643D02*
X2178928Y-17388929D01*
X2164643Y-17403214D01*
X2150357Y-17388929D01*
X2164643Y-17374643D01*
X2164643Y-17403214D01*
X2364643Y-17103214D02*
X2393214Y-17103214D01*
X2421786Y-17117500D01*
X2436071Y-17131786D01*
X2450357Y-17160357D01*
X2464643Y-17217500D01*
X2464643Y-17288929D01*
X2450357Y-17346072D01*
X2436071Y-17374643D01*
X2421786Y-17388929D01*
X2393214Y-17403214D01*
X2364643Y-17403214D01*
X2336071Y-17388929D01*
X2321786Y-17374643D01*
X2307500Y-17346072D01*
X2293214Y-17288929D01*
X2293214Y-17217500D01*
X2307500Y-17160357D01*
X2321786Y-17131786D01*
X2336071Y-17117500D01*
X2364643Y-17103214D01*
X2650357Y-17103214D02*
X2678928Y-17103214D01*
X2707500Y-17117500D01*
X2721786Y-17131786D01*
X2736071Y-17160357D01*
X2750357Y-17217500D01*
X2750357Y-17288929D01*
X2736071Y-17346072D01*
X2721786Y-17374643D01*
X2707500Y-17388929D01*
X2678928Y-17403214D01*
X2650357Y-17403214D01*
X2621786Y-17388929D01*
X2607500Y-17374643D01*
X2593214Y-17346072D01*
X2578928Y-17288929D01*
X2578928Y-17217500D01*
X2593214Y-17160357D01*
X2607500Y-17131786D01*
X2621786Y-17117500D01*
X2650357Y-17103214D01*
X2936071Y-17103214D02*
X2964643Y-17103214D01*
X2993214Y-17117500D01*
X3007500Y-17131786D01*
X3021786Y-17160357D01*
X3036071Y-17217500D01*
X3036071Y-17288929D01*
X3021786Y-17346072D01*
X3007500Y-17374643D01*
X2993214Y-17388929D01*
X2964643Y-17403214D01*
X2936071Y-17403214D01*
X2907500Y-17388929D01*
X2893214Y-17374643D01*
X2878928Y-17346072D01*
X2864643Y-17288929D01*
X2864643Y-17217500D01*
X2878928Y-17160357D01*
X2893214Y-17131786D01*
X2907500Y-17117500D01*
X2936071Y-17103214D01*
X3164643Y-17403214D02*
X3164643Y-17203214D01*
X3164643Y-17231786D02*
X3178928Y-17217500D01*
X3207500Y-17203214D01*
X3250357Y-17203214D01*
X3278928Y-17217500D01*
X3293214Y-17246072D01*
X3293214Y-17403214D01*
X3293214Y-17246072D02*
X3307500Y-17217500D01*
X3336071Y-17203214D01*
X3378928Y-17203214D01*
X3407500Y-17217500D01*
X3421786Y-17246072D01*
X3421786Y-17403214D01*
X3564643Y-17403214D02*
X3564643Y-17203214D01*
X3564643Y-17231786D02*
X3578928Y-17217500D01*
X3607500Y-17203214D01*
X3650357Y-17203214D01*
X3678928Y-17217500D01*
X3693214Y-17246072D01*
X3693214Y-17403214D01*
X3693214Y-17246072D02*
X3707500Y-17217500D01*
X3736071Y-17203214D01*
X3778928Y-17203214D01*
X3807500Y-17217500D01*
X3821786Y-17246072D01*
X3821786Y-17403214D01*
X4407500Y-17088929D02*
X4150357Y-17474643D01*
X4793214Y-17103214D02*
X4821786Y-17103214D01*
X4850357Y-17117500D01*
X4864643Y-17131786D01*
X4878928Y-17160357D01*
X4893214Y-17217500D01*
X4893214Y-17288929D01*
X4878928Y-17346072D01*
X4864643Y-17374643D01*
X4850357Y-17388929D01*
X4821786Y-17403214D01*
X4793214Y-17403214D01*
X4764643Y-17388929D01*
X4750357Y-17374643D01*
X4736071Y-17346072D01*
X4721786Y-17288929D01*
X4721786Y-17217500D01*
X4736071Y-17160357D01*
X4750357Y-17131786D01*
X4764643Y-17117500D01*
X4793214Y-17103214D01*
X5021786Y-17374643D02*
X5036071Y-17388929D01*
X5021786Y-17403214D01*
X5007500Y-17388929D01*
X5021786Y-17374643D01*
X5021786Y-17403214D01*
X5221786Y-17103214D02*
X5250357Y-17103214D01*
X5278928Y-17117500D01*
X5293214Y-17131786D01*
X5307500Y-17160357D01*
X5321786Y-17217500D01*
X5321786Y-17288929D01*
X5307500Y-17346072D01*
X5293214Y-17374643D01*
X5278928Y-17388929D01*
X5250357Y-17403214D01*
X5221786Y-17403214D01*
X5193214Y-17388929D01*
X5178928Y-17374643D01*
X5164643Y-17346072D01*
X5150357Y-17288929D01*
X5150357Y-17217500D01*
X5164643Y-17160357D01*
X5178928Y-17131786D01*
X5193214Y-17117500D01*
X5221786Y-17103214D01*
X5421786Y-17103214D02*
X5607500Y-17103214D01*
X5507500Y-17217500D01*
X5550357Y-17217500D01*
X5578928Y-17231786D01*
X5593214Y-17246072D01*
X5607500Y-17274643D01*
X5607500Y-17346072D01*
X5593214Y-17374643D01*
X5578928Y-17388929D01*
X5550357Y-17403214D01*
X5464643Y-17403214D01*
X5436071Y-17388929D01*
X5421786Y-17374643D01*
X5750357Y-17403214D02*
X5807500Y-17403214D01*
X5836071Y-17388929D01*
X5850357Y-17374643D01*
X5878928Y-17331786D01*
X5893214Y-17274643D01*
X5893214Y-17160357D01*
X5878928Y-17131786D01*
X5864643Y-17117500D01*
X5836071Y-17103214D01*
X5778928Y-17103214D01*
X5750357Y-17117500D01*
X5736071Y-17131786D01*
X5721786Y-17160357D01*
X5721786Y-17231786D01*
X5736071Y-17260357D01*
X5750357Y-17274643D01*
X5778928Y-17288929D01*
X5836071Y-17288929D01*
X5864643Y-17274643D01*
X5878928Y-17260357D01*
X5893214Y-17231786D01*
X6150357Y-17203214D02*
X6150357Y-17403214D01*
X6078928Y-17088929D02*
X6007500Y-17303214D01*
X6193214Y-17303214D01*
X6293214Y-17103214D02*
X6293214Y-17160357D01*
X6407500Y-17103214D02*
X6407500Y-17160357D01*
X6850357Y-17517500D02*
X6836071Y-17503214D01*
X6807500Y-17460357D01*
X6793214Y-17431786D01*
X6778928Y-17388929D01*
X6764643Y-17317500D01*
X6764643Y-17260357D01*
X6778928Y-17188929D01*
X6793214Y-17146072D01*
X6807500Y-17117500D01*
X6836071Y-17074643D01*
X6850357Y-17060357D01*
X7107500Y-17103214D02*
X6964643Y-17103214D01*
X6950357Y-17246072D01*
X6964643Y-17231786D01*
X6993214Y-17217500D01*
X7064643Y-17217500D01*
X7093214Y-17231786D01*
X7107500Y-17246072D01*
X7121786Y-17274643D01*
X7121786Y-17346072D01*
X7107500Y-17374643D01*
X7093214Y-17388929D01*
X7064643Y-17403214D01*
X6993214Y-17403214D01*
X6964643Y-17388929D01*
X6950357Y-17374643D01*
X7478928Y-17403214D02*
X7478928Y-17103214D01*
X7607500Y-17403214D02*
X7607500Y-17246072D01*
X7593214Y-17217500D01*
X7564643Y-17203214D01*
X7521786Y-17203214D01*
X7493214Y-17217500D01*
X7478928Y-17231786D01*
X7793214Y-17403214D02*
X7764643Y-17388929D01*
X7750357Y-17374643D01*
X7736071Y-17346072D01*
X7736071Y-17260357D01*
X7750357Y-17231786D01*
X7764643Y-17217500D01*
X7793214Y-17203214D01*
X7836071Y-17203214D01*
X7864643Y-17217500D01*
X7878928Y-17231786D01*
X7893214Y-17260357D01*
X7893214Y-17346072D01*
X7878928Y-17374643D01*
X7864643Y-17388929D01*
X7836071Y-17403214D01*
X7793214Y-17403214D01*
X8064643Y-17403214D02*
X8036071Y-17388929D01*
X8021786Y-17360357D01*
X8021786Y-17103214D01*
X8293214Y-17388929D02*
X8264643Y-17403214D01*
X8207500Y-17403214D01*
X8178928Y-17388929D01*
X8164643Y-17360357D01*
X8164643Y-17246072D01*
X8178928Y-17217500D01*
X8207500Y-17203214D01*
X8264643Y-17203214D01*
X8293214Y-17217500D01*
X8307500Y-17246072D01*
X8307500Y-17274643D01*
X8164643Y-17303214D01*
X8421786Y-17388929D02*
X8450357Y-17403214D01*
X8507500Y-17403214D01*
X8536071Y-17388929D01*
X8550357Y-17360357D01*
X8550357Y-17346072D01*
X8536071Y-17317500D01*
X8507500Y-17303214D01*
X8464643Y-17303214D01*
X8436071Y-17288929D01*
X8421786Y-17260357D01*
X8421786Y-17246072D01*
X8436071Y-17217500D01*
X8464643Y-17203214D01*
X8507500Y-17203214D01*
X8536071Y-17217500D01*
X8650357Y-17517500D02*
X8664643Y-17503214D01*
X8693214Y-17460357D01*
X8707500Y-17431786D01*
X8721786Y-17388929D01*
X8736071Y-17317500D01*
X8736071Y-17260357D01*
X8721786Y-17188929D01*
X8707500Y-17146072D01*
X8693214Y-17117500D01*
X8664643Y-17074643D01*
X8650357Y-17060357D01*
X9193214Y-17517500D02*
X9178928Y-17503214D01*
X9150357Y-17460357D01*
X9136071Y-17431786D01*
X9121786Y-17388929D01*
X9107500Y-17317500D01*
X9107500Y-17260357D01*
X9121786Y-17188929D01*
X9136071Y-17146072D01*
X9150357Y-17117500D01*
X9178928Y-17074643D01*
X9193214Y-17060357D01*
X9307500Y-17203214D02*
X9307500Y-17403214D01*
X9307500Y-17231786D02*
X9321786Y-17217500D01*
X9350357Y-17203214D01*
X9393214Y-17203214D01*
X9421786Y-17217500D01*
X9436071Y-17246072D01*
X9436071Y-17403214D01*
X9621786Y-17403214D02*
X9593214Y-17388929D01*
X9578928Y-17374643D01*
X9564643Y-17346072D01*
X9564643Y-17260357D01*
X9578928Y-17231786D01*
X9593214Y-17217500D01*
X9621786Y-17203214D01*
X9664643Y-17203214D01*
X9693214Y-17217500D01*
X9707500Y-17231786D01*
X9721786Y-17260357D01*
X9721786Y-17346072D01*
X9707500Y-17374643D01*
X9693214Y-17388929D01*
X9664643Y-17403214D01*
X9621786Y-17403214D01*
X9807500Y-17203214D02*
X9921786Y-17203214D01*
X9850357Y-17103214D02*
X9850357Y-17360357D01*
X9864643Y-17388929D01*
X9893214Y-17403214D01*
X9921786Y-17403214D01*
X10250357Y-17203214D02*
X10250357Y-17503214D01*
X10250357Y-17217500D02*
X10278928Y-17203214D01*
X10336071Y-17203214D01*
X10364643Y-17217500D01*
X10378928Y-17231786D01*
X10393214Y-17260357D01*
X10393214Y-17346072D01*
X10378928Y-17374643D01*
X10364643Y-17388929D01*
X10336071Y-17403214D01*
X10278928Y-17403214D01*
X10250357Y-17388929D01*
X10564643Y-17403214D02*
X10536071Y-17388929D01*
X10521786Y-17360357D01*
X10521786Y-17103214D01*
X10807500Y-17403214D02*
X10807500Y-17246072D01*
X10793214Y-17217500D01*
X10764643Y-17203214D01*
X10707500Y-17203214D01*
X10678928Y-17217500D01*
X10807500Y-17388929D02*
X10778928Y-17403214D01*
X10707500Y-17403214D01*
X10678928Y-17388929D01*
X10664643Y-17360357D01*
X10664643Y-17331786D01*
X10678928Y-17303214D01*
X10707500Y-17288929D01*
X10778928Y-17288929D01*
X10807500Y-17274643D01*
X10907500Y-17203214D02*
X11021786Y-17203214D01*
X10950357Y-17103214D02*
X10950357Y-17360357D01*
X10964643Y-17388929D01*
X10993214Y-17403214D01*
X11021786Y-17403214D01*
X11236071Y-17388929D02*
X11207500Y-17403214D01*
X11150357Y-17403214D01*
X11121786Y-17388929D01*
X11107500Y-17360357D01*
X11107500Y-17246072D01*
X11121786Y-17217500D01*
X11150357Y-17203214D01*
X11207500Y-17203214D01*
X11236071Y-17217500D01*
X11250357Y-17246072D01*
X11250357Y-17274643D01*
X11107500Y-17303214D01*
X11507500Y-17403214D02*
X11507500Y-17103214D01*
X11507500Y-17388929D02*
X11478928Y-17403214D01*
X11421786Y-17403214D01*
X11393214Y-17388929D01*
X11378928Y-17374643D01*
X11364643Y-17346072D01*
X11364643Y-17260357D01*
X11378928Y-17231786D01*
X11393214Y-17217500D01*
X11421786Y-17203214D01*
X11478928Y-17203214D01*
X11507500Y-17217500D01*
X11621786Y-17517500D02*
X11636071Y-17503214D01*
X11664643Y-17460357D01*
X11678928Y-17431786D01*
X11693214Y-17388929D01*
X11707500Y-17317500D01*
X11707500Y-17260357D01*
X11693214Y-17188929D01*
X11678928Y-17146072D01*
X11664643Y-17117500D01*
X11636071Y-17074643D01*
X11621786Y-17060357D01*
X1592500Y-17663500D02*
G75*
G03*
X1592500Y-17663500I-150000J0D01*
G01*
X1850357Y-17499214D02*
X2036071Y-17499214D01*
X1936071Y-17613500D01*
X1978928Y-17613500D01*
X2007500Y-17627786D01*
X2021786Y-17642072D01*
X2036071Y-17670643D01*
X2036071Y-17742072D01*
X2021786Y-17770643D01*
X2007500Y-17784929D01*
X1978928Y-17799214D01*
X1893214Y-17799214D01*
X1864643Y-17784929D01*
X1850357Y-17770643D01*
X2164643Y-17770643D02*
X2178928Y-17784929D01*
X2164643Y-17799214D01*
X2150357Y-17784929D01*
X2164643Y-17770643D01*
X2164643Y-17799214D01*
X2364643Y-17499214D02*
X2393214Y-17499214D01*
X2421786Y-17513500D01*
X2436071Y-17527786D01*
X2450357Y-17556357D01*
X2464643Y-17613500D01*
X2464643Y-17684929D01*
X2450357Y-17742072D01*
X2436071Y-17770643D01*
X2421786Y-17784929D01*
X2393214Y-17799214D01*
X2364643Y-17799214D01*
X2336071Y-17784929D01*
X2321786Y-17770643D01*
X2307500Y-17742072D01*
X2293214Y-17684929D01*
X2293214Y-17613500D01*
X2307500Y-17556357D01*
X2321786Y-17527786D01*
X2336071Y-17513500D01*
X2364643Y-17499214D01*
X2650357Y-17499214D02*
X2678928Y-17499214D01*
X2707500Y-17513500D01*
X2721786Y-17527786D01*
X2736071Y-17556357D01*
X2750357Y-17613500D01*
X2750357Y-17684929D01*
X2736071Y-17742072D01*
X2721786Y-17770643D01*
X2707500Y-17784929D01*
X2678928Y-17799214D01*
X2650357Y-17799214D01*
X2621786Y-17784929D01*
X2607500Y-17770643D01*
X2593214Y-17742072D01*
X2578928Y-17684929D01*
X2578928Y-17613500D01*
X2593214Y-17556357D01*
X2607500Y-17527786D01*
X2621786Y-17513500D01*
X2650357Y-17499214D01*
X2936071Y-17499214D02*
X2964643Y-17499214D01*
X2993214Y-17513500D01*
X3007500Y-17527786D01*
X3021786Y-17556357D01*
X3036071Y-17613500D01*
X3036071Y-17684929D01*
X3021786Y-17742072D01*
X3007500Y-17770643D01*
X2993214Y-17784929D01*
X2964643Y-17799214D01*
X2936071Y-17799214D01*
X2907500Y-17784929D01*
X2893214Y-17770643D01*
X2878928Y-17742072D01*
X2864643Y-17684929D01*
X2864643Y-17613500D01*
X2878928Y-17556357D01*
X2893214Y-17527786D01*
X2907500Y-17513500D01*
X2936071Y-17499214D01*
X3164643Y-17799214D02*
X3164643Y-17599214D01*
X3164643Y-17627786D02*
X3178928Y-17613500D01*
X3207500Y-17599214D01*
X3250357Y-17599214D01*
X3278928Y-17613500D01*
X3293214Y-17642072D01*
X3293214Y-17799214D01*
X3293214Y-17642072D02*
X3307500Y-17613500D01*
X3336071Y-17599214D01*
X3378928Y-17599214D01*
X3407500Y-17613500D01*
X3421786Y-17642072D01*
X3421786Y-17799214D01*
X3564643Y-17799214D02*
X3564643Y-17599214D01*
X3564643Y-17627786D02*
X3578928Y-17613500D01*
X3607500Y-17599214D01*
X3650357Y-17599214D01*
X3678928Y-17613500D01*
X3693214Y-17642072D01*
X3693214Y-17799214D01*
X3693214Y-17642072D02*
X3707500Y-17613500D01*
X3736071Y-17599214D01*
X3778928Y-17599214D01*
X3807500Y-17613500D01*
X3821786Y-17642072D01*
X3821786Y-17799214D01*
X4407500Y-17484929D02*
X4150357Y-17870643D01*
X4793214Y-17499214D02*
X4821786Y-17499214D01*
X4850357Y-17513500D01*
X4864643Y-17527786D01*
X4878928Y-17556357D01*
X4893214Y-17613500D01*
X4893214Y-17684929D01*
X4878928Y-17742072D01*
X4864643Y-17770643D01*
X4850357Y-17784929D01*
X4821786Y-17799214D01*
X4793214Y-17799214D01*
X4764643Y-17784929D01*
X4750357Y-17770643D01*
X4736071Y-17742072D01*
X4721786Y-17684929D01*
X4721786Y-17613500D01*
X4736071Y-17556357D01*
X4750357Y-17527786D01*
X4764643Y-17513500D01*
X4793214Y-17499214D01*
X5021786Y-17770643D02*
X5036071Y-17784929D01*
X5021786Y-17799214D01*
X5007500Y-17784929D01*
X5021786Y-17770643D01*
X5021786Y-17799214D01*
X5321786Y-17799214D02*
X5150357Y-17799214D01*
X5236071Y-17799214D02*
X5236071Y-17499214D01*
X5207500Y-17542072D01*
X5178928Y-17570643D01*
X5150357Y-17584929D01*
X5607500Y-17799214D02*
X5436071Y-17799214D01*
X5521786Y-17799214D02*
X5521786Y-17499214D01*
X5493214Y-17542072D01*
X5464643Y-17570643D01*
X5436071Y-17584929D01*
X5778928Y-17627786D02*
X5750357Y-17613500D01*
X5736071Y-17599214D01*
X5721786Y-17570643D01*
X5721786Y-17556357D01*
X5736071Y-17527786D01*
X5750357Y-17513500D01*
X5778928Y-17499214D01*
X5836071Y-17499214D01*
X5864643Y-17513500D01*
X5878928Y-17527786D01*
X5893214Y-17556357D01*
X5893214Y-17570643D01*
X5878928Y-17599214D01*
X5864643Y-17613500D01*
X5836071Y-17627786D01*
X5778928Y-17627786D01*
X5750357Y-17642072D01*
X5736071Y-17656357D01*
X5721786Y-17684929D01*
X5721786Y-17742072D01*
X5736071Y-17770643D01*
X5750357Y-17784929D01*
X5778928Y-17799214D01*
X5836071Y-17799214D01*
X5864643Y-17784929D01*
X5878928Y-17770643D01*
X5893214Y-17742072D01*
X5893214Y-17684929D01*
X5878928Y-17656357D01*
X5864643Y-17642072D01*
X5836071Y-17627786D01*
X6178928Y-17799214D02*
X6007500Y-17799214D01*
X6093214Y-17799214D02*
X6093214Y-17499214D01*
X6064643Y-17542072D01*
X6036071Y-17570643D01*
X6007500Y-17584929D01*
X6293214Y-17499214D02*
X6293214Y-17556357D01*
X6407500Y-17499214D02*
X6407500Y-17556357D01*
X6850357Y-17913500D02*
X6836071Y-17899214D01*
X6807500Y-17856357D01*
X6793214Y-17827786D01*
X6778928Y-17784929D01*
X6764643Y-17713500D01*
X6764643Y-17656357D01*
X6778928Y-17584929D01*
X6793214Y-17542072D01*
X6807500Y-17513500D01*
X6836071Y-17470643D01*
X6850357Y-17456357D01*
X7021786Y-17499214D02*
X7050357Y-17499214D01*
X7078928Y-17513500D01*
X7093214Y-17527786D01*
X7107500Y-17556357D01*
X7121786Y-17613500D01*
X7121786Y-17684929D01*
X7107500Y-17742072D01*
X7093214Y-17770643D01*
X7078928Y-17784929D01*
X7050357Y-17799214D01*
X7021786Y-17799214D01*
X6993214Y-17784929D01*
X6978928Y-17770643D01*
X6964643Y-17742072D01*
X6950357Y-17684929D01*
X6950357Y-17613500D01*
X6964643Y-17556357D01*
X6978928Y-17527786D01*
X6993214Y-17513500D01*
X7021786Y-17499214D01*
X7478928Y-17799214D02*
X7478928Y-17499214D01*
X7607500Y-17799214D02*
X7607500Y-17642072D01*
X7593214Y-17613500D01*
X7564643Y-17599214D01*
X7521786Y-17599214D01*
X7493214Y-17613500D01*
X7478928Y-17627786D01*
X7793214Y-17799214D02*
X7764643Y-17784929D01*
X7750357Y-17770643D01*
X7736071Y-17742072D01*
X7736071Y-17656357D01*
X7750357Y-17627786D01*
X7764643Y-17613500D01*
X7793214Y-17599214D01*
X7836071Y-17599214D01*
X7864643Y-17613500D01*
X7878928Y-17627786D01*
X7893214Y-17656357D01*
X7893214Y-17742072D01*
X7878928Y-17770643D01*
X7864643Y-17784929D01*
X7836071Y-17799214D01*
X7793214Y-17799214D01*
X8064643Y-17799214D02*
X8036071Y-17784929D01*
X8021786Y-17756357D01*
X8021786Y-17499214D01*
X8293214Y-17784929D02*
X8264643Y-17799214D01*
X8207500Y-17799214D01*
X8178928Y-17784929D01*
X8164643Y-17756357D01*
X8164643Y-17642072D01*
X8178928Y-17613500D01*
X8207500Y-17599214D01*
X8264643Y-17599214D01*
X8293214Y-17613500D01*
X8307500Y-17642072D01*
X8307500Y-17670643D01*
X8164643Y-17699214D01*
X8421786Y-17784929D02*
X8450357Y-17799214D01*
X8507500Y-17799214D01*
X8536071Y-17784929D01*
X8550357Y-17756357D01*
X8550357Y-17742072D01*
X8536071Y-17713500D01*
X8507500Y-17699214D01*
X8464643Y-17699214D01*
X8436071Y-17684929D01*
X8421786Y-17656357D01*
X8421786Y-17642072D01*
X8436071Y-17613500D01*
X8464643Y-17599214D01*
X8507500Y-17599214D01*
X8536071Y-17613500D01*
X8907500Y-17684929D02*
X9136071Y-17684929D01*
X9021786Y-17799214D02*
X9021786Y-17570643D01*
X9493214Y-17527786D02*
X9507500Y-17513500D01*
X9536071Y-17499214D01*
X9607500Y-17499214D01*
X9636071Y-17513500D01*
X9650357Y-17527786D01*
X9664643Y-17556357D01*
X9664643Y-17584929D01*
X9650357Y-17627786D01*
X9478928Y-17799214D01*
X9664643Y-17799214D01*
X10007500Y-17784929D02*
X10036071Y-17799214D01*
X10093214Y-17799214D01*
X10121786Y-17784929D01*
X10136071Y-17756357D01*
X10136071Y-17742072D01*
X10121786Y-17713500D01*
X10093214Y-17699214D01*
X10050357Y-17699214D01*
X10021786Y-17684929D01*
X10007500Y-17656357D01*
X10007500Y-17642072D01*
X10021786Y-17613500D01*
X10050357Y-17599214D01*
X10093214Y-17599214D01*
X10121786Y-17613500D01*
X10307500Y-17799214D02*
X10278928Y-17784929D01*
X10264643Y-17756357D01*
X10264643Y-17499214D01*
X10464643Y-17799214D02*
X10436071Y-17784929D01*
X10421786Y-17770643D01*
X10407500Y-17742072D01*
X10407500Y-17656357D01*
X10421786Y-17627786D01*
X10436071Y-17613500D01*
X10464643Y-17599214D01*
X10507500Y-17599214D01*
X10536071Y-17613500D01*
X10550357Y-17627786D01*
X10564643Y-17656357D01*
X10564643Y-17742072D01*
X10550357Y-17770643D01*
X10536071Y-17784929D01*
X10507500Y-17799214D01*
X10464643Y-17799214D01*
X10650357Y-17599214D02*
X10764643Y-17599214D01*
X10693214Y-17499214D02*
X10693214Y-17756357D01*
X10707500Y-17784929D01*
X10736071Y-17799214D01*
X10764643Y-17799214D01*
X10850357Y-17784929D02*
X10878928Y-17799214D01*
X10936071Y-17799214D01*
X10964643Y-17784929D01*
X10978928Y-17756357D01*
X10978928Y-17742072D01*
X10964643Y-17713500D01*
X10936071Y-17699214D01*
X10893214Y-17699214D01*
X10864643Y-17684929D01*
X10850357Y-17656357D01*
X10850357Y-17642072D01*
X10864643Y-17613500D01*
X10893214Y-17599214D01*
X10936071Y-17599214D01*
X10964643Y-17613500D01*
X11078928Y-17913500D02*
X11093214Y-17899214D01*
X11121786Y-17856357D01*
X11136071Y-17827786D01*
X11150357Y-17784929D01*
X11164643Y-17713500D01*
X11164643Y-17656357D01*
X11150357Y-17584929D01*
X11136071Y-17542072D01*
X11121786Y-17513500D01*
X11093214Y-17470643D01*
X11078928Y-17456357D01*
X11621786Y-17913500D02*
X11607500Y-17899214D01*
X11578928Y-17856357D01*
X11564643Y-17827786D01*
X11550357Y-17784929D01*
X11536071Y-17713500D01*
X11536071Y-17656357D01*
X11550357Y-17584929D01*
X11564643Y-17542072D01*
X11578928Y-17513500D01*
X11607500Y-17470643D01*
X11621786Y-17456357D01*
X11736071Y-17599214D02*
X11736071Y-17799214D01*
X11736071Y-17627786D02*
X11750357Y-17613500D01*
X11778928Y-17599214D01*
X11821786Y-17599214D01*
X11850357Y-17613500D01*
X11864643Y-17642072D01*
X11864643Y-17799214D01*
X12050357Y-17799214D02*
X12021786Y-17784929D01*
X12007500Y-17770643D01*
X11993214Y-17742072D01*
X11993214Y-17656357D01*
X12007500Y-17627786D01*
X12021786Y-17613500D01*
X12050357Y-17599214D01*
X12093214Y-17599214D01*
X12121786Y-17613500D01*
X12136071Y-17627786D01*
X12150357Y-17656357D01*
X12150357Y-17742072D01*
X12136071Y-17770643D01*
X12121786Y-17784929D01*
X12093214Y-17799214D01*
X12050357Y-17799214D01*
X12236071Y-17599214D02*
X12350357Y-17599214D01*
X12278928Y-17499214D02*
X12278928Y-17756357D01*
X12293214Y-17784929D01*
X12321786Y-17799214D01*
X12350357Y-17799214D01*
X12678928Y-17599214D02*
X12678928Y-17899214D01*
X12678928Y-17613500D02*
X12707500Y-17599214D01*
X12764643Y-17599214D01*
X12793214Y-17613500D01*
X12807500Y-17627786D01*
X12821786Y-17656357D01*
X12821786Y-17742072D01*
X12807500Y-17770643D01*
X12793214Y-17784929D01*
X12764643Y-17799214D01*
X12707500Y-17799214D01*
X12678928Y-17784929D01*
X12993214Y-17799214D02*
X12964643Y-17784929D01*
X12950357Y-17756357D01*
X12950357Y-17499214D01*
X13236071Y-17799214D02*
X13236071Y-17642072D01*
X13221786Y-17613500D01*
X13193214Y-17599214D01*
X13136071Y-17599214D01*
X13107500Y-17613500D01*
X13236071Y-17784929D02*
X13207500Y-17799214D01*
X13136071Y-17799214D01*
X13107500Y-17784929D01*
X13093214Y-17756357D01*
X13093214Y-17727786D01*
X13107500Y-17699214D01*
X13136071Y-17684929D01*
X13207500Y-17684929D01*
X13236071Y-17670643D01*
X13336071Y-17599214D02*
X13450357Y-17599214D01*
X13378928Y-17499214D02*
X13378928Y-17756357D01*
X13393214Y-17784929D01*
X13421786Y-17799214D01*
X13450357Y-17799214D01*
X13664643Y-17784929D02*
X13636071Y-17799214D01*
X13578928Y-17799214D01*
X13550357Y-17784929D01*
X13536071Y-17756357D01*
X13536071Y-17642072D01*
X13550357Y-17613500D01*
X13578928Y-17599214D01*
X13636071Y-17599214D01*
X13664643Y-17613500D01*
X13678928Y-17642072D01*
X13678928Y-17670643D01*
X13536071Y-17699214D01*
X13936071Y-17799214D02*
X13936071Y-17499214D01*
X13936071Y-17784929D02*
X13907500Y-17799214D01*
X13850357Y-17799214D01*
X13821786Y-17784929D01*
X13807500Y-17770643D01*
X13793214Y-17742072D01*
X13793214Y-17656357D01*
X13807500Y-17627786D01*
X13821786Y-17613500D01*
X13850357Y-17599214D01*
X13907500Y-17599214D01*
X13936071Y-17613500D01*
X14050357Y-17913500D02*
X14064643Y-17899214D01*
X14093214Y-17856357D01*
X14107500Y-17827786D01*
X14121786Y-17784929D01*
X14136071Y-17713500D01*
X14136071Y-17656357D01*
X14121786Y-17584929D01*
X14107500Y-17542072D01*
X14093214Y-17513500D01*
X14064643Y-17470643D01*
X14050357Y-17456357D01*
X1432500Y-17933500D02*
X1432500Y-18253500D01*
X1272500Y-18093500D02*
X1592500Y-18093500D01*
X1850357Y-17929214D02*
X2036071Y-17929214D01*
X1936071Y-18043500D01*
X1978928Y-18043500D01*
X2007500Y-18057786D01*
X2021786Y-18072072D01*
X2036071Y-18100643D01*
X2036071Y-18172072D01*
X2021786Y-18200643D01*
X2007500Y-18214929D01*
X1978928Y-18229214D01*
X1893214Y-18229214D01*
X1864643Y-18214929D01*
X1850357Y-18200643D01*
X2164643Y-18200643D02*
X2178928Y-18214929D01*
X2164643Y-18229214D01*
X2150357Y-18214929D01*
X2164643Y-18200643D01*
X2164643Y-18229214D01*
X2293214Y-17957786D02*
X2307500Y-17943500D01*
X2336071Y-17929214D01*
X2407500Y-17929214D01*
X2436071Y-17943500D01*
X2450357Y-17957786D01*
X2464643Y-17986357D01*
X2464643Y-18014929D01*
X2450357Y-18057786D01*
X2278928Y-18229214D01*
X2464643Y-18229214D01*
X2650357Y-17929214D02*
X2678928Y-17929214D01*
X2707500Y-17943500D01*
X2721786Y-17957786D01*
X2736071Y-17986357D01*
X2750357Y-18043500D01*
X2750357Y-18114929D01*
X2736071Y-18172072D01*
X2721786Y-18200643D01*
X2707500Y-18214929D01*
X2678928Y-18229214D01*
X2650357Y-18229214D01*
X2621786Y-18214929D01*
X2607500Y-18200643D01*
X2593214Y-18172072D01*
X2578928Y-18114929D01*
X2578928Y-18043500D01*
X2593214Y-17986357D01*
X2607500Y-17957786D01*
X2621786Y-17943500D01*
X2650357Y-17929214D01*
X2936071Y-17929214D02*
X2964643Y-17929214D01*
X2993214Y-17943500D01*
X3007500Y-17957786D01*
X3021786Y-17986357D01*
X3036071Y-18043500D01*
X3036071Y-18114929D01*
X3021786Y-18172072D01*
X3007500Y-18200643D01*
X2993214Y-18214929D01*
X2964643Y-18229214D01*
X2936071Y-18229214D01*
X2907500Y-18214929D01*
X2893214Y-18200643D01*
X2878928Y-18172072D01*
X2864643Y-18114929D01*
X2864643Y-18043500D01*
X2878928Y-17986357D01*
X2893214Y-17957786D01*
X2907500Y-17943500D01*
X2936071Y-17929214D01*
X3164643Y-18229214D02*
X3164643Y-18029214D01*
X3164643Y-18057786D02*
X3178928Y-18043500D01*
X3207500Y-18029214D01*
X3250357Y-18029214D01*
X3278928Y-18043500D01*
X3293214Y-18072072D01*
X3293214Y-18229214D01*
X3293214Y-18072072D02*
X3307500Y-18043500D01*
X3336071Y-18029214D01*
X3378928Y-18029214D01*
X3407500Y-18043500D01*
X3421786Y-18072072D01*
X3421786Y-18229214D01*
X3564643Y-18229214D02*
X3564643Y-18029214D01*
X3564643Y-18057786D02*
X3578928Y-18043500D01*
X3607500Y-18029214D01*
X3650357Y-18029214D01*
X3678928Y-18043500D01*
X3693214Y-18072072D01*
X3693214Y-18229214D01*
X3693214Y-18072072D02*
X3707500Y-18043500D01*
X3736071Y-18029214D01*
X3778928Y-18029214D01*
X3807500Y-18043500D01*
X3821786Y-18072072D01*
X3821786Y-18229214D01*
X4407500Y-17914929D02*
X4150357Y-18300643D01*
X4793214Y-17929214D02*
X4821786Y-17929214D01*
X4850357Y-17943500D01*
X4864643Y-17957786D01*
X4878928Y-17986357D01*
X4893214Y-18043500D01*
X4893214Y-18114929D01*
X4878928Y-18172072D01*
X4864643Y-18200643D01*
X4850357Y-18214929D01*
X4821786Y-18229214D01*
X4793214Y-18229214D01*
X4764643Y-18214929D01*
X4750357Y-18200643D01*
X4736071Y-18172072D01*
X4721786Y-18114929D01*
X4721786Y-18043500D01*
X4736071Y-17986357D01*
X4750357Y-17957786D01*
X4764643Y-17943500D01*
X4793214Y-17929214D01*
X5021786Y-18200643D02*
X5036071Y-18214929D01*
X5021786Y-18229214D01*
X5007500Y-18214929D01*
X5021786Y-18200643D01*
X5021786Y-18229214D01*
X5321786Y-18229214D02*
X5150357Y-18229214D01*
X5236071Y-18229214D02*
X5236071Y-17929214D01*
X5207500Y-17972072D01*
X5178928Y-18000643D01*
X5150357Y-18014929D01*
X5436071Y-17957786D02*
X5450357Y-17943500D01*
X5478928Y-17929214D01*
X5550357Y-17929214D01*
X5578928Y-17943500D01*
X5593214Y-17957786D01*
X5607500Y-17986357D01*
X5607500Y-18014929D01*
X5593214Y-18057786D01*
X5421786Y-18229214D01*
X5607500Y-18229214D01*
X5864643Y-17929214D02*
X5807500Y-17929214D01*
X5778928Y-17943500D01*
X5764643Y-17957786D01*
X5736071Y-18000643D01*
X5721786Y-18057786D01*
X5721786Y-18172072D01*
X5736071Y-18200643D01*
X5750357Y-18214929D01*
X5778928Y-18229214D01*
X5836071Y-18229214D01*
X5864643Y-18214929D01*
X5878928Y-18200643D01*
X5893214Y-18172072D01*
X5893214Y-18100643D01*
X5878928Y-18072072D01*
X5864643Y-18057786D01*
X5836071Y-18043500D01*
X5778928Y-18043500D01*
X5750357Y-18057786D01*
X5736071Y-18072072D01*
X5721786Y-18100643D01*
X6078928Y-17929214D02*
X6107500Y-17929214D01*
X6136071Y-17943500D01*
X6150357Y-17957786D01*
X6164643Y-17986357D01*
X6178928Y-18043500D01*
X6178928Y-18114929D01*
X6164643Y-18172072D01*
X6150357Y-18200643D01*
X6136071Y-18214929D01*
X6107500Y-18229214D01*
X6078928Y-18229214D01*
X6050357Y-18214929D01*
X6036071Y-18200643D01*
X6021786Y-18172072D01*
X6007500Y-18114929D01*
X6007500Y-18043500D01*
X6021786Y-17986357D01*
X6036071Y-17957786D01*
X6050357Y-17943500D01*
X6078928Y-17929214D01*
X6293214Y-17929214D02*
X6293214Y-17986357D01*
X6407500Y-17929214D02*
X6407500Y-17986357D01*
X6850357Y-18343500D02*
X6836071Y-18329214D01*
X6807500Y-18286357D01*
X6793214Y-18257786D01*
X6778928Y-18214929D01*
X6764643Y-18143500D01*
X6764643Y-18086357D01*
X6778928Y-18014929D01*
X6793214Y-17972072D01*
X6807500Y-17943500D01*
X6836071Y-17900643D01*
X6850357Y-17886357D01*
X7107500Y-17929214D02*
X6964643Y-17929214D01*
X6950357Y-18072072D01*
X6964643Y-18057786D01*
X6993214Y-18043500D01*
X7064643Y-18043500D01*
X7093214Y-18057786D01*
X7107500Y-18072072D01*
X7121786Y-18100643D01*
X7121786Y-18172072D01*
X7107500Y-18200643D01*
X7093214Y-18214929D01*
X7064643Y-18229214D01*
X6993214Y-18229214D01*
X6964643Y-18214929D01*
X6950357Y-18200643D01*
X7478928Y-18229214D02*
X7478928Y-17929214D01*
X7607500Y-18229214D02*
X7607500Y-18072072D01*
X7593214Y-18043500D01*
X7564643Y-18029214D01*
X7521786Y-18029214D01*
X7493214Y-18043500D01*
X7478928Y-18057786D01*
X7793214Y-18229214D02*
X7764643Y-18214929D01*
X7750357Y-18200643D01*
X7736071Y-18172072D01*
X7736071Y-18086357D01*
X7750357Y-18057786D01*
X7764643Y-18043500D01*
X7793214Y-18029214D01*
X7836071Y-18029214D01*
X7864643Y-18043500D01*
X7878928Y-18057786D01*
X7893214Y-18086357D01*
X7893214Y-18172072D01*
X7878928Y-18200643D01*
X7864643Y-18214929D01*
X7836071Y-18229214D01*
X7793214Y-18229214D01*
X8064643Y-18229214D02*
X8036071Y-18214929D01*
X8021786Y-18186357D01*
X8021786Y-17929214D01*
X8293214Y-18214929D02*
X8264643Y-18229214D01*
X8207500Y-18229214D01*
X8178928Y-18214929D01*
X8164643Y-18186357D01*
X8164643Y-18072072D01*
X8178928Y-18043500D01*
X8207500Y-18029214D01*
X8264643Y-18029214D01*
X8293214Y-18043500D01*
X8307500Y-18072072D01*
X8307500Y-18100643D01*
X8164643Y-18129214D01*
X8421786Y-18214929D02*
X8450357Y-18229214D01*
X8507500Y-18229214D01*
X8536071Y-18214929D01*
X8550357Y-18186357D01*
X8550357Y-18172072D01*
X8536071Y-18143500D01*
X8507500Y-18129214D01*
X8464643Y-18129214D01*
X8436071Y-18114929D01*
X8421786Y-18086357D01*
X8421786Y-18072072D01*
X8436071Y-18043500D01*
X8464643Y-18029214D01*
X8507500Y-18029214D01*
X8536071Y-18043500D01*
X8650357Y-18343500D02*
X8664643Y-18329214D01*
X8693214Y-18286357D01*
X8707500Y-18257786D01*
X8721786Y-18214929D01*
X8736071Y-18143500D01*
X8736071Y-18086357D01*
X8721786Y-18014929D01*
X8707500Y-17972072D01*
X8693214Y-17943500D01*
X8664643Y-17900643D01*
X8650357Y-17886357D01*
X9193214Y-18343500D02*
X9178928Y-18329214D01*
X9150357Y-18286357D01*
X9136071Y-18257786D01*
X9121786Y-18214929D01*
X9107500Y-18143500D01*
X9107500Y-18086357D01*
X9121786Y-18014929D01*
X9136071Y-17972072D01*
X9150357Y-17943500D01*
X9178928Y-17900643D01*
X9193214Y-17886357D01*
X9307500Y-18029214D02*
X9307500Y-18229214D01*
X9307500Y-18057786D02*
X9321786Y-18043500D01*
X9350357Y-18029214D01*
X9393214Y-18029214D01*
X9421786Y-18043500D01*
X9436071Y-18072072D01*
X9436071Y-18229214D01*
X9621786Y-18229214D02*
X9593214Y-18214929D01*
X9578928Y-18200643D01*
X9564643Y-18172072D01*
X9564643Y-18086357D01*
X9578928Y-18057786D01*
X9593214Y-18043500D01*
X9621786Y-18029214D01*
X9664643Y-18029214D01*
X9693214Y-18043500D01*
X9707500Y-18057786D01*
X9721786Y-18086357D01*
X9721786Y-18172072D01*
X9707500Y-18200643D01*
X9693214Y-18214929D01*
X9664643Y-18229214D01*
X9621786Y-18229214D01*
X9807500Y-18029214D02*
X9921786Y-18029214D01*
X9850357Y-17929214D02*
X9850357Y-18186357D01*
X9864643Y-18214929D01*
X9893214Y-18229214D01*
X9921786Y-18229214D01*
X10250357Y-18029214D02*
X10250357Y-18329214D01*
X10250357Y-18043500D02*
X10278928Y-18029214D01*
X10336071Y-18029214D01*
X10364643Y-18043500D01*
X10378928Y-18057786D01*
X10393214Y-18086357D01*
X10393214Y-18172072D01*
X10378928Y-18200643D01*
X10364643Y-18214929D01*
X10336071Y-18229214D01*
X10278928Y-18229214D01*
X10250357Y-18214929D01*
X10564643Y-18229214D02*
X10536071Y-18214929D01*
X10521786Y-18186357D01*
X10521786Y-17929214D01*
X10807500Y-18229214D02*
X10807500Y-18072072D01*
X10793214Y-18043500D01*
X10764643Y-18029214D01*
X10707500Y-18029214D01*
X10678928Y-18043500D01*
X10807500Y-18214929D02*
X10778928Y-18229214D01*
X10707500Y-18229214D01*
X10678928Y-18214929D01*
X10664643Y-18186357D01*
X10664643Y-18157786D01*
X10678928Y-18129214D01*
X10707500Y-18114929D01*
X10778928Y-18114929D01*
X10807500Y-18100643D01*
X10907500Y-18029214D02*
X11021786Y-18029214D01*
X10950357Y-17929214D02*
X10950357Y-18186357D01*
X10964643Y-18214929D01*
X10993214Y-18229214D01*
X11021786Y-18229214D01*
X11236071Y-18214929D02*
X11207500Y-18229214D01*
X11150357Y-18229214D01*
X11121786Y-18214929D01*
X11107500Y-18186357D01*
X11107500Y-18072072D01*
X11121786Y-18043500D01*
X11150357Y-18029214D01*
X11207500Y-18029214D01*
X11236071Y-18043500D01*
X11250357Y-18072072D01*
X11250357Y-18100643D01*
X11107500Y-18129214D01*
X11507500Y-18229214D02*
X11507500Y-17929214D01*
X11507500Y-18214929D02*
X11478928Y-18229214D01*
X11421786Y-18229214D01*
X11393214Y-18214929D01*
X11378928Y-18200643D01*
X11364643Y-18172072D01*
X11364643Y-18086357D01*
X11378928Y-18057786D01*
X11393214Y-18043500D01*
X11421786Y-18029214D01*
X11478928Y-18029214D01*
X11507500Y-18043500D01*
X11621786Y-18343500D02*
X11636071Y-18329214D01*
X11664643Y-18286357D01*
X11678928Y-18257786D01*
X11693214Y-18214929D01*
X11707500Y-18143500D01*
X11707500Y-18086357D01*
X11693214Y-18014929D01*
X11678928Y-17972072D01*
X11664643Y-17943500D01*
X11636071Y-17900643D01*
X11621786Y-17886357D01*
X1519278Y-18720279D02*
X1519278Y-18366722D01*
X1165722Y-18366722D01*
X1165722Y-18720279D01*
X1519278Y-18720279D01*
X2021786Y-18379214D02*
X1878928Y-18379214D01*
X1864643Y-18522072D01*
X1878928Y-18507786D01*
X1907500Y-18493500D01*
X1978928Y-18493500D01*
X2007500Y-18507786D01*
X2021786Y-18522072D01*
X2036071Y-18550643D01*
X2036071Y-18622072D01*
X2021786Y-18650643D01*
X2007500Y-18664929D01*
X1978928Y-18679214D01*
X1907500Y-18679214D01*
X1878928Y-18664929D01*
X1864643Y-18650643D01*
X2164643Y-18650643D02*
X2178928Y-18664929D01*
X2164643Y-18679214D01*
X2150357Y-18664929D01*
X2164643Y-18650643D01*
X2164643Y-18679214D01*
X2364643Y-18379214D02*
X2393214Y-18379214D01*
X2421786Y-18393500D01*
X2436071Y-18407786D01*
X2450357Y-18436357D01*
X2464643Y-18493500D01*
X2464643Y-18564929D01*
X2450357Y-18622072D01*
X2436071Y-18650643D01*
X2421786Y-18664929D01*
X2393214Y-18679214D01*
X2364643Y-18679214D01*
X2336071Y-18664929D01*
X2321786Y-18650643D01*
X2307500Y-18622072D01*
X2293214Y-18564929D01*
X2293214Y-18493500D01*
X2307500Y-18436357D01*
X2321786Y-18407786D01*
X2336071Y-18393500D01*
X2364643Y-18379214D01*
X2650357Y-18379214D02*
X2678928Y-18379214D01*
X2707500Y-18393500D01*
X2721786Y-18407786D01*
X2736071Y-18436357D01*
X2750357Y-18493500D01*
X2750357Y-18564929D01*
X2736071Y-18622072D01*
X2721786Y-18650643D01*
X2707500Y-18664929D01*
X2678928Y-18679214D01*
X2650357Y-18679214D01*
X2621786Y-18664929D01*
X2607500Y-18650643D01*
X2593214Y-18622072D01*
X2578928Y-18564929D01*
X2578928Y-18493500D01*
X2593214Y-18436357D01*
X2607500Y-18407786D01*
X2621786Y-18393500D01*
X2650357Y-18379214D01*
X2936071Y-18379214D02*
X2964643Y-18379214D01*
X2993214Y-18393500D01*
X3007500Y-18407786D01*
X3021786Y-18436357D01*
X3036071Y-18493500D01*
X3036071Y-18564929D01*
X3021786Y-18622072D01*
X3007500Y-18650643D01*
X2993214Y-18664929D01*
X2964643Y-18679214D01*
X2936071Y-18679214D01*
X2907500Y-18664929D01*
X2893214Y-18650643D01*
X2878928Y-18622072D01*
X2864643Y-18564929D01*
X2864643Y-18493500D01*
X2878928Y-18436357D01*
X2893214Y-18407786D01*
X2907500Y-18393500D01*
X2936071Y-18379214D01*
X3164643Y-18679214D02*
X3164643Y-18479214D01*
X3164643Y-18507786D02*
X3178928Y-18493500D01*
X3207500Y-18479214D01*
X3250357Y-18479214D01*
X3278928Y-18493500D01*
X3293214Y-18522072D01*
X3293214Y-18679214D01*
X3293214Y-18522072D02*
X3307500Y-18493500D01*
X3336071Y-18479214D01*
X3378928Y-18479214D01*
X3407500Y-18493500D01*
X3421786Y-18522072D01*
X3421786Y-18679214D01*
X3564643Y-18679214D02*
X3564643Y-18479214D01*
X3564643Y-18507786D02*
X3578928Y-18493500D01*
X3607500Y-18479214D01*
X3650357Y-18479214D01*
X3678928Y-18493500D01*
X3693214Y-18522072D01*
X3693214Y-18679214D01*
X3693214Y-18522072D02*
X3707500Y-18493500D01*
X3736071Y-18479214D01*
X3778928Y-18479214D01*
X3807500Y-18493500D01*
X3821786Y-18522072D01*
X3821786Y-18679214D01*
X4407500Y-18364929D02*
X4150357Y-18750643D01*
X4793214Y-18379214D02*
X4821786Y-18379214D01*
X4850357Y-18393500D01*
X4864643Y-18407786D01*
X4878928Y-18436357D01*
X4893214Y-18493500D01*
X4893214Y-18564929D01*
X4878928Y-18622072D01*
X4864643Y-18650643D01*
X4850357Y-18664929D01*
X4821786Y-18679214D01*
X4793214Y-18679214D01*
X4764643Y-18664929D01*
X4750357Y-18650643D01*
X4736071Y-18622072D01*
X4721786Y-18564929D01*
X4721786Y-18493500D01*
X4736071Y-18436357D01*
X4750357Y-18407786D01*
X4764643Y-18393500D01*
X4793214Y-18379214D01*
X5021786Y-18650643D02*
X5036071Y-18664929D01*
X5021786Y-18679214D01*
X5007500Y-18664929D01*
X5021786Y-18650643D01*
X5021786Y-18679214D01*
X5321786Y-18679214D02*
X5150357Y-18679214D01*
X5236071Y-18679214D02*
X5236071Y-18379214D01*
X5207500Y-18422072D01*
X5178928Y-18450643D01*
X5150357Y-18464929D01*
X5464643Y-18679214D02*
X5521786Y-18679214D01*
X5550357Y-18664929D01*
X5564643Y-18650643D01*
X5593214Y-18607786D01*
X5607500Y-18550643D01*
X5607500Y-18436357D01*
X5593214Y-18407786D01*
X5578928Y-18393500D01*
X5550357Y-18379214D01*
X5493214Y-18379214D01*
X5464643Y-18393500D01*
X5450357Y-18407786D01*
X5436071Y-18436357D01*
X5436071Y-18507786D01*
X5450357Y-18536357D01*
X5464643Y-18550643D01*
X5493214Y-18564929D01*
X5550357Y-18564929D01*
X5578928Y-18550643D01*
X5593214Y-18536357D01*
X5607500Y-18507786D01*
X5864643Y-18379214D02*
X5807500Y-18379214D01*
X5778928Y-18393500D01*
X5764643Y-18407786D01*
X5736071Y-18450643D01*
X5721786Y-18507786D01*
X5721786Y-18622072D01*
X5736071Y-18650643D01*
X5750357Y-18664929D01*
X5778928Y-18679214D01*
X5836071Y-18679214D01*
X5864643Y-18664929D01*
X5878928Y-18650643D01*
X5893214Y-18622072D01*
X5893214Y-18550643D01*
X5878928Y-18522072D01*
X5864643Y-18507786D01*
X5836071Y-18493500D01*
X5778928Y-18493500D01*
X5750357Y-18507786D01*
X5736071Y-18522072D01*
X5721786Y-18550643D01*
X6036071Y-18679214D02*
X6093214Y-18679214D01*
X6121786Y-18664929D01*
X6136071Y-18650643D01*
X6164643Y-18607786D01*
X6178928Y-18550643D01*
X6178928Y-18436357D01*
X6164643Y-18407786D01*
X6150357Y-18393500D01*
X6121786Y-18379214D01*
X6064643Y-18379214D01*
X6036071Y-18393500D01*
X6021786Y-18407786D01*
X6007500Y-18436357D01*
X6007500Y-18507786D01*
X6021786Y-18536357D01*
X6036071Y-18550643D01*
X6064643Y-18564929D01*
X6121786Y-18564929D01*
X6150357Y-18550643D01*
X6164643Y-18536357D01*
X6178928Y-18507786D01*
X6293214Y-18379214D02*
X6293214Y-18436357D01*
X6407500Y-18379214D02*
X6407500Y-18436357D01*
X6850357Y-18793500D02*
X6836071Y-18779214D01*
X6807500Y-18736357D01*
X6793214Y-18707786D01*
X6778928Y-18664929D01*
X6764643Y-18593500D01*
X6764643Y-18536357D01*
X6778928Y-18464929D01*
X6793214Y-18422072D01*
X6807500Y-18393500D01*
X6836071Y-18350643D01*
X6850357Y-18336357D01*
X7093214Y-18479214D02*
X7093214Y-18679214D01*
X7021786Y-18364929D02*
X6950357Y-18579214D01*
X7136071Y-18579214D01*
X7478928Y-18679214D02*
X7478928Y-18379214D01*
X7607500Y-18679214D02*
X7607500Y-18522072D01*
X7593214Y-18493500D01*
X7564643Y-18479214D01*
X7521786Y-18479214D01*
X7493214Y-18493500D01*
X7478928Y-18507786D01*
X7793214Y-18679214D02*
X7764643Y-18664929D01*
X7750357Y-18650643D01*
X7736071Y-18622072D01*
X7736071Y-18536357D01*
X7750357Y-18507786D01*
X7764643Y-18493500D01*
X7793214Y-18479214D01*
X7836071Y-18479214D01*
X7864643Y-18493500D01*
X7878928Y-18507786D01*
X7893214Y-18536357D01*
X7893214Y-18622072D01*
X7878928Y-18650643D01*
X7864643Y-18664929D01*
X7836071Y-18679214D01*
X7793214Y-18679214D01*
X8064643Y-18679214D02*
X8036071Y-18664929D01*
X8021786Y-18636357D01*
X8021786Y-18379214D01*
X8293214Y-18664929D02*
X8264643Y-18679214D01*
X8207500Y-18679214D01*
X8178928Y-18664929D01*
X8164643Y-18636357D01*
X8164643Y-18522072D01*
X8178928Y-18493500D01*
X8207500Y-18479214D01*
X8264643Y-18479214D01*
X8293214Y-18493500D01*
X8307500Y-18522072D01*
X8307500Y-18550643D01*
X8164643Y-18579214D01*
X8421786Y-18664929D02*
X8450357Y-18679214D01*
X8507500Y-18679214D01*
X8536071Y-18664929D01*
X8550357Y-18636357D01*
X8550357Y-18622072D01*
X8536071Y-18593500D01*
X8507500Y-18579214D01*
X8464643Y-18579214D01*
X8436071Y-18564929D01*
X8421786Y-18536357D01*
X8421786Y-18522072D01*
X8436071Y-18493500D01*
X8464643Y-18479214D01*
X8507500Y-18479214D01*
X8536071Y-18493500D01*
X8650357Y-18793500D02*
X8664643Y-18779214D01*
X8693214Y-18736357D01*
X8707500Y-18707786D01*
X8721786Y-18664929D01*
X8736071Y-18593500D01*
X8736071Y-18536357D01*
X8721786Y-18464929D01*
X8707500Y-18422072D01*
X8693214Y-18393500D01*
X8664643Y-18350643D01*
X8650357Y-18336357D01*
X9193214Y-18793500D02*
X9178928Y-18779214D01*
X9150357Y-18736357D01*
X9136071Y-18707786D01*
X9121786Y-18664929D01*
X9107500Y-18593500D01*
X9107500Y-18536357D01*
X9121786Y-18464929D01*
X9136071Y-18422072D01*
X9150357Y-18393500D01*
X9178928Y-18350643D01*
X9193214Y-18336357D01*
X9307500Y-18479214D02*
X9307500Y-18679214D01*
X9307500Y-18507786D02*
X9321786Y-18493500D01*
X9350357Y-18479214D01*
X9393214Y-18479214D01*
X9421786Y-18493500D01*
X9436071Y-18522072D01*
X9436071Y-18679214D01*
X9621786Y-18679214D02*
X9593214Y-18664929D01*
X9578928Y-18650643D01*
X9564643Y-18622072D01*
X9564643Y-18536357D01*
X9578928Y-18507786D01*
X9593214Y-18493500D01*
X9621786Y-18479214D01*
X9664643Y-18479214D01*
X9693214Y-18493500D01*
X9707500Y-18507786D01*
X9721786Y-18536357D01*
X9721786Y-18622072D01*
X9707500Y-18650643D01*
X9693214Y-18664929D01*
X9664643Y-18679214D01*
X9621786Y-18679214D01*
X9807500Y-18479214D02*
X9921786Y-18479214D01*
X9850357Y-18379214D02*
X9850357Y-18636357D01*
X9864643Y-18664929D01*
X9893214Y-18679214D01*
X9921786Y-18679214D01*
X10250357Y-18479214D02*
X10250357Y-18779214D01*
X10250357Y-18493500D02*
X10278928Y-18479214D01*
X10336071Y-18479214D01*
X10364643Y-18493500D01*
X10378928Y-18507786D01*
X10393214Y-18536357D01*
X10393214Y-18622072D01*
X10378928Y-18650643D01*
X10364643Y-18664929D01*
X10336071Y-18679214D01*
X10278928Y-18679214D01*
X10250357Y-18664929D01*
X10564643Y-18679214D02*
X10536071Y-18664929D01*
X10521786Y-18636357D01*
X10521786Y-18379214D01*
X10807500Y-18679214D02*
X10807500Y-18522072D01*
X10793214Y-18493500D01*
X10764643Y-18479214D01*
X10707500Y-18479214D01*
X10678928Y-18493500D01*
X10807500Y-18664929D02*
X10778928Y-18679214D01*
X10707500Y-18679214D01*
X10678928Y-18664929D01*
X10664643Y-18636357D01*
X10664643Y-18607786D01*
X10678928Y-18579214D01*
X10707500Y-18564929D01*
X10778928Y-18564929D01*
X10807500Y-18550643D01*
X10907500Y-18479214D02*
X11021786Y-18479214D01*
X10950357Y-18379214D02*
X10950357Y-18636357D01*
X10964643Y-18664929D01*
X10993214Y-18679214D01*
X11021786Y-18679214D01*
X11236071Y-18664929D02*
X11207500Y-18679214D01*
X11150357Y-18679214D01*
X11121786Y-18664929D01*
X11107500Y-18636357D01*
X11107500Y-18522072D01*
X11121786Y-18493500D01*
X11150357Y-18479214D01*
X11207500Y-18479214D01*
X11236071Y-18493500D01*
X11250357Y-18522072D01*
X11250357Y-18550643D01*
X11107500Y-18579214D01*
X11507500Y-18679214D02*
X11507500Y-18379214D01*
X11507500Y-18664929D02*
X11478928Y-18679214D01*
X11421786Y-18679214D01*
X11393214Y-18664929D01*
X11378928Y-18650643D01*
X11364643Y-18622072D01*
X11364643Y-18536357D01*
X11378928Y-18507786D01*
X11393214Y-18493500D01*
X11421786Y-18479214D01*
X11478928Y-18479214D01*
X11507500Y-18493500D01*
X11621786Y-18793500D02*
X11636071Y-18779214D01*
X11664643Y-18736357D01*
X11678928Y-18707786D01*
X11693214Y-18664929D01*
X11707500Y-18593500D01*
X11707500Y-18536357D01*
X11693214Y-18464929D01*
X11678928Y-18422072D01*
X11664643Y-18393500D01*
X11636071Y-18350643D01*
X11621786Y-18336357D01*
M02*
